<svg width="800" height="643" viewBox="0 0 800 643" fill="none" xmlns="http://www.w3.org/2000/svg">
<g filter="url(#filter0_d_1_327)">
<rect x="165" y="100" width="500" height="343" rx="28" fill="white"/>
</g>
<mask id="mask0_1_327" style="mask-type:luminance" maskUnits="userSpaceOnUse" x="165" y="100" width="320" height="343">
<rect x="165" y="100" width="320" height="343" rx="28" fill="white"/>
</mask>
<g mask="url(#mask0_1_327)">
</g>
<g clip-path="url(#clip0_1_327)">
<path d="M421.72 142V140.336H425.048V152H423.208V142H421.72ZM438.654 149.728H433.998L433.198 152H431.294L435.278 140.864H437.39L441.374 152H439.454L438.654 149.728ZM438.142 148.24L436.334 143.072L434.51 148.24H438.142ZM442.498 147.584C442.498 146.677 442.68 145.883 443.042 145.2C443.416 144.507 443.928 143.973 444.578 143.6C445.229 143.227 445.976 143.04 446.818 143.04C447.885 143.04 448.765 143.296 449.458 143.808C450.162 144.309 450.637 145.029 450.882 145.968H448.914C448.754 145.531 448.498 145.189 448.146 144.944C447.794 144.699 447.352 144.576 446.818 144.576C446.072 144.576 445.474 144.843 445.026 145.376C444.589 145.899 444.37 146.635 444.37 147.584C444.37 148.533 444.589 149.275 445.026 149.808C445.474 150.341 446.072 150.608 446.818 150.608C447.874 150.608 448.573 150.144 448.914 149.216H450.882C450.626 150.112 450.146 150.827 449.442 151.36C448.738 151.883 447.864 152.144 446.818 152.144C445.976 152.144 445.229 151.957 444.578 151.584C443.928 151.2 443.416 150.667 443.042 149.984C442.68 149.291 442.498 148.491 442.498 147.584ZM454.828 144.672V149.552C454.828 149.883 454.903 150.123 455.052 150.272C455.212 150.411 455.479 150.48 455.852 150.48H456.972V152H455.532C454.711 152 454.081 151.808 453.644 151.424C453.207 151.04 452.988 150.416 452.988 149.552V144.672H451.948V143.184H452.988V140.992H454.828V143.184H456.972V144.672H454.828ZM459.581 142.016C459.25 142.016 458.973 141.904 458.749 141.68C458.525 141.456 458.413 141.179 458.413 140.848C458.413 140.517 458.525 140.24 458.749 140.016C458.973 139.792 459.25 139.68 459.581 139.68C459.901 139.68 460.173 139.792 460.397 140.016C460.621 140.24 460.733 140.517 460.733 140.848C460.733 141.179 460.621 141.456 460.397 141.68C460.173 141.904 459.901 142.016 459.581 142.016ZM460.477 143.184V152H458.653V143.184H460.477ZM466.28 150.368L468.776 143.184H470.712L467.352 152H465.176L461.832 143.184H463.784L466.28 150.368ZM480.171 147.376C480.171 147.707 480.149 148.005 480.107 148.272H473.371C473.424 148.976 473.685 149.541 474.155 149.968C474.624 150.395 475.2 150.608 475.883 150.608C476.864 150.608 477.557 150.197 477.963 149.376H479.931C479.664 150.187 479.179 150.853 478.475 151.376C477.781 151.888 476.917 152.144 475.883 152.144C475.04 152.144 474.283 151.957 473.611 151.584C472.949 151.2 472.427 150.667 472.043 149.984C471.669 149.291 471.483 148.491 471.483 147.584C471.483 146.677 471.664 145.883 472.027 145.2C472.4 144.507 472.917 143.973 473.579 143.6C474.251 143.227 475.019 143.04 475.883 143.04C476.715 143.04 477.456 143.221 478.107 143.584C478.757 143.947 479.264 144.459 479.627 145.12C479.989 145.771 480.171 146.523 480.171 147.376ZM478.267 146.8C478.256 146.128 478.016 145.589 477.547 145.184C477.077 144.779 476.496 144.576 475.803 144.576C475.173 144.576 474.635 144.779 474.187 145.184C473.739 145.579 473.472 146.117 473.387 146.8H478.267ZM492.186 140.88V148.896C492.186 149.888 491.882 150.672 491.274 151.248C490.677 151.824 489.887 152.112 488.906 152.112C487.925 152.112 487.13 151.824 486.522 151.248C485.925 150.672 485.626 149.888 485.626 148.896H487.466C487.477 149.387 487.599 149.776 487.834 150.064C488.079 150.352 488.437 150.496 488.906 150.496C489.375 150.496 489.733 150.352 489.978 150.064C490.223 149.765 490.346 149.376 490.346 148.896V140.88H492.186ZM498.977 152.144C498.145 152.144 497.393 151.957 496.721 151.584C496.049 151.2 495.521 150.667 495.137 149.984C494.753 149.291 494.561 148.491 494.561 147.584C494.561 146.688 494.758 145.893 495.153 145.2C495.548 144.507 496.086 143.973 496.769 143.6C497.452 143.227 498.214 143.04 499.057 143.04C499.9 143.04 500.662 143.227 501.345 143.6C502.028 143.973 502.566 144.507 502.961 145.2C503.356 145.893 503.553 146.688 503.553 147.584C503.553 148.48 503.35 149.275 502.945 149.968C502.54 150.661 501.985 151.2 501.281 151.584C500.588 151.957 499.82 152.144 498.977 152.144ZM498.977 150.56C499.446 150.56 499.884 150.448 500.289 150.224C500.705 150 501.041 149.664 501.297 149.216C501.553 148.768 501.681 148.224 501.681 147.584C501.681 146.944 501.558 146.405 501.313 145.968C501.068 145.52 500.742 145.184 500.337 144.96C499.932 144.736 499.494 144.624 499.025 144.624C498.556 144.624 498.118 144.736 497.713 144.96C497.318 145.184 497.004 145.52 496.769 145.968C496.534 146.405 496.417 146.944 496.417 147.584C496.417 148.533 496.657 149.269 497.137 149.792C497.628 150.304 498.241 150.56 498.977 150.56ZM507.18 144.496C507.49 144.069 507.911 143.723 508.444 143.456C508.988 143.179 509.591 143.04 510.252 143.04C511.031 143.04 511.735 143.227 512.364 143.6C512.994 143.973 513.49 144.507 513.852 145.2C514.215 145.883 514.396 146.667 514.396 147.552C514.396 148.437 514.215 149.232 513.852 149.936C513.49 150.629 512.988 151.173 512.348 151.568C511.719 151.952 511.02 152.144 510.252 152.144C509.57 152.144 508.962 152.011 508.428 151.744C507.906 151.477 507.49 151.136 507.18 150.72V152H505.356V140.16H507.18V144.496ZM512.54 147.552C512.54 146.944 512.412 146.421 512.156 145.984C511.911 145.536 511.58 145.2 511.164 144.976C510.759 144.741 510.322 144.624 509.852 144.624C509.394 144.624 508.956 144.741 508.54 144.976C508.135 145.211 507.804 145.552 507.548 146C507.303 146.448 507.18 146.976 507.18 147.584C507.18 148.192 507.303 148.725 507.548 149.184C507.804 149.632 508.135 149.973 508.54 150.208C508.956 150.443 509.394 150.56 509.852 150.56C510.322 150.56 510.759 150.443 511.164 150.208C511.58 149.963 511.911 149.611 512.156 149.152C512.412 148.693 512.54 148.16 512.54 147.552Z" fill="#323445"/>
<circle cx="399" cy="146" r="10" fill="url(#paint0_linear_1_327)"/>
<g filter="url(#filter1_d_1_327)">
<path d="M402.434 142.709C402.828 142.322 403.461 142.327 403.848 142.72C404.206 143.083 404.23 143.651 403.922 144.041L403.838 144.134L398.249 149.638C397.882 149.999 397.307 150.019 396.918 149.703L396.825 149.617L394.353 147.035C393.971 146.636 393.985 146.003 394.384 145.621C394.752 145.268 395.32 145.253 395.705 145.567L395.798 145.652L397.568 147.501L402.434 142.709Z" fill="white"/>
</g>
</g>
<g clip-path="url(#clip1_1_327)">
<path d="M428.152 190.288C428.749 190.395 429.256 190.709 429.672 191.232C430.088 191.755 430.296 192.347 430.296 193.008C430.296 193.573 430.147 194.085 429.848 194.544C429.56 194.992 429.139 195.349 428.584 195.616C428.029 195.872 427.384 196 426.648 196H422.2V184.88H426.44C427.197 184.88 427.848 185.008 428.392 185.264C428.936 185.52 429.347 185.867 429.624 186.304C429.901 186.731 430.04 187.211 430.04 187.744C430.04 188.384 429.869 188.917 429.528 189.344C429.187 189.771 428.728 190.085 428.152 190.288ZM424.024 189.552H426.28C426.877 189.552 427.341 189.419 427.672 189.152C428.013 188.875 428.184 188.48 428.184 187.968C428.184 187.467 428.013 187.077 427.672 186.8C427.341 186.512 426.877 186.368 426.28 186.368H424.024V189.552ZM426.488 194.512C427.107 194.512 427.592 194.363 427.944 194.064C428.296 193.765 428.472 193.349 428.472 192.816C428.472 192.272 428.285 191.84 427.912 191.52C427.539 191.2 427.043 191.04 426.424 191.04H424.024V194.512H426.488ZM431.67 191.552C431.67 190.667 431.851 189.883 432.214 189.2C432.587 188.517 433.089 187.989 433.718 187.616C434.358 187.232 435.062 187.04 435.83 187.04C436.523 187.04 437.126 187.179 437.638 187.456C438.161 187.723 438.577 188.059 438.886 188.464V187.184H440.726V196H438.886V194.688C438.577 195.104 438.155 195.451 437.622 195.728C437.089 196.005 436.481 196.144 435.798 196.144C435.041 196.144 434.347 195.952 433.718 195.568C433.089 195.173 432.587 194.629 432.214 193.936C431.851 193.232 431.67 192.437 431.67 191.552ZM438.886 191.584C438.886 190.976 438.758 190.448 438.502 190C438.257 189.552 437.931 189.211 437.526 188.976C437.121 188.741 436.683 188.624 436.214 188.624C435.745 188.624 435.307 188.741 434.902 188.976C434.497 189.2 434.166 189.536 433.91 189.984C433.665 190.421 433.542 190.944 433.542 191.552C433.542 192.16 433.665 192.693 433.91 193.152C434.166 193.611 434.497 193.963 434.902 194.208C435.318 194.443 435.755 194.56 436.214 194.56C436.683 194.56 437.121 194.443 437.526 194.208C437.931 193.973 438.257 193.632 438.502 193.184C438.758 192.725 438.886 192.192 438.886 191.584ZM446.322 196.144C445.629 196.144 445.005 196.021 444.45 195.776C443.906 195.52 443.474 195.179 443.154 194.752C442.834 194.315 442.663 193.829 442.642 193.296H444.53C444.562 193.669 444.738 193.984 445.058 194.24C445.389 194.485 445.799 194.608 446.29 194.608C446.802 194.608 447.197 194.512 447.474 194.32C447.762 194.117 447.906 193.861 447.906 193.552C447.906 193.221 447.746 192.976 447.426 192.816C447.117 192.656 446.621 192.48 445.938 192.288C445.277 192.107 444.738 191.931 444.322 191.76C443.906 191.589 443.543 191.328 443.234 190.976C442.935 190.624 442.786 190.16 442.786 189.584C442.786 189.115 442.925 188.688 443.202 188.304C443.479 187.909 443.874 187.6 444.386 187.376C444.909 187.152 445.506 187.04 446.178 187.04C447.181 187.04 447.986 187.296 448.594 187.808C449.213 188.309 449.543 188.997 449.586 189.872H447.762C447.73 189.477 447.57 189.163 447.282 188.928C446.994 188.693 446.605 188.576 446.114 188.576C445.634 188.576 445.266 188.667 445.01 188.848C444.754 189.029 444.626 189.269 444.626 189.568C444.626 189.803 444.711 190 444.882 190.16C445.053 190.32 445.261 190.448 445.506 190.544C445.751 190.629 446.114 190.741 446.594 190.88C447.234 191.051 447.757 191.227 448.162 191.408C448.578 191.579 448.935 191.835 449.234 192.176C449.533 192.517 449.687 192.971 449.698 193.536C449.698 194.037 449.559 194.485 449.282 194.88C449.005 195.275 448.61 195.584 448.098 195.808C447.597 196.032 447.005 196.144 446.322 196.144ZM452.597 186.016C452.266 186.016 451.989 185.904 451.765 185.68C451.541 185.456 451.429 185.179 451.429 184.848C451.429 184.517 451.541 184.24 451.765 184.016C451.989 183.792 452.266 183.68 452.597 183.68C452.917 183.68 453.189 183.792 453.413 184.016C453.637 184.24 453.749 184.517 453.749 184.848C453.749 185.179 453.637 185.456 453.413 185.68C453.189 185.904 452.917 186.016 452.597 186.016ZM453.493 187.184V196H451.669V187.184H453.493ZM455.28 191.584C455.28 190.677 455.461 189.883 455.824 189.2C456.197 188.507 456.709 187.973 457.36 187.6C458.01 187.227 458.757 187.04 459.6 187.04C460.666 187.04 461.546 187.296 462.24 187.808C462.944 188.309 463.418 189.029 463.664 189.968H461.696C461.536 189.531 461.28 189.189 460.928 188.944C460.576 188.699 460.133 188.576 459.6 188.576C458.853 188.576 458.256 188.843 457.808 189.376C457.37 189.899 457.152 190.635 457.152 191.584C457.152 192.533 457.37 193.275 457.808 193.808C458.256 194.341 458.853 194.608 459.6 194.608C460.656 194.608 461.354 194.144 461.696 193.216H463.664C463.408 194.112 462.928 194.827 462.224 195.36C461.52 195.883 460.645 196.144 459.6 196.144C458.757 196.144 458.01 195.957 457.36 195.584C456.709 195.2 456.197 194.667 455.824 193.984C455.461 193.291 455.28 192.491 455.28 191.584ZM471.462 194.528H475.222V196H469.638V184.88H471.462V194.528ZM477.675 186.016C477.344 186.016 477.067 185.904 476.843 185.68C476.619 185.456 476.507 185.179 476.507 184.848C476.507 184.517 476.619 184.24 476.843 184.016C477.067 183.792 477.344 183.68 477.675 183.68C477.995 183.68 478.267 183.792 478.491 184.016C478.715 184.24 478.827 184.517 478.827 184.848C478.827 185.179 478.715 185.456 478.491 185.68C478.267 185.904 477.995 186.016 477.675 186.016ZM478.571 187.184V196H476.747V187.184H478.571ZM484.166 196.144C483.472 196.144 482.848 196.021 482.294 195.776C481.75 195.52 481.318 195.179 480.998 194.752C480.678 194.315 480.507 193.829 480.486 193.296H482.374C482.406 193.669 482.582 193.984 482.902 194.24C483.232 194.485 483.643 194.608 484.134 194.608C484.646 194.608 485.04 194.512 485.318 194.32C485.606 194.117 485.75 193.861 485.75 193.552C485.75 193.221 485.59 192.976 485.27 192.816C484.96 192.656 484.464 192.48 483.782 192.288C483.12 192.107 482.582 191.931 482.166 191.76C481.75 191.589 481.387 191.328 481.078 190.976C480.779 190.624 480.63 190.16 480.63 189.584C480.63 189.115 480.768 188.688 481.046 188.304C481.323 187.909 481.718 187.6 482.23 187.376C482.752 187.152 483.35 187.04 484.022 187.04C485.024 187.04 485.83 187.296 486.438 187.808C487.056 188.309 487.387 188.997 487.43 189.872H485.606C485.574 189.477 485.414 189.163 485.126 188.928C484.838 188.693 484.448 188.576 483.958 188.576C483.478 188.576 483.11 188.667 482.854 188.848C482.598 189.029 482.47 189.269 482.47 189.568C482.47 189.803 482.555 190 482.726 190.16C482.896 190.32 483.104 190.448 483.35 190.544C483.595 190.629 483.958 190.741 484.438 190.88C485.078 191.051 485.6 191.227 486.006 191.408C486.422 191.579 486.779 191.835 487.078 192.176C487.376 192.517 487.531 192.971 487.542 193.536C487.542 194.037 487.403 194.485 487.126 194.88C486.848 195.275 486.454 195.584 485.942 195.808C485.44 196.032 484.848 196.144 484.166 196.144ZM491.641 188.672V193.552C491.641 193.883 491.715 194.123 491.865 194.272C492.025 194.411 492.291 194.48 492.665 194.48H493.785V196H492.345C491.523 196 490.894 195.808 490.457 195.424C490.019 195.04 489.801 194.416 489.801 193.552V188.672H488.761V187.184H489.801V184.992H491.641V187.184H493.785V188.672H491.641ZM507.398 188.192C507.398 188.757 507.265 189.291 506.998 189.792C506.731 190.293 506.305 190.704 505.718 191.024C505.131 191.333 504.379 191.488 503.462 191.488H501.446V196H499.622V184.88H503.462C504.315 184.88 505.035 185.029 505.622 185.328C506.219 185.616 506.662 186.011 506.95 186.512C507.249 187.013 507.398 187.573 507.398 188.192ZM503.462 190C504.155 190 504.673 189.845 505.014 189.536C505.355 189.216 505.526 188.768 505.526 188.192C505.526 186.976 504.838 186.368 503.462 186.368H501.446V190H503.462ZM510.962 184.16V196H509.138V184.16H510.962ZM512.748 191.552C512.748 190.667 512.93 189.883 513.292 189.2C513.666 188.517 514.167 187.989 514.796 187.616C515.436 187.232 516.14 187.04 516.908 187.04C517.602 187.04 518.204 187.179 518.716 187.456C519.239 187.723 519.655 188.059 519.964 188.464V187.184H521.804V196H519.964V194.688C519.655 195.104 519.234 195.451 518.7 195.728C518.167 196.005 517.559 196.144 516.876 196.144C516.119 196.144 515.426 195.952 514.796 195.568C514.167 195.173 513.666 194.629 513.292 193.936C512.93 193.232 512.748 192.437 512.748 191.552ZM519.964 191.584C519.964 190.976 519.836 190.448 519.58 190C519.335 189.552 519.01 189.211 518.604 188.976C518.199 188.741 517.762 188.624 517.292 188.624C516.823 188.624 516.386 188.741 515.98 188.976C515.575 189.2 515.244 189.536 514.988 189.984C514.743 190.421 514.62 190.944 514.62 191.552C514.62 192.16 514.743 192.693 514.988 193.152C515.244 193.611 515.575 193.963 515.98 194.208C516.396 194.443 516.834 194.56 517.292 194.56C517.762 194.56 518.199 194.443 518.604 194.208C519.01 193.973 519.335 193.632 519.58 193.184C519.836 192.725 519.964 192.192 519.964 191.584ZM523.592 191.584C523.592 190.677 523.773 189.883 524.136 189.2C524.509 188.507 525.021 187.973 525.672 187.6C526.323 187.227 527.069 187.04 527.912 187.04C528.979 187.04 529.859 187.296 530.552 187.808C531.256 188.309 531.731 189.029 531.976 189.968H530.008C529.848 189.531 529.592 189.189 529.24 188.944C528.888 188.699 528.445 188.576 527.912 188.576C527.165 188.576 526.568 188.843 526.12 189.376C525.683 189.899 525.464 190.635 525.464 191.584C525.464 192.533 525.683 193.275 526.12 193.808C526.568 194.341 527.165 194.608 527.912 194.608C528.968 194.608 529.667 194.144 530.008 193.216H531.976C531.72 194.112 531.24 194.827 530.536 195.36C529.832 195.883 528.957 196.144 527.912 196.144C527.069 196.144 526.323 195.957 525.672 195.584C525.021 195.2 524.509 194.667 524.136 193.984C523.773 193.291 523.592 192.491 523.592 191.584ZM541.874 191.376C541.874 191.707 541.852 192.005 541.81 192.272H535.074C535.127 192.976 535.388 193.541 535.858 193.968C536.327 194.395 536.903 194.608 537.586 194.608C538.567 194.608 539.26 194.197 539.666 193.376H541.634C541.367 194.187 540.882 194.853 540.178 195.376C539.484 195.888 538.62 196.144 537.586 196.144C536.743 196.144 535.986 195.957 535.314 195.584C534.652 195.2 534.13 194.667 533.746 193.984C533.372 193.291 533.186 192.491 533.186 191.584C533.186 190.677 533.367 189.883 533.73 189.2C534.103 188.507 534.62 187.973 535.282 187.6C535.954 187.227 536.722 187.04 537.586 187.04C538.418 187.04 539.159 187.221 539.81 187.584C540.46 187.947 540.967 188.459 541.33 189.12C541.692 189.771 541.874 190.523 541.874 191.376ZM539.97 190.8C539.959 190.128 539.719 189.589 539.25 189.184C538.78 188.779 538.199 188.576 537.506 188.576C536.876 188.576 536.338 188.779 535.89 189.184C535.442 189.579 535.175 190.117 535.09 190.8H539.97ZM554.341 187.04C555.034 187.04 555.653 187.184 556.197 187.472C556.751 187.76 557.183 188.187 557.493 188.752C557.813 189.317 557.973 190 557.973 190.8V196H556.165V191.072C556.165 190.283 555.967 189.68 555.573 189.264C555.178 188.837 554.639 188.624 553.957 188.624C553.274 188.624 552.73 188.837 552.325 189.264C551.93 189.68 551.733 190.283 551.733 191.072V196H549.925V191.072C549.925 190.283 549.727 189.68 549.333 189.264C548.938 188.837 548.399 188.624 547.717 188.624C547.034 188.624 546.49 188.837 546.085 189.264C545.69 189.68 545.493 190.283 545.493 191.072V196H543.669V187.184H545.493V188.192C545.791 187.829 546.17 187.547 546.629 187.344C547.087 187.141 547.578 187.04 548.101 187.04C548.805 187.04 549.434 187.189 549.989 187.488C550.543 187.787 550.97 188.219 551.269 188.784C551.535 188.251 551.951 187.829 552.517 187.52C553.082 187.2 553.69 187.04 554.341 187.04ZM568.374 191.376C568.374 191.707 568.352 192.005 568.31 192.272H561.574C561.627 192.976 561.888 193.541 562.358 193.968C562.827 194.395 563.403 194.608 564.086 194.608C565.067 194.608 565.76 194.197 566.166 193.376H568.134C567.867 194.187 567.382 194.853 566.678 195.376C565.984 195.888 565.12 196.144 564.086 196.144C563.243 196.144 562.486 195.957 561.814 195.584C561.152 195.2 560.63 194.667 560.246 193.984C559.872 193.291 559.686 192.491 559.686 191.584C559.686 190.677 559.867 189.883 560.23 189.2C560.603 188.507 561.12 187.973 561.782 187.6C562.454 187.227 563.222 187.04 564.086 187.04C564.918 187.04 565.659 187.221 566.31 187.584C566.96 187.947 567.467 188.459 567.83 189.12C568.192 189.771 568.374 190.523 568.374 191.376ZM566.47 190.8C566.459 190.128 566.219 189.589 565.75 189.184C565.28 188.779 564.699 188.576 564.006 188.576C563.376 188.576 562.838 188.779 562.39 189.184C561.942 189.579 561.675 190.117 561.59 190.8H566.47ZM574.617 187.04C575.31 187.04 575.929 187.184 576.473 187.472C577.027 187.76 577.459 188.187 577.769 188.752C578.078 189.317 578.233 190 578.233 190.8V196H576.425V191.072C576.425 190.283 576.227 189.68 575.833 189.264C575.438 188.837 574.899 188.624 574.217 188.624C573.534 188.624 572.99 188.837 572.585 189.264C572.19 189.68 571.993 190.283 571.993 191.072V196H570.169V187.184H571.993V188.192C572.291 187.829 572.67 187.547 573.129 187.344C573.598 187.141 574.094 187.04 574.617 187.04ZM582.687 188.672V193.552C582.687 193.883 582.762 194.123 582.911 194.272C583.071 194.411 583.338 194.48 583.711 194.48H584.831V196H583.391C582.57 196 581.941 195.808 581.503 195.424C581.066 195.04 580.847 194.416 580.847 193.552V188.672H579.807V187.184H580.847V184.992H582.687V187.184H584.831V188.672H582.687Z" fill="#323445"/>
<circle cx="399" cy="190" r="10" fill="url(#paint1_linear_1_327)"/>
<g filter="url(#filter2_d_1_327)">
<path d="M402.434 186.709C402.828 186.322 403.461 186.327 403.848 186.72C404.206 187.083 404.23 187.651 403.922 188.041L403.838 188.134L398.249 193.638C397.882 193.999 397.307 194.019 396.918 193.703L396.825 193.617L394.353 191.035C393.971 190.636 393.985 190.003 394.384 189.621C394.752 189.268 395.32 189.253 395.705 189.567L395.798 189.652L397.568 191.501L402.434 186.709Z" fill="white"/>
</g>
</g>
<g clip-path="url(#clip2_1_327)">
<path d="M424.008 228.88V235.968C424.008 236.811 424.227 237.445 424.664 237.872C425.112 238.299 425.731 238.512 426.52 238.512C427.32 238.512 427.939 238.299 428.376 237.872C428.824 237.445 429.048 236.811 429.048 235.968V228.88H430.872V235.936C430.872 236.843 430.675 237.611 430.28 238.24C429.885 238.869 429.357 239.339 428.696 239.648C428.035 239.957 427.304 240.112 426.504 240.112C425.704 240.112 424.973 239.957 424.312 239.648C423.661 239.339 423.144 238.869 422.76 238.24C422.376 237.611 422.184 236.843 422.184 235.936V228.88H424.008ZM437.695 231.04C438.388 231.04 439.007 231.184 439.551 231.472C440.106 231.76 440.538 232.187 440.847 232.752C441.156 233.317 441.311 234 441.311 234.8V240H439.503V235.072C439.503 234.283 439.306 233.68 438.911 233.264C438.516 232.837 437.978 232.624 437.295 232.624C436.612 232.624 436.068 232.837 435.663 233.264C435.268 233.68 435.071 234.283 435.071 235.072V240H433.247V231.184H435.071V232.192C435.37 231.829 435.748 231.547 436.207 231.344C436.676 231.141 437.172 231.04 437.695 231.04ZM445.462 228.16V240H443.638V228.16H445.462ZM448.784 230.016C448.454 230.016 448.176 229.904 447.952 229.68C447.728 229.456 447.616 229.179 447.616 228.848C447.616 228.517 447.728 228.24 447.952 228.016C448.176 227.792 448.454 227.68 448.784 227.68C449.104 227.68 449.376 227.792 449.6 228.016C449.824 228.24 449.936 228.517 449.936 228.848C449.936 229.179 449.824 229.456 449.6 229.68C449.376 229.904 449.104 230.016 448.784 230.016ZM449.68 231.184V240H447.856V231.184H449.68ZM462.747 231.04C463.44 231.04 464.059 231.184 464.603 231.472C465.158 231.76 465.59 232.187 465.899 232.752C466.219 233.317 466.379 234 466.379 234.8V240H464.571V235.072C464.571 234.283 464.374 233.68 463.979 233.264C463.584 232.837 463.046 232.624 462.363 232.624C461.68 232.624 461.136 232.837 460.731 233.264C460.336 233.68 460.139 234.283 460.139 235.072V240H458.331V235.072C458.331 234.283 458.134 233.68 457.739 233.264C457.344 232.837 456.806 232.624 456.123 232.624C455.44 232.624 454.896 232.837 454.491 233.264C454.096 233.68 453.899 234.283 453.899 235.072V240H452.075V231.184H453.899V232.192C454.198 231.829 454.576 231.547 455.035 231.344C455.494 231.141 455.984 231.04 456.507 231.04C457.211 231.04 457.84 231.189 458.395 231.488C458.95 231.787 459.376 232.219 459.675 232.784C459.942 232.251 460.358 231.829 460.923 231.52C461.488 231.2 462.096 231.04 462.747 231.04ZM469.628 230.016C469.297 230.016 469.02 229.904 468.796 229.68C468.572 229.456 468.46 229.179 468.46 228.848C468.46 228.517 468.572 228.24 468.796 228.016C469.02 227.792 469.297 227.68 469.628 227.68C469.948 227.68 470.22 227.792 470.444 228.016C470.668 228.24 470.78 228.517 470.78 228.848C470.78 229.179 470.668 229.456 470.444 229.68C470.22 229.904 469.948 230.016 469.628 230.016ZM470.524 231.184V240H468.7V231.184H470.524ZM475.047 232.672V237.552C475.047 237.883 475.121 238.123 475.271 238.272C475.431 238.411 475.697 238.48 476.071 238.48H477.191V240H475.751C474.929 240 474.3 239.808 473.863 239.424C473.425 239.04 473.207 238.416 473.207 237.552V232.672H472.167V231.184H473.207V228.992H475.047V231.184H477.191V232.672H475.047ZM486.952 235.376C486.952 235.707 486.931 236.005 486.888 236.272H480.152C480.205 236.976 480.467 237.541 480.936 237.968C481.405 238.395 481.981 238.608 482.664 238.608C483.645 238.608 484.339 238.197 484.744 237.376H486.712C486.445 238.187 485.96 238.853 485.256 239.376C484.563 239.888 483.699 240.144 482.664 240.144C481.821 240.144 481.064 239.957 480.392 239.584C479.731 239.2 479.208 238.667 478.824 237.984C478.451 237.291 478.264 236.491 478.264 235.584C478.264 234.677 478.445 233.883 478.808 233.2C479.181 232.507 479.699 231.973 480.36 231.6C481.032 231.227 481.8 231.04 482.664 231.04C483.496 231.04 484.237 231.221 484.888 231.584C485.539 231.947 486.045 232.459 486.408 233.12C486.771 233.771 486.952 234.523 486.952 235.376ZM485.048 234.8C485.037 234.128 484.797 233.589 484.328 233.184C483.859 232.779 483.277 232.576 482.584 232.576C481.955 232.576 481.416 232.779 480.968 233.184C480.52 233.579 480.253 234.117 480.168 234.8H485.048ZM488.139 235.552C488.139 234.667 488.32 233.883 488.683 233.2C489.056 232.517 489.558 231.989 490.187 231.616C490.827 231.232 491.536 231.04 492.315 231.04C492.891 231.04 493.456 231.168 494.011 231.424C494.576 231.669 495.024 232 495.355 232.416V228.16H497.195V240H495.355V238.672C495.056 239.099 494.64 239.451 494.107 239.728C493.584 240.005 492.982 240.144 492.299 240.144C491.531 240.144 490.827 239.952 490.187 239.568C489.558 239.173 489.056 238.629 488.683 237.936C488.32 237.232 488.139 236.437 488.139 235.552ZM495.355 235.584C495.355 234.976 495.227 234.448 494.971 234C494.726 233.552 494.4 233.211 493.995 232.976C493.59 232.741 493.152 232.624 492.683 232.624C492.214 232.624 491.776 232.741 491.371 232.976C490.966 233.2 490.635 233.536 490.379 233.984C490.134 234.421 490.011 234.944 490.011 235.552C490.011 236.16 490.134 236.693 490.379 237.152C490.635 237.611 490.966 237.963 491.371 238.208C491.787 238.443 492.224 238.56 492.683 238.56C493.152 238.56 493.59 238.443 493.995 238.208C494.4 237.973 494.726 237.632 494.971 237.184C495.227 236.725 495.355 236.192 495.355 235.584ZM509.811 228.88V236.896C509.811 237.888 509.507 238.672 508.899 239.248C508.302 239.824 507.512 240.112 506.531 240.112C505.55 240.112 504.755 239.824 504.147 239.248C503.55 238.672 503.251 237.888 503.251 236.896H505.091C505.102 237.387 505.224 237.776 505.459 238.064C505.704 238.352 506.062 238.496 506.531 238.496C507 238.496 507.358 238.352 507.603 238.064C507.848 237.765 507.971 237.376 507.971 236.896V228.88H509.811ZM516.602 240.144C515.77 240.144 515.018 239.957 514.346 239.584C513.674 239.2 513.146 238.667 512.762 237.984C512.378 237.291 512.186 236.491 512.186 235.584C512.186 234.688 512.383 233.893 512.778 233.2C513.173 232.507 513.711 231.973 514.394 231.6C515.077 231.227 515.839 231.04 516.682 231.04C517.525 231.04 518.287 231.227 518.97 231.6C519.653 231.973 520.191 232.507 520.586 233.2C520.981 233.893 521.178 234.688 521.178 235.584C521.178 236.48 520.975 237.275 520.57 237.968C520.165 238.661 519.61 239.2 518.906 239.584C518.213 239.957 517.445 240.144 516.602 240.144ZM516.602 238.56C517.071 238.56 517.509 238.448 517.914 238.224C518.33 238 518.666 237.664 518.922 237.216C519.178 236.768 519.306 236.224 519.306 235.584C519.306 234.944 519.183 234.405 518.938 233.968C518.693 233.52 518.367 233.184 517.962 232.96C517.557 232.736 517.119 232.624 516.65 232.624C516.181 232.624 515.743 232.736 515.338 232.96C514.943 233.184 514.629 233.52 514.394 233.968C514.159 234.405 514.042 234.944 514.042 235.584C514.042 236.533 514.282 237.269 514.762 237.792C515.253 238.304 515.866 238.56 516.602 238.56ZM524.805 232.496C525.115 232.069 525.536 231.723 526.069 231.456C526.613 231.179 527.216 231.04 527.877 231.04C528.656 231.04 529.36 231.227 529.989 231.6C530.619 231.973 531.115 232.507 531.477 233.2C531.84 233.883 532.021 234.667 532.021 235.552C532.021 236.437 531.84 237.232 531.477 237.936C531.115 238.629 530.613 239.173 529.973 239.568C529.344 239.952 528.645 240.144 527.877 240.144C527.195 240.144 526.587 240.011 526.053 239.744C525.531 239.477 525.115 239.136 524.805 238.72V240H522.981V228.16H524.805V232.496ZM530.165 235.552C530.165 234.944 530.037 234.421 529.781 233.984C529.536 233.536 529.205 233.2 528.789 232.976C528.384 232.741 527.947 232.624 527.477 232.624C527.019 232.624 526.581 232.741 526.165 232.976C525.76 233.211 525.429 233.552 525.173 234C524.928 234.448 524.805 234.976 524.805 235.584C524.805 236.192 524.928 236.725 525.173 237.184C525.429 237.632 525.76 237.973 526.165 238.208C526.581 238.443 527.019 238.56 527.477 238.56C527.947 238.56 528.384 238.443 528.789 238.208C529.205 237.963 529.536 237.611 529.781 237.152C530.037 236.693 530.165 236.16 530.165 235.552ZM544.685 237.728H540.029L539.229 240H537.325L541.309 228.864H543.421L547.405 240H545.485L544.685 237.728ZM544.173 236.24L542.365 231.072L540.541 236.24H544.173ZM550.962 232.48C551.271 232.075 551.692 231.733 552.226 231.456C552.759 231.179 553.362 231.04 554.034 231.04C554.802 231.04 555.5 231.232 556.13 231.616C556.77 231.989 557.271 232.517 557.634 233.2C557.996 233.883 558.178 234.667 558.178 235.552C558.178 236.437 557.996 237.232 557.634 237.936C557.271 238.629 556.77 239.173 556.13 239.568C555.5 239.952 554.802 240.144 554.034 240.144C553.362 240.144 552.764 240.011 552.242 239.744C551.719 239.467 551.292 239.125 550.962 238.72V244.192H549.138V231.184H550.962V232.48ZM556.322 235.552C556.322 234.944 556.194 234.421 555.938 233.984C555.692 233.536 555.362 233.2 554.946 232.976C554.54 232.741 554.103 232.624 553.634 232.624C553.175 232.624 552.738 232.741 552.322 232.976C551.916 233.211 551.586 233.552 551.33 234C551.084 234.448 550.962 234.976 550.962 235.584C550.962 236.192 551.084 236.725 551.33 237.184C551.586 237.632 551.916 237.973 552.322 238.208C552.738 238.443 553.175 238.56 553.634 238.56C554.103 238.56 554.54 238.443 554.946 238.208C555.362 237.963 555.692 237.611 555.938 237.152C556.194 236.693 556.322 236.16 556.322 235.552ZM561.805 232.48C562.115 232.075 562.536 231.733 563.069 231.456C563.603 231.179 564.205 231.04 564.877 231.04C565.645 231.04 566.344 231.232 566.973 231.616C567.613 231.989 568.115 232.517 568.477 233.2C568.84 233.883 569.021 234.667 569.021 235.552C569.021 236.437 568.84 237.232 568.477 237.936C568.115 238.629 567.613 239.173 566.973 239.568C566.344 239.952 565.645 240.144 564.877 240.144C564.205 240.144 563.608 240.011 563.085 239.744C562.563 239.467 562.136 239.125 561.805 238.72V244.192H559.981V231.184H561.805V232.48ZM567.165 235.552C567.165 234.944 567.037 234.421 566.781 233.984C566.536 233.536 566.205 233.2 565.789 232.976C565.384 232.741 564.947 232.624 564.477 232.624C564.019 232.624 563.581 232.741 563.165 232.976C562.76 233.211 562.429 233.552 562.173 234C561.928 234.448 561.805 234.976 561.805 235.584C561.805 236.192 561.928 236.725 562.173 237.184C562.429 237.632 562.76 237.973 563.165 238.208C563.581 238.443 564.019 238.56 564.477 238.56C564.947 238.56 565.384 238.443 565.789 238.208C566.205 237.963 566.536 237.611 566.781 237.152C567.037 236.693 567.165 236.16 567.165 235.552ZM572.649 228.16V240H570.825V228.16H572.649ZM575.972 230.016C575.641 230.016 575.364 229.904 575.14 229.68C574.916 229.456 574.804 229.179 574.804 228.848C574.804 228.517 574.916 228.24 575.14 228.016C575.364 227.792 575.641 227.68 575.972 227.68C576.292 227.68 576.564 227.792 576.788 228.016C577.012 228.24 577.124 228.517 577.124 228.848C577.124 229.179 577.012 229.456 576.788 229.68C576.564 229.904 576.292 230.016 575.972 230.016ZM576.868 231.184V240H575.044V231.184H576.868ZM578.655 235.584C578.655 234.677 578.836 233.883 579.199 233.2C579.572 232.507 580.084 231.973 580.735 231.6C581.385 231.227 582.132 231.04 582.975 231.04C584.041 231.04 584.921 231.296 585.615 231.808C586.319 232.309 586.793 233.029 587.039 233.968H585.071C584.911 233.531 584.655 233.189 584.303 232.944C583.951 232.699 583.508 232.576 582.975 232.576C582.228 232.576 581.631 232.843 581.183 233.376C580.745 233.899 580.527 234.635 580.527 235.584C580.527 236.533 580.745 237.275 581.183 237.808C581.631 238.341 582.228 238.608 582.975 238.608C584.031 238.608 584.729 238.144 585.071 237.216H587.039C586.783 238.112 586.303 238.827 585.599 239.36C584.895 239.883 584.02 240.144 582.975 240.144C582.132 240.144 581.385 239.957 580.735 239.584C580.084 239.2 579.572 238.667 579.199 237.984C578.836 237.291 578.655 236.491 578.655 235.584ZM588.248 235.552C588.248 234.667 588.43 233.883 588.792 233.2C589.166 232.517 589.667 231.989 590.296 231.616C590.936 231.232 591.64 231.04 592.408 231.04C593.102 231.04 593.704 231.179 594.216 231.456C594.739 231.723 595.155 232.059 595.464 232.464V231.184H597.304V240H595.464V238.688C595.155 239.104 594.734 239.451 594.2 239.728C593.667 240.005 593.059 240.144 592.376 240.144C591.619 240.144 590.926 239.952 590.296 239.568C589.667 239.173 589.166 238.629 588.792 237.936C588.43 237.232 588.248 236.437 588.248 235.552ZM595.464 235.584C595.464 234.976 595.336 234.448 595.08 234C594.835 233.552 594.51 233.211 594.104 232.976C593.699 232.741 593.262 232.624 592.792 232.624C592.323 232.624 591.886 232.741 591.48 232.976C591.075 233.2 590.744 233.536 590.488 233.984C590.243 234.421 590.12 234.944 590.12 235.552C590.12 236.16 590.243 236.693 590.488 237.152C590.744 237.611 591.075 237.963 591.48 238.208C591.896 238.443 592.334 238.56 592.792 238.56C593.262 238.56 593.699 238.443 594.104 238.208C594.51 237.973 594.835 237.632 595.08 237.184C595.336 236.725 595.464 236.192 595.464 235.584ZM604.148 231.04C604.841 231.04 605.46 231.184 606.004 231.472C606.559 231.76 606.991 232.187 607.3 232.752C607.609 233.317 607.764 234 607.764 234.8V240H605.956V235.072C605.956 234.283 605.759 233.68 605.364 233.264C604.969 232.837 604.431 232.624 603.748 232.624C603.065 232.624 602.521 232.837 602.116 233.264C601.721 233.68 601.524 234.283 601.524 235.072V240H599.7V231.184H601.524V232.192C601.823 231.829 602.201 231.547 602.66 231.344C603.129 231.141 603.625 231.04 604.148 231.04ZM612.219 232.672V237.552C612.219 237.883 612.293 238.123 612.443 238.272C612.603 238.411 612.869 238.48 613.243 238.48H614.363V240H612.923C612.101 240 611.472 239.808 611.035 239.424C610.597 239.04 610.379 238.416 610.379 237.552V232.672H609.339V231.184H610.379V228.992H612.219V231.184H614.363V232.672H612.219ZM619.244 240.144C618.55 240.144 617.926 240.021 617.372 239.776C616.828 239.52 616.396 239.179 616.076 238.752C615.756 238.315 615.585 237.829 615.564 237.296H617.452C617.484 237.669 617.66 237.984 617.98 238.24C618.31 238.485 618.721 238.608 619.212 238.608C619.724 238.608 620.118 238.512 620.396 238.32C620.684 238.117 620.828 237.861 620.828 237.552C620.828 237.221 620.668 236.976 620.348 236.816C620.038 236.656 619.542 236.48 618.86 236.288C618.198 236.107 617.66 235.931 617.244 235.76C616.828 235.589 616.465 235.328 616.156 234.976C615.857 234.624 615.708 234.16 615.708 233.584C615.708 233.115 615.846 232.688 616.124 232.304C616.401 231.909 616.796 231.6 617.308 231.376C617.83 231.152 618.428 231.04 619.1 231.04C620.102 231.04 620.908 231.296 621.516 231.808C622.134 232.309 622.465 232.997 622.508 233.872H620.684C620.652 233.477 620.492 233.163 620.204 232.928C619.916 232.693 619.526 232.576 619.036 232.576C618.556 232.576 618.188 232.667 617.932 232.848C617.676 233.029 617.548 233.269 617.548 233.568C617.548 233.803 617.633 234 617.804 234.16C617.974 234.32 618.182 234.448 618.428 234.544C618.673 234.629 619.036 234.741 619.516 234.88C620.156 235.051 620.678 235.227 621.084 235.408C621.5 235.579 621.857 235.835 622.156 236.176C622.454 236.517 622.609 236.971 622.62 237.536C622.62 238.037 622.481 238.485 622.204 238.88C621.926 239.275 621.532 239.584 621.02 239.808C620.518 240.032 619.926 240.144 619.244 240.144Z" fill="#808191"/>
<circle cx="399" cy="234" r="10" fill="url(#paint2_linear_1_327)"/>
<g filter="url(#filter3_d_1_327)">
<path d="M402.291 229.295C402.682 228.904 403.315 228.905 403.706 229.295C404.066 229.655 404.095 230.223 403.79 230.615L403.707 230.709L400.415 234.001L403.707 237.293C404.097 237.684 404.096 238.317 403.706 238.707C403.345 239.067 402.778 239.095 402.386 238.79L402.291 238.707L399 235.415L395.709 238.707C395.319 239.097 394.686 239.097 394.295 238.707C393.935 238.347 393.907 237.779 394.212 237.387L394.295 237.293L397.586 234.001L394.295 230.709C393.905 230.318 393.905 229.685 394.295 229.295C394.656 228.934 395.223 228.907 395.616 229.212L395.709 229.295L399 232.586L402.291 229.295Z" fill="white"/>
</g>
</g>
<g clip-path="url(#clip3_1_327)">
<path d="M424.024 271.88V283H422.2V271.88H424.024ZM430.867 274.04C431.56 274.04 432.179 274.184 432.723 274.472C433.277 274.76 433.709 275.187 434.019 275.752C434.328 276.317 434.483 277 434.483 277.8V283H432.675V278.072C432.675 277.283 432.477 276.68 432.083 276.264C431.688 275.837 431.149 275.624 430.467 275.624C429.784 275.624 429.24 275.837 428.835 276.264C428.44 276.68 428.243 277.283 428.243 278.072V283H426.419V274.184H428.243V275.192C428.541 274.829 428.92 274.547 429.379 274.344C429.848 274.141 430.344 274.04 430.867 274.04ZM440.217 281.368L442.713 274.184H444.649L441.289 283H439.113L435.769 274.184H437.721L440.217 281.368ZM446.956 273.016C446.625 273.016 446.348 272.904 446.124 272.68C445.9 272.456 445.788 272.179 445.788 271.848C445.788 271.517 445.9 271.24 446.124 271.016C446.348 270.792 446.625 270.68 446.956 270.68C447.276 270.68 447.548 270.792 447.772 271.016C447.996 271.24 448.108 271.517 448.108 271.848C448.108 272.179 447.996 272.456 447.772 272.68C447.548 272.904 447.276 273.016 446.956 273.016ZM447.852 274.184V283H446.028V274.184H447.852ZM452.375 275.672V280.552C452.375 280.883 452.45 281.123 452.599 281.272C452.759 281.411 453.026 281.48 453.399 281.48H454.519V283H453.079C452.258 283 451.628 282.808 451.191 282.424C450.754 282.04 450.535 281.416 450.535 280.552V275.672H449.495V274.184H450.535V271.992H452.375V274.184H454.519V275.672H452.375ZM464.28 278.376C464.28 278.707 464.259 279.005 464.216 279.272H457.48C457.533 279.976 457.795 280.541 458.264 280.968C458.733 281.395 459.309 281.608 459.992 281.608C460.973 281.608 461.667 281.197 462.072 280.376H464.04C463.773 281.187 463.288 281.853 462.584 282.376C461.891 282.888 461.027 283.144 459.992 283.144C459.149 283.144 458.392 282.957 457.72 282.584C457.059 282.2 456.536 281.667 456.152 280.984C455.779 280.291 455.592 279.491 455.592 278.584C455.592 277.677 455.773 276.883 456.136 276.2C456.509 275.507 457.027 274.973 457.688 274.6C458.36 274.227 459.128 274.04 459.992 274.04C460.824 274.04 461.565 274.221 462.216 274.584C462.867 274.947 463.373 275.459 463.736 276.12C464.099 276.771 464.28 277.523 464.28 278.376ZM462.376 277.8C462.365 277.128 462.125 276.589 461.656 276.184C461.187 275.779 460.605 275.576 459.912 275.576C459.283 275.576 458.744 275.779 458.296 276.184C457.848 276.579 457.581 277.117 457.496 277.8H462.376ZM476.935 280.728H472.279L471.479 283H469.575L473.559 271.864H475.671L479.655 283H477.735L476.935 280.728ZM476.423 279.24L474.615 274.072L472.791 279.24H476.423ZM485.836 274.04C486.529 274.04 487.148 274.184 487.692 274.472C488.246 274.76 488.678 275.187 488.988 275.752C489.297 276.317 489.452 277 489.452 277.8V283H487.644V278.072C487.644 277.283 487.446 276.68 487.052 276.264C486.657 275.837 486.118 275.624 485.436 275.624C484.753 275.624 484.209 275.837 483.804 276.264C483.409 276.68 483.212 277.283 483.212 278.072V283H481.388V274.184H483.212V275.192C483.51 274.829 483.889 274.547 484.348 274.344C484.817 274.141 485.313 274.04 485.836 274.04ZM499.714 274.184L494.306 287.144H492.418L494.21 282.856L490.738 274.184H492.77L495.25 280.904L497.826 274.184H499.714ZM504.915 283.144C504.083 283.144 503.331 282.957 502.659 282.584C501.987 282.2 501.459 281.667 501.075 280.984C500.691 280.291 500.499 279.491 500.499 278.584C500.499 277.688 500.696 276.893 501.091 276.2C501.485 275.507 502.024 274.973 502.707 274.6C503.389 274.227 504.152 274.04 504.995 274.04C505.837 274.04 506.6 274.227 507.283 274.6C507.965 274.973 508.504 275.507 508.899 276.2C509.293 276.893 509.491 277.688 509.491 278.584C509.491 279.48 509.288 280.275 508.883 280.968C508.477 281.661 507.923 282.2 507.219 282.584C506.525 282.957 505.757 283.144 504.915 283.144ZM504.915 281.56C505.384 281.56 505.821 281.448 506.227 281.224C506.643 281 506.979 280.664 507.235 280.216C507.491 279.768 507.619 279.224 507.619 278.584C507.619 277.944 507.496 277.405 507.251 276.968C507.005 276.52 506.68 276.184 506.275 275.96C505.869 275.736 505.432 275.624 504.963 275.624C504.493 275.624 504.056 275.736 503.651 275.96C503.256 276.184 502.941 276.52 502.707 276.968C502.472 277.405 502.355 277.944 502.355 278.584C502.355 279.533 502.595 280.269 503.075 280.792C503.565 281.304 504.179 281.56 504.915 281.56ZM515.742 274.04C516.435 274.04 517.054 274.184 517.598 274.472C518.152 274.76 518.584 275.187 518.894 275.752C519.203 276.317 519.358 277 519.358 277.8V283H517.55V278.072C517.55 277.283 517.352 276.68 516.958 276.264C516.563 275.837 516.024 275.624 515.342 275.624C514.659 275.624 514.115 275.837 513.71 276.264C513.315 276.68 513.118 277.283 513.118 278.072V283H511.294V274.184H513.118V275.192C513.416 274.829 513.795 274.547 514.254 274.344C514.723 274.141 515.219 274.04 515.742 274.04ZM529.764 278.376C529.764 278.707 529.743 279.005 529.7 279.272H522.964C523.018 279.976 523.279 280.541 523.748 280.968C524.218 281.395 524.794 281.608 525.476 281.608C526.458 281.608 527.151 281.197 527.556 280.376H529.524C529.258 281.187 528.772 281.853 528.068 282.376C527.375 282.888 526.511 283.144 525.476 283.144C524.634 283.144 523.876 282.957 523.204 282.584C522.543 282.2 522.02 281.667 521.636 280.984C521.263 280.291 521.076 279.491 521.076 278.584C521.076 277.677 521.258 276.883 521.62 276.2C521.994 275.507 522.511 274.973 523.172 274.6C523.844 274.227 524.612 274.04 525.476 274.04C526.308 274.04 527.05 274.221 527.7 274.584C528.351 274.947 528.858 275.459 529.22 276.12C529.583 276.771 529.764 277.523 529.764 278.376ZM527.86 277.8C527.85 277.128 527.61 276.589 527.14 276.184C526.671 275.779 526.09 275.576 525.396 275.576C524.767 275.576 524.228 275.779 523.78 276.184C523.332 276.579 523.066 277.117 522.98 277.8H527.86ZM537.844 275.672V280.552C537.844 280.883 537.918 281.123 538.068 281.272C538.228 281.411 538.494 281.48 538.868 281.48H539.988V283H538.548C537.726 283 537.097 282.808 536.66 282.424C536.222 282.04 536.004 281.416 536.004 280.552V275.672H534.964V274.184H536.004V271.992H537.844V274.184H539.988V275.672H537.844ZM545.493 283.144C544.661 283.144 543.909 282.957 543.237 282.584C542.565 282.2 542.037 281.667 541.653 280.984C541.269 280.291 541.077 279.491 541.077 278.584C541.077 277.688 541.274 276.893 541.669 276.2C542.063 275.507 542.602 274.973 543.285 274.6C543.967 274.227 544.73 274.04 545.573 274.04C546.415 274.04 547.178 274.227 547.861 274.6C548.543 274.973 549.082 275.507 549.477 276.2C549.871 276.893 550.069 277.688 550.069 278.584C550.069 279.48 549.866 280.275 549.461 280.968C549.055 281.661 548.501 282.2 547.797 282.584C547.103 282.957 546.335 283.144 545.493 283.144ZM545.493 281.56C545.962 281.56 546.399 281.448 546.805 281.224C547.221 281 547.557 280.664 547.813 280.216C548.069 279.768 548.197 279.224 548.197 278.584C548.197 277.944 548.074 277.405 547.829 276.968C547.583 276.52 547.258 276.184 546.853 275.96C546.447 275.736 546.01 275.624 545.541 275.624C545.071 275.624 544.634 275.736 544.229 275.96C543.834 276.184 543.519 276.52 543.285 276.968C543.05 277.405 542.933 277.944 542.933 278.584C542.933 279.533 543.173 280.269 543.653 280.792C544.143 281.304 544.757 281.56 545.493 281.56ZM562.732 280.728H558.076L557.276 283H555.372L559.356 271.864H561.468L565.452 283H563.532L562.732 280.728ZM562.22 279.24L560.412 274.072L558.588 279.24H562.22ZM569.008 275.48C569.318 275.075 569.739 274.733 570.272 274.456C570.806 274.179 571.408 274.04 572.08 274.04C572.848 274.04 573.547 274.232 574.176 274.616C574.816 274.989 575.318 275.517 575.68 276.2C576.043 276.883 576.224 277.667 576.224 278.552C576.224 279.437 576.043 280.232 575.68 280.936C575.318 281.629 574.816 282.173 574.176 282.568C573.547 282.952 572.848 283.144 572.08 283.144C571.408 283.144 570.811 283.011 570.288 282.744C569.766 282.467 569.339 282.125 569.008 281.72V287.192H567.184V274.184H569.008V275.48ZM574.368 278.552C574.368 277.944 574.24 277.421 573.984 276.984C573.739 276.536 573.408 276.2 572.992 275.976C572.587 275.741 572.15 275.624 571.68 275.624C571.222 275.624 570.784 275.741 570.368 275.976C569.963 276.211 569.632 276.552 569.376 277C569.131 277.448 569.008 277.976 569.008 278.584C569.008 279.192 569.131 279.725 569.376 280.184C569.632 280.632 569.963 280.973 570.368 281.208C570.784 281.443 571.222 281.56 571.68 281.56C572.15 281.56 572.587 281.443 572.992 281.208C573.408 280.963 573.739 280.611 573.984 280.152C574.24 279.693 574.368 279.16 574.368 278.552ZM579.852 275.48C580.161 275.075 580.583 274.733 581.116 274.456C581.649 274.179 582.252 274.04 582.924 274.04C583.692 274.04 584.391 274.232 585.02 274.616C585.66 274.989 586.161 275.517 586.524 276.2C586.887 276.883 587.068 277.667 587.068 278.552C587.068 279.437 586.887 280.232 586.524 280.936C586.161 281.629 585.66 282.173 585.02 282.568C584.391 282.952 583.692 283.144 582.924 283.144C582.252 283.144 581.655 283.011 581.132 282.744C580.609 282.467 580.183 282.125 579.852 281.72V287.192H578.028V274.184H579.852V275.48ZM585.212 278.552C585.212 277.944 585.084 277.421 584.828 276.984C584.583 276.536 584.252 276.2 583.836 275.976C583.431 275.741 582.993 275.624 582.524 275.624C582.065 275.624 581.628 275.741 581.212 275.976C580.807 276.211 580.476 276.552 580.22 277C579.975 277.448 579.852 277.976 579.852 278.584C579.852 279.192 579.975 279.725 580.22 280.184C580.476 280.632 580.807 280.973 581.212 281.208C581.628 281.443 582.065 281.56 582.524 281.56C582.993 281.56 583.431 281.443 583.836 281.208C584.252 280.963 584.583 280.611 584.828 280.152C585.084 279.693 585.212 279.16 585.212 278.552ZM590.696 271.16V283H588.872V271.16H590.696ZM601.027 274.184L595.619 287.144H593.731L595.523 282.856L592.051 274.184H594.083L596.563 280.904L599.139 274.184H601.027ZM608.687 275.672V280.552C608.687 280.883 608.762 281.123 608.911 281.272C609.071 281.411 609.338 281.48 609.711 281.48H610.831V283H609.391C608.57 283 607.941 282.808 607.503 282.424C607.066 282.04 606.847 281.416 606.847 280.552V275.672H605.807V274.184H606.847V271.992H608.687V274.184H610.831V275.672H608.687ZM616.337 283.144C615.505 283.144 614.753 282.957 614.081 282.584C613.409 282.2 612.881 281.667 612.497 280.984C612.113 280.291 611.921 279.491 611.921 278.584C611.921 277.688 612.118 276.893 612.513 276.2C612.907 275.507 613.446 274.973 614.129 274.6C614.811 274.227 615.574 274.04 616.417 274.04C617.259 274.04 618.022 274.227 618.705 274.6C619.387 274.973 619.926 275.507 620.321 276.2C620.715 276.893 620.913 277.688 620.913 278.584C620.913 279.48 620.71 280.275 620.305 280.968C619.899 281.661 619.345 282.2 618.641 282.584C617.947 282.957 617.179 283.144 616.337 283.144ZM616.337 281.56C616.806 281.56 617.243 281.448 617.649 281.224C618.065 281 618.401 280.664 618.657 280.216C618.913 279.768 619.041 279.224 619.041 278.584C619.041 277.944 618.918 277.405 618.673 276.968C618.427 276.52 618.102 276.184 617.697 275.96C617.291 275.736 616.854 275.624 616.385 275.624C615.915 275.624 615.478 275.736 615.073 275.96C614.678 276.184 614.363 276.52 614.129 276.968C613.894 277.405 613.777 277.944 613.777 278.584C613.777 279.533 614.017 280.269 614.497 280.792C614.987 281.304 615.601 281.56 616.337 281.56ZM430.44 295.88L426.76 302.968V307H424.936V302.968L421.24 295.88H423.272L425.848 301.336L428.424 295.88H430.44ZM435.712 307.144C434.88 307.144 434.128 306.957 433.456 306.584C432.784 306.2 432.256 305.667 431.872 304.984C431.488 304.291 431.296 303.491 431.296 302.584C431.296 301.688 431.493 300.893 431.888 300.2C432.282 299.507 432.821 298.973 433.504 298.6C434.186 298.227 434.949 298.04 435.792 298.04C436.634 298.04 437.397 298.227 438.08 298.6C438.762 298.973 439.301 299.507 439.696 300.2C440.09 300.893 440.288 301.688 440.288 302.584C440.288 303.48 440.085 304.275 439.68 304.968C439.274 305.661 438.72 306.2 438.016 306.584C437.322 306.957 436.554 307.144 435.712 307.144ZM435.712 305.56C436.181 305.56 436.618 305.448 437.024 305.224C437.44 305 437.776 304.664 438.032 304.216C438.288 303.768 438.416 303.224 438.416 302.584C438.416 301.944 438.293 301.405 438.048 300.968C437.802 300.52 437.477 300.184 437.072 299.96C436.666 299.736 436.229 299.624 435.76 299.624C435.29 299.624 434.853 299.736 434.448 299.96C434.053 300.184 433.738 300.52 433.504 300.968C433.269 301.405 433.152 301.944 433.152 302.584C433.152 303.533 433.392 304.269 433.872 304.792C434.362 305.304 434.976 305.56 435.712 305.56ZM450.075 298.184V307H448.251V305.96C447.963 306.323 447.584 306.611 447.115 306.824C446.656 307.027 446.165 307.128 445.643 307.128C444.949 307.128 444.325 306.984 443.771 306.696C443.227 306.408 442.795 305.981 442.475 305.416C442.165 304.851 442.011 304.168 442.011 303.368V298.184H443.819V303.096C443.819 303.885 444.016 304.493 444.411 304.92C444.805 305.336 445.344 305.544 446.027 305.544C446.709 305.544 447.248 305.336 447.643 304.92C448.048 304.493 448.251 303.885 448.251 303.096V298.184H450.075ZM454.305 299.464C454.572 299.016 454.924 298.669 455.361 298.424C455.809 298.168 456.337 298.04 456.945 298.04V299.928H456.481C455.767 299.928 455.223 300.109 454.849 300.472C454.487 300.835 454.305 301.464 454.305 302.36V307H452.481V298.184H454.305V299.464ZM468.842 295.88V303.896C468.842 304.888 468.538 305.672 467.93 306.248C467.333 306.824 466.543 307.112 465.562 307.112C464.581 307.112 463.786 306.824 463.178 306.248C462.581 305.672 462.282 304.888 462.282 303.896H464.122C464.133 304.387 464.255 304.776 464.49 305.064C464.735 305.352 465.093 305.496 465.562 305.496C466.031 305.496 466.389 305.352 466.634 305.064C466.879 304.765 467.002 304.376 467.002 303.896V295.88H468.842ZM475.633 307.144C474.801 307.144 474.049 306.957 473.377 306.584C472.705 306.2 472.177 305.667 471.793 304.984C471.409 304.291 471.217 303.491 471.217 302.584C471.217 301.688 471.415 300.893 471.809 300.2C472.204 299.507 472.743 298.973 473.425 298.6C474.108 298.227 474.871 298.04 475.713 298.04C476.556 298.04 477.319 298.227 478.001 298.6C478.684 298.973 479.223 299.507 479.617 300.2C480.012 300.893 480.209 301.688 480.209 302.584C480.209 303.48 480.007 304.275 479.601 304.968C479.196 305.661 478.641 306.2 477.937 306.584C477.244 306.957 476.476 307.144 475.633 307.144ZM475.633 305.56C476.103 305.56 476.54 305.448 476.945 305.224C477.361 305 477.697 304.664 477.953 304.216C478.209 303.768 478.337 303.224 478.337 302.584C478.337 301.944 478.215 301.405 477.969 300.968C477.724 300.52 477.399 300.184 476.993 299.96C476.588 299.736 476.151 299.624 475.681 299.624C475.212 299.624 474.775 299.736 474.369 299.96C473.975 300.184 473.66 300.52 473.425 300.968C473.191 301.405 473.073 301.944 473.073 302.584C473.073 303.533 473.313 304.269 473.793 304.792C474.284 305.304 474.897 305.56 475.633 305.56ZM483.837 299.496C484.146 299.069 484.567 298.723 485.101 298.456C485.645 298.179 486.247 298.04 486.909 298.04C487.687 298.04 488.391 298.227 489.021 298.6C489.65 298.973 490.146 299.507 490.509 300.2C490.871 300.883 491.053 301.667 491.053 302.552C491.053 303.437 490.871 304.232 490.509 304.936C490.146 305.629 489.645 306.173 489.005 306.568C488.375 306.952 487.677 307.144 486.909 307.144C486.226 307.144 485.618 307.011 485.085 306.744C484.562 306.477 484.146 306.136 483.837 305.72V307H482.013V295.16H483.837V299.496ZM489.197 302.552C489.197 301.944 489.069 301.421 488.812 300.984C488.567 300.536 488.237 300.2 487.821 299.976C487.415 299.741 486.978 299.624 486.509 299.624C486.05 299.624 485.613 299.741 485.197 299.976C484.791 300.211 484.461 300.552 484.205 301C483.959 301.448 483.837 301.976 483.837 302.584C483.837 303.192 483.959 303.725 484.205 304.184C484.461 304.632 484.791 304.973 485.197 305.208C485.613 305.443 486.05 305.56 486.509 305.56C486.978 305.56 487.415 305.443 487.821 305.208C488.237 304.963 488.567 304.611 488.812 304.152C489.069 303.693 489.197 303.16 489.197 302.552ZM496.056 307.144C495.363 307.144 494.739 307.021 494.184 306.776C493.64 306.52 493.208 306.179 492.888 305.752C492.568 305.315 492.398 304.829 492.376 304.296H494.264C494.296 304.669 494.472 304.984 494.792 305.24C495.123 305.485 495.534 305.608 496.024 305.608C496.536 305.608 496.931 305.512 497.208 305.32C497.496 305.117 497.64 304.861 497.64 304.552C497.64 304.221 497.48 303.976 497.16 303.816C496.851 303.656 496.355 303.48 495.672 303.288C495.011 303.107 494.472 302.931 494.056 302.76C493.64 302.589 493.278 302.328 492.968 301.976C492.67 301.624 492.52 301.16 492.52 300.584C492.52 300.115 492.659 299.688 492.936 299.304C493.214 298.909 493.608 298.6 494.12 298.376C494.643 298.152 495.24 298.04 495.912 298.04C496.915 298.04 497.72 298.296 498.328 298.808C498.947 299.309 499.278 299.997 499.32 300.872H497.496C497.464 300.477 497.304 300.163 497.016 299.928C496.728 299.693 496.339 299.576 495.848 299.576C495.368 299.576 495 299.667 494.744 299.848C494.488 300.029 494.36 300.269 494.36 300.568C494.36 300.803 494.446 301 494.616 301.16C494.787 301.32 494.995 301.448 495.24 301.544C495.486 301.629 495.848 301.741 496.328 301.88C496.968 302.051 497.491 302.227 497.896 302.408C498.312 302.579 498.67 302.835 498.968 303.176C499.267 303.517 499.422 303.971 499.432 304.536C499.432 305.037 499.294 305.485 499.016 305.88C498.739 306.275 498.344 306.584 497.832 306.808C497.331 307.032 496.739 307.144 496.056 307.144Z" fill="#808191"/>
<circle cx="399" cy="278" r="10" fill="url(#paint3_linear_1_327)"/>
<g filter="url(#filter4_d_1_327)">
<path d="M402.291 273.295C402.682 272.904 403.315 272.905 403.706 273.295C404.066 273.655 404.095 274.223 403.79 274.615L403.707 274.709L400.415 278.001L403.707 281.293C404.097 281.684 404.096 282.317 403.706 282.707C403.345 283.067 402.778 283.095 402.386 282.79L402.291 282.707L399 279.415L395.709 282.707C395.319 283.097 394.686 283.097 394.295 282.707C393.935 282.347 393.907 281.779 394.212 281.387L394.295 281.293L397.586 278.001L394.295 274.709C393.905 274.318 393.905 273.685 394.295 273.295C394.656 272.934 395.223 272.907 395.616 273.212L395.709 273.295L399 276.586L402.291 273.295Z" fill="white"/>
</g>
</g>
<rect x="198" y="340" width="434" height="70" rx="23" stroke="url(#paint4_linear_1_327)" stroke-width="2"/>
<path d="M368.1 372.24C367.78 371.653 367.34 371.207 366.78 370.9C366.22 370.593 365.567 370.44 364.82 370.44C363.993 370.44 363.26 370.627 362.62 371C361.98 371.373 361.48 371.907 361.12 372.6C360.76 373.293 360.58 374.093 360.58 375C360.58 375.933 360.76 376.747 361.12 377.44C361.493 378.133 362.007 378.667 362.66 379.04C363.313 379.413 364.073 379.6 364.94 379.6C366.007 379.6 366.88 379.32 367.56 378.76C368.24 378.187 368.687 377.393 368.9 376.38H364.1V374.24H371.66V376.68C371.473 377.653 371.073 378.553 370.46 379.38C369.847 380.207 369.053 380.873 368.08 381.38C367.12 381.873 366.04 382.12 364.84 382.12C363.493 382.12 362.273 381.82 361.18 381.22C360.1 380.607 359.247 379.76 358.62 378.68C358.007 377.6 357.7 376.373 357.7 375C357.7 373.627 358.007 372.4 358.62 371.32C359.247 370.227 360.1 369.38 361.18 368.78C362.273 368.167 363.487 367.86 364.82 367.86C366.393 367.86 367.76 368.247 368.92 369.02C370.08 369.78 370.88 370.853 371.32 372.24H368.1ZM384.032 376.22C384.032 376.62 384.005 376.98 383.952 377.3H375.852C375.918 378.1 376.198 378.727 376.692 379.18C377.185 379.633 377.792 379.86 378.512 379.86C379.552 379.86 380.292 379.413 380.732 378.52H383.752C383.432 379.587 382.818 380.467 381.912 381.16C381.005 381.84 379.892 382.18 378.572 382.18C377.505 382.18 376.545 381.947 375.692 381.48C374.852 381 374.192 380.327 373.712 379.46C373.245 378.593 373.012 377.593 373.012 376.46C373.012 375.313 373.245 374.307 373.712 373.44C374.178 372.573 374.832 371.907 375.672 371.44C376.512 370.973 377.478 370.74 378.572 370.74C379.625 370.74 380.565 370.967 381.392 371.42C382.232 371.873 382.878 372.52 383.332 373.36C383.798 374.187 384.032 375.14 384.032 376.22ZM381.132 375.42C381.118 374.7 380.858 374.127 380.352 373.7C379.845 373.26 379.225 373.04 378.492 373.04C377.798 373.04 377.212 373.253 376.732 373.68C376.265 374.093 375.978 374.673 375.872 375.42H381.132ZM389.335 373.22V378.58C389.335 378.953 389.422 379.227 389.595 379.4C389.782 379.56 390.089 379.64 390.515 379.64H391.815V382H390.055C387.695 382 386.515 380.853 386.515 378.56V373.22H385.195V370.92H386.515V368.18H389.335V370.92H391.815V373.22H389.335ZM403.415 382.14C402.442 382.14 401.562 381.973 400.775 381.64C400.002 381.307 399.388 380.827 398.935 380.2C398.482 379.573 398.248 378.833 398.235 377.98H401.235C401.275 378.553 401.475 379.007 401.835 379.34C402.208 379.673 402.715 379.84 403.355 379.84C404.008 379.84 404.522 379.687 404.895 379.38C405.268 379.06 405.455 378.647 405.455 378.14C405.455 377.727 405.328 377.387 405.075 377.12C404.822 376.853 404.502 376.647 404.115 376.5C403.742 376.34 403.222 376.167 402.555 375.98C401.648 375.713 400.908 375.453 400.335 375.2C399.775 374.933 399.288 374.54 398.875 374.02C398.475 373.487 398.275 372.78 398.275 371.9C398.275 371.073 398.482 370.353 398.895 369.74C399.308 369.127 399.888 368.66 400.635 368.34C401.382 368.007 402.235 367.84 403.195 367.84C404.635 367.84 405.802 368.193 406.695 368.9C407.602 369.593 408.102 370.567 408.195 371.82H405.115C405.088 371.34 404.882 370.947 404.495 370.64C404.122 370.32 403.622 370.16 402.995 370.16C402.448 370.16 402.008 370.3 401.675 370.58C401.355 370.86 401.195 371.267 401.195 371.8C401.195 372.173 401.315 372.487 401.555 372.74C401.808 372.98 402.115 373.18 402.475 373.34C402.848 373.487 403.368 373.66 404.035 373.86C404.942 374.127 405.682 374.393 406.255 374.66C406.828 374.927 407.322 375.327 407.735 375.86C408.148 376.393 408.355 377.093 408.355 377.96C408.355 378.707 408.162 379.4 407.775 380.04C407.388 380.68 406.822 381.193 406.075 381.58C405.328 381.953 404.442 382.14 403.415 382.14ZM414.042 373.22V378.58C414.042 378.953 414.129 379.227 414.302 379.4C414.489 379.56 414.796 379.64 415.222 379.64H416.522V382H414.762C412.402 382 411.222 380.853 411.222 378.56V373.22H409.902V370.92H411.222V368.18H414.042V370.92H416.522V373.22H414.042ZM417.816 376.42C417.816 375.3 418.036 374.307 418.476 373.44C418.93 372.573 419.536 371.907 420.296 371.44C421.07 370.973 421.93 370.74 422.876 370.74C423.703 370.74 424.423 370.907 425.036 371.24C425.663 371.573 426.163 371.993 426.536 372.5V370.92H429.356V382H426.536V380.38C426.176 380.9 425.676 381.333 425.036 381.68C424.41 382.013 423.683 382.18 422.856 382.18C421.923 382.18 421.07 381.94 420.296 381.46C419.536 380.98 418.93 380.307 418.476 379.44C418.036 378.56 417.816 377.553 417.816 376.42ZM426.536 376.46C426.536 375.78 426.403 375.2 426.136 374.72C425.87 374.227 425.51 373.853 425.056 373.6C424.603 373.333 424.116 373.2 423.596 373.2C423.076 373.2 422.596 373.327 422.156 373.58C421.716 373.833 421.356 374.207 421.076 374.7C420.81 375.18 420.676 375.753 420.676 376.42C420.676 377.087 420.81 377.673 421.076 378.18C421.356 378.673 421.716 379.053 422.156 379.32C422.61 379.587 423.09 379.72 423.596 379.72C424.116 379.72 424.603 379.593 425.056 379.34C425.51 379.073 425.87 378.7 426.136 378.22C426.403 377.727 426.536 377.14 426.536 376.46ZM434.891 372.64C435.251 372.053 435.718 371.593 436.291 371.26C436.878 370.927 437.544 370.76 438.291 370.76V373.7H437.551C436.671 373.7 436.004 373.907 435.551 374.32C435.111 374.733 434.891 375.453 434.891 376.48V382H432.091V370.92H434.891V372.64ZM443.437 373.22V378.58C443.437 378.953 443.524 379.227 443.697 379.4C443.884 379.56 444.19 379.64 444.617 379.64H445.917V382H444.157C441.797 382 440.617 380.853 440.617 378.56V373.22H439.297V370.92H440.617V368.18H443.437V370.92H445.917V373.22H443.437ZM458.231 376.22C458.231 376.62 458.204 376.98 458.151 377.3H450.051C450.117 378.1 450.397 378.727 450.891 379.18C451.384 379.633 451.991 379.86 452.711 379.86C453.751 379.86 454.491 379.413 454.931 378.52H457.951C457.631 379.587 457.017 380.467 456.111 381.16C455.204 381.84 454.091 382.18 452.771 382.18C451.704 382.18 450.744 381.947 449.891 381.48C449.051 381 448.391 380.327 447.911 379.46C447.444 378.593 447.211 377.593 447.211 376.46C447.211 375.313 447.444 374.307 447.911 373.44C448.377 372.573 449.031 371.907 449.871 371.44C450.711 370.973 451.677 370.74 452.771 370.74C453.824 370.74 454.764 370.967 455.591 371.42C456.431 371.873 457.077 372.52 457.531 373.36C457.997 374.187 458.231 375.14 458.231 376.22ZM455.331 375.42C455.317 374.7 455.057 374.127 454.551 373.7C454.044 373.26 453.424 373.04 452.691 373.04C451.997 373.04 451.411 373.253 450.931 373.68C450.464 374.093 450.177 374.673 450.071 375.42H455.331ZM459.555 376.42C459.555 375.3 459.775 374.307 460.215 373.44C460.668 372.573 461.281 371.907 462.055 371.44C462.828 370.973 463.688 370.74 464.635 370.74C465.355 370.74 466.041 370.9 466.695 371.22C467.348 371.527 467.868 371.94 468.255 372.46V367.2H471.095V382H468.255V380.36C467.908 380.907 467.421 381.347 466.795 381.68C466.168 382.013 465.441 382.18 464.615 382.18C463.681 382.18 462.828 381.94 462.055 381.46C461.281 380.98 460.668 380.307 460.215 379.44C459.775 378.56 459.555 377.553 459.555 376.42ZM468.275 376.46C468.275 375.78 468.141 375.2 467.875 374.72C467.608 374.227 467.248 373.853 466.795 373.6C466.341 373.333 465.855 373.2 465.335 373.2C464.815 373.2 464.335 373.327 463.895 373.58C463.455 373.833 463.095 374.207 462.815 374.7C462.548 375.18 462.415 375.753 462.415 376.42C462.415 377.087 462.548 377.673 462.815 378.18C463.095 378.673 463.455 379.053 463.895 379.32C464.348 379.587 464.828 379.72 465.335 379.72C465.855 379.72 466.341 379.593 466.795 379.34C467.248 379.073 467.608 378.7 467.875 378.22C468.141 377.727 468.275 377.14 468.275 376.46Z" fill="#1E3E85"/>
<rect x="197" y="132" width="160" height="180" rx="16" fill="#ECF2FF"/>
<path d="M258.297 195.664V199.28H248.985V205.008H256.121V208.56H248.985V218H244.505V195.664H258.297ZM265.954 203.024C266.53 202.085 267.276 201.349 268.194 200.816C269.132 200.283 270.199 200.016 271.394 200.016V204.72H270.21C268.802 204.72 267.735 205.051 267.01 205.712C266.306 206.373 265.954 207.525 265.954 209.168V218H261.474V200.272H265.954V203.024ZM290.891 208.752C290.891 209.392 290.848 209.968 290.763 210.48H277.803C277.91 211.76 278.358 212.763 279.147 213.488C279.936 214.213 280.907 214.576 282.059 214.576C283.723 214.576 284.907 213.861 285.611 212.432H290.443C289.931 214.139 288.95 215.547 287.499 216.656C286.048 217.744 284.267 218.288 282.155 218.288C280.448 218.288 278.912 217.915 277.547 217.168C276.203 216.4 275.147 215.323 274.379 213.936C273.632 212.549 273.259 210.949 273.259 209.136C273.259 207.301 273.632 205.691 274.379 204.304C275.126 202.917 276.171 201.851 277.515 201.104C278.859 200.357 280.406 199.984 282.155 199.984C283.84 199.984 285.344 200.347 286.667 201.072C288.011 201.797 289.046 202.832 289.771 204.176C290.518 205.499 290.891 207.024 290.891 208.752ZM286.251 207.472C286.23 206.32 285.814 205.403 285.003 204.72C284.192 204.016 283.2 203.664 282.027 203.664C280.918 203.664 279.979 204.005 279.211 204.688C278.464 205.349 278.006 206.277 277.835 207.472H286.251ZM310.641 208.752C310.641 209.392 310.598 209.968 310.513 210.48H297.553C297.66 211.76 298.108 212.763 298.897 213.488C299.686 214.213 300.657 214.576 301.809 214.576C303.473 214.576 304.657 213.861 305.361 212.432H310.193C309.681 214.139 308.7 215.547 307.249 216.656C305.798 217.744 304.017 218.288 301.905 218.288C300.198 218.288 298.662 217.915 297.297 217.168C295.953 216.4 294.897 215.323 294.129 213.936C293.382 212.549 293.009 210.949 293.009 209.136C293.009 207.301 293.382 205.691 294.129 204.304C294.876 202.917 295.921 201.851 297.265 201.104C298.609 200.357 300.156 199.984 301.905 199.984C303.59 199.984 305.094 200.347 306.417 201.072C307.761 201.797 308.796 202.832 309.521 204.176C310.268 205.499 310.641 207.024 310.641 208.752ZM306.001 207.472C305.98 206.32 305.564 205.403 304.753 204.72C303.942 204.016 302.95 203.664 301.777 203.664C300.668 203.664 299.729 204.005 298.961 204.688C298.214 205.349 297.756 206.277 297.585 207.472H306.001Z" fill="#52B4DA"/>
<path d="M260.389 242.86C261.136 242.993 261.769 243.387 262.289 244.04C262.809 244.693 263.069 245.433 263.069 246.26C263.069 246.967 262.883 247.607 262.509 248.18C262.149 248.74 261.623 249.187 260.929 249.52C260.236 249.84 259.429 250 258.509 250H252.949V236.1H258.249C259.196 236.1 260.009 236.26 260.689 236.58C261.369 236.9 261.883 237.333 262.229 237.88C262.576 238.413 262.749 239.013 262.749 239.68C262.749 240.48 262.536 241.147 262.109 241.68C261.683 242.213 261.109 242.607 260.389 242.86ZM255.229 241.94H258.049C258.796 241.94 259.376 241.773 259.789 241.44C260.216 241.093 260.429 240.6 260.429 239.96C260.429 239.333 260.216 238.847 259.789 238.5C259.376 238.14 258.796 237.96 258.049 237.96H255.229V241.94ZM258.309 248.14C259.083 248.14 259.689 247.953 260.129 247.58C260.569 247.207 260.789 246.687 260.789 246.02C260.789 245.34 260.556 244.8 260.089 244.4C259.623 244 259.003 243.8 258.229 243.8H255.229V248.14H258.309ZM264.787 244.44C264.787 243.333 265.014 242.353 265.467 241.5C265.934 240.647 266.56 239.987 267.347 239.52C268.147 239.04 269.027 238.8 269.987 238.8C270.854 238.8 271.607 238.973 272.247 239.32C272.9 239.653 273.42 240.073 273.807 240.58V238.98H276.107V250H273.807V248.36C273.42 248.88 272.894 249.313 272.227 249.66C271.56 250.007 270.8 250.18 269.947 250.18C269 250.18 268.134 249.94 267.347 249.46C266.56 248.967 265.934 248.287 265.467 247.42C265.014 246.54 264.787 245.547 264.787 244.44ZM273.807 244.48C273.807 243.72 273.647 243.06 273.327 242.5C273.02 241.94 272.614 241.513 272.107 241.22C271.6 240.927 271.054 240.78 270.467 240.78C269.88 240.78 269.334 240.927 268.827 241.22C268.32 241.5 267.907 241.92 267.587 242.48C267.28 243.027 267.127 243.68 267.127 244.44C267.127 245.2 267.28 245.867 267.587 246.44C267.907 247.013 268.32 247.453 268.827 247.76C269.347 248.053 269.894 248.2 270.467 248.2C271.054 248.2 271.6 248.053 272.107 247.76C272.614 247.467 273.02 247.04 273.327 246.48C273.647 245.907 273.807 245.24 273.807 244.48ZM283.102 250.18C282.235 250.18 281.455 250.027 280.762 249.72C280.082 249.4 279.542 248.973 279.142 248.44C278.742 247.893 278.528 247.287 278.502 246.62H280.862C280.902 247.087 281.122 247.48 281.522 247.8C281.935 248.107 282.448 248.26 283.062 248.26C283.702 248.26 284.195 248.14 284.542 247.9C284.902 247.647 285.082 247.327 285.082 246.94C285.082 246.527 284.882 246.22 284.482 246.02C284.095 245.82 283.475 245.6 282.622 245.36C281.795 245.133 281.122 244.913 280.602 244.7C280.082 244.487 279.628 244.16 279.242 243.72C278.868 243.28 278.682 242.7 278.682 241.98C278.682 241.393 278.855 240.86 279.202 240.38C279.548 239.887 280.042 239.5 280.682 239.22C281.335 238.94 282.082 238.8 282.922 238.8C284.175 238.8 285.182 239.12 285.942 239.76C286.715 240.387 287.128 241.247 287.182 242.34H284.902C284.862 241.847 284.662 241.453 284.302 241.16C283.942 240.867 283.455 240.72 282.842 240.72C282.242 240.72 281.782 240.833 281.462 241.06C281.142 241.287 280.982 241.587 280.982 241.96C280.982 242.253 281.088 242.5 281.302 242.7C281.515 242.9 281.775 243.06 282.082 243.18C282.388 243.287 282.842 243.427 283.442 243.6C284.242 243.813 284.895 244.033 285.402 244.26C285.922 244.473 286.368 244.793 286.742 245.22C287.115 245.647 287.308 246.213 287.322 246.92C287.322 247.547 287.148 248.107 286.802 248.6C286.455 249.093 285.962 249.48 285.322 249.76C284.695 250.04 283.955 250.18 283.102 250.18ZM290.945 237.52C290.532 237.52 290.185 237.38 289.905 237.1C289.625 236.82 289.485 236.473 289.485 236.06C289.485 235.647 289.625 235.3 289.905 235.02C290.185 234.74 290.532 234.6 290.945 234.6C291.345 234.6 291.685 234.74 291.965 235.02C292.245 235.3 292.385 235.647 292.385 236.06C292.385 236.473 292.245 236.82 291.965 237.1C291.685 237.38 291.345 237.52 290.945 237.52ZM292.065 238.98V250H289.785V238.98H292.065ZM294.299 244.48C294.299 243.347 294.525 242.353 294.979 241.5C295.445 240.633 296.085 239.967 296.899 239.5C297.712 239.033 298.645 238.8 299.699 238.8C301.032 238.8 302.132 239.12 302.999 239.76C303.879 240.387 304.472 241.287 304.779 242.46H302.319C302.119 241.913 301.799 241.487 301.359 241.18C300.919 240.873 300.365 240.72 299.699 240.72C298.765 240.72 298.019 241.053 297.459 241.72C296.912 242.373 296.639 243.293 296.639 244.48C296.639 245.667 296.912 246.593 297.459 247.26C298.019 247.927 298.765 248.26 299.699 248.26C301.019 248.26 301.892 247.68 302.319 246.52H304.779C304.459 247.64 303.859 248.533 302.979 249.2C302.099 249.853 301.005 250.18 299.699 250.18C298.645 250.18 297.712 249.947 296.899 249.48C296.085 249 295.445 248.333 294.979 247.48C294.525 246.613 294.299 245.613 294.299 244.48Z" fill="#11142D" fill-opacity="0.39554"/>
<defs>
<filter id="filter0_d_1_327" x="0" y="0" width="800" height="643" filterUnits="userSpaceOnUse" color-interpolation-filters="sRGB">
<feFlood flood-opacity="0" result="BackgroundImageFix"/>
<feColorMatrix in="SourceAlpha" type="matrix" values="0 0 0 0 0 0 0 0 0 0 0 0 0 0 0 0 0 0 127 0" result="hardAlpha"/>
<feOffset dx="-15" dy="50"/>
<feGaussianBlur stdDeviation="75"/>
<feColorMatrix type="matrix" values="0 0 0 0 0.191202 0 0 0 0 0.347754 0 0 0 0 0.829152 0 0 0 0.12 0"/>
<feBlend mode="normal" in2="BackgroundImageFix" result="effect1_dropShadow_1_327"/>
<feBlend mode="normal" in="SourceGraphic" in2="effect1_dropShadow_1_327" result="shape"/>
</filter>
<filter id="filter1_d_1_327" x="392.075" y="142.422" width="14.0608" height="11.5039" filterUnits="userSpaceOnUse" color-interpolation-filters="sRGB">
<feFlood flood-opacity="0" result="BackgroundImageFix"/>
<feColorMatrix in="SourceAlpha" type="matrix" values="0 0 0 0 0 0 0 0 0 0 0 0 0 0 0 0 0 0 127 0" result="hardAlpha"/>
<feOffset dy="2"/>
<feGaussianBlur stdDeviation="1"/>
<feColorMatrix type="matrix" values="0 0 0 0 0 0 0 0 0 0 0 0 0 0 0 0 0 0 0.230622 0"/>
<feBlend mode="normal" in2="BackgroundImageFix" result="effect1_dropShadow_1_327"/>
<feBlend mode="normal" in="SourceGraphic" in2="effect1_dropShadow_1_327" result="shape"/>
</filter>
<filter id="filter2_d_1_327" x="392.075" y="186.422" width="14.0608" height="11.5039" filterUnits="userSpaceOnUse" color-interpolation-filters="sRGB">
<feFlood flood-opacity="0" result="BackgroundImageFix"/>
<feColorMatrix in="SourceAlpha" type="matrix" values="0 0 0 0 0 0 0 0 0 0 0 0 0 0 0 0 0 0 127 0" result="hardAlpha"/>
<feOffset dy="2"/>
<feGaussianBlur stdDeviation="1"/>
<feColorMatrix type="matrix" values="0 0 0 0 0 0 0 0 0 0 0 0 0 0 0 0 0 0 0.230622 0"/>
<feBlend mode="normal" in2="BackgroundImageFix" result="effect1_dropShadow_1_327"/>
<feBlend mode="normal" in="SourceGraphic" in2="effect1_dropShadow_1_327" result="shape"/>
</filter>
<filter id="filter3_d_1_327" x="392.003" y="229.002" width="13.9964" height="13.998" filterUnits="userSpaceOnUse" color-interpolation-filters="sRGB">
<feFlood flood-opacity="0" result="BackgroundImageFix"/>
<feColorMatrix in="SourceAlpha" type="matrix" values="0 0 0 0 0 0 0 0 0 0 0 0 0 0 0 0 0 0 127 0" result="hardAlpha"/>
<feOffset dy="2"/>
<feGaussianBlur stdDeviation="1"/>
<feColorMatrix type="matrix" values="0 0 0 0 0 0 0 0 0 0 0 0 0 0 0 0 0 0 0.230622 0"/>
<feBlend mode="normal" in2="BackgroundImageFix" result="effect1_dropShadow_1_327"/>
<feBlend mode="normal" in="SourceGraphic" in2="effect1_dropShadow_1_327" result="shape"/>
</filter>
<filter id="filter4_d_1_327" x="392.003" y="273.002" width="13.9964" height="13.998" filterUnits="userSpaceOnUse" color-interpolation-filters="sRGB">
<feFlood flood-opacity="0" result="BackgroundImageFix"/>
<feColorMatrix in="SourceAlpha" type="matrix" values="0 0 0 0 0 0 0 0 0 0 0 0 0 0 0 0 0 0 127 0" result="hardAlpha"/>
<feOffset dy="2"/>
<feGaussianBlur stdDeviation="1"/>
<feColorMatrix type="matrix" values="0 0 0 0 0 0 0 0 0 0 0 0 0 0 0 0 0 0 0.230622 0"/>
<feBlend mode="normal" in2="BackgroundImageFix" result="effect1_dropShadow_1_327"/>
<feBlend mode="normal" in="SourceGraphic" in2="effect1_dropShadow_1_327" result="shape"/>
</filter>
<linearGradient id="paint0_linear_1_327" x1="379.738" y1="148.438" x2="400.668" y2="167.658" gradientUnits="userSpaceOnUse">
<stop stop-color="#52B4DA"/>
<stop offset="0.999763" stop-color="#1E3E85"/>
</linearGradient>
<linearGradient id="paint1_linear_1_327" x1="379.738" y1="192.438" x2="400.668" y2="211.658" gradientUnits="userSpaceOnUse">
<stop stop-color="#52B4DA"/>
<stop offset="0.999763" stop-color="#1E3E85"/>
</linearGradient>
<linearGradient id="paint2_linear_1_327" x1="379.738" y1="236.438" x2="400.668" y2="255.658" gradientUnits="userSpaceOnUse">
<stop stop-color="#A2A3B8"/>
<stop offset="0.999763" stop-color="#808191"/>
</linearGradient>
<linearGradient id="paint3_linear_1_327" x1="379.738" y1="280.438" x2="400.668" y2="299.658" gradientUnits="userSpaceOnUse">
<stop stop-color="#A2A3B8"/>
<stop offset="0.999763" stop-color="#808191"/>
</linearGradient>
<linearGradient id="paint4_linear_1_327" x1="-4.92096" y1="383.778" x2="21.4276" y2="530.288" gradientUnits="userSpaceOnUse">
<stop stop-color="#52B4DA"/>
<stop offset="1" stop-color="#1E3E85"/>
</linearGradient>
<clipPath id="clip0_1_327">
<rect width="256" height="24" fill="white" transform="translate(389 134)"/>
</clipPath>
<clipPath id="clip1_1_327">
<rect width="256" height="24" fill="white" transform="translate(389 178)"/>
</clipPath>
<clipPath id="clip2_1_327">
<rect width="256" height="24" fill="white" transform="translate(389 222)"/>
</clipPath>
<clipPath id="clip3_1_327">
<rect width="256" height="46" fill="white" transform="translate(389 266)"/>
</clipPath>
</defs>
</svg>
