<svg width="390" height="339" viewBox="0 0 390 339" fill="none" xmlns="http://www.w3.org/2000/svg">
<g clip-path="url(#clip0_1_289)">
<path d="M10.952 18.872H6.504L5.768 21H3.416L7.432 9.816H10.04L14.056 21H11.688L10.952 18.872ZM10.344 17.08L8.728 12.408L7.112 17.08H10.344ZM18.7971 13.512C19.0851 13.0427 19.4585 12.6747 19.9171 12.408C20.3865 12.1413 20.9198 12.008 21.5171 12.008V14.36H20.9251C20.2211 14.36 19.6878 14.5253 19.3251 14.856C18.9731 15.1867 18.7971 15.7627 18.7971 16.584V21H16.5571V12.136H18.7971V13.512ZM32.2659 16.376C32.2659 16.696 32.2445 16.984 32.2019 17.24H25.7219C25.7752 17.88 25.9992 18.3813 26.3939 18.744C26.7885 19.1067 27.2739 19.288 27.8499 19.288C28.6819 19.288 29.2739 18.9307 29.6259 18.216H32.0419C31.7859 19.0693 31.2952 19.7733 30.5699 20.328C29.8445 20.872 28.9539 21.144 27.8979 21.144C27.0445 21.144 26.2765 20.9573 25.5939 20.584C24.9219 20.2 24.3939 19.6613 24.0099 18.968C23.6365 18.2747 23.4499 17.4747 23.4499 16.568C23.4499 15.6507 23.6365 14.8453 24.0099 14.152C24.3832 13.4587 24.9059 12.9253 25.5779 12.552C26.2499 12.1787 27.0232 11.992 27.8979 11.992C28.7405 11.992 29.4925 12.1733 30.1539 12.536C30.8259 12.8987 31.3432 13.416 31.7059 14.088C32.0792 14.7493 32.2659 15.512 32.2659 16.376ZM29.9459 15.736C29.9352 15.16 29.7272 14.7013 29.3219 14.36C28.9165 14.008 28.4205 13.832 27.8339 13.832C27.2792 13.832 26.8099 14.0027 26.4259 14.344C26.0525 14.6747 25.8232 15.1387 25.7379 15.736H29.9459ZM48.1934 12.136L42.7054 25.192H40.3214L42.2414 20.776L38.6894 12.136H41.2014L43.4894 18.328L45.8094 12.136H48.1934ZM54.3369 21.144C53.4835 21.144 52.7155 20.9573 52.0329 20.584C51.3502 20.2 50.8115 19.6613 50.4169 18.968C50.0329 18.2747 49.8409 17.4747 49.8409 16.568C49.8409 15.6613 50.0382 14.8613 50.4329 14.168C50.8382 13.4747 51.3875 12.9413 52.0809 12.568C52.7742 12.184 53.5475 11.992 54.4009 11.992C55.2542 11.992 56.0275 12.184 56.7209 12.568C57.4142 12.9413 57.9582 13.4747 58.3529 14.168C58.7582 14.8613 58.9609 15.6613 58.9609 16.568C58.9609 17.4747 58.7529 18.2747 58.3369 18.968C57.9315 19.6613 57.3769 20.2 56.6729 20.584C55.9795 20.9573 55.2009 21.144 54.3369 21.144ZM54.3369 19.192C54.7422 19.192 55.1209 19.096 55.4729 18.904C55.8355 18.7013 56.1235 18.4027 56.3369 18.008C56.5502 17.6133 56.6569 17.1333 56.6569 16.568C56.6569 15.7253 56.4329 15.08 55.9849 14.632C55.5475 14.1733 55.0089 13.944 54.3689 13.944C53.7289 13.944 53.1902 14.1733 52.7529 14.632C52.3262 15.08 52.1129 15.7253 52.1129 16.568C52.1129 17.4107 52.3209 18.0613 52.7369 18.52C53.1635 18.968 53.6969 19.192 54.3369 19.192ZM69.972 12.136V21H67.716V19.88C67.428 20.264 67.0493 20.568 66.58 20.792C66.1213 21.0053 65.62 21.112 65.076 21.112C64.3827 21.112 63.7693 20.968 63.236 20.68C62.7027 20.3813 62.2813 19.9493 61.972 19.384C61.6733 18.808 61.524 18.1253 61.524 17.336V12.136H63.764V17.016C63.764 17.72 63.94 18.264 64.292 18.648C64.644 19.0213 65.124 19.208 65.732 19.208C66.3507 19.208 66.836 19.0213 67.188 18.648C67.54 18.264 67.716 17.72 67.716 17.016V12.136H69.972ZM80.2346 13.512C80.5226 13.0427 80.896 12.6747 81.3546 12.408C81.824 12.1413 82.3573 12.008 82.9546 12.008V14.36H82.3626C81.6586 14.36 81.1253 14.5253 80.7626 14.856C80.4106 15.1867 80.2346 15.7627 80.2346 16.584V21H77.9946V12.136H80.2346V13.512ZM93.7034 16.376C93.7034 16.696 93.682 16.984 93.6394 17.24H87.1594C87.2127 17.88 87.4367 18.3813 87.8314 18.744C88.226 19.1067 88.7114 19.288 89.2874 19.288C90.1194 19.288 90.7114 18.9307 91.0634 18.216H93.4794C93.2234 19.0693 92.7327 19.7733 92.0074 20.328C91.282 20.872 90.3914 21.144 89.3354 21.144C88.482 21.144 87.714 20.9573 87.0314 20.584C86.3594 20.2 85.8314 19.6613 85.4474 18.968C85.074 18.2747 84.8874 17.4747 84.8874 16.568C84.8874 15.6507 85.074 14.8453 85.4474 14.152C85.8207 13.4587 86.3434 12.9253 87.0154 12.552C87.6874 12.1787 88.4607 11.992 89.3354 11.992C90.178 11.992 90.93 12.1733 91.5914 12.536C92.2634 12.8987 92.7807 13.416 93.1434 14.088C93.5167 14.7493 93.7034 15.512 93.7034 16.376ZM91.3834 15.736C91.3727 15.16 91.1647 14.7013 90.7594 14.36C90.354 14.008 89.858 13.832 89.2714 13.832C88.7167 13.832 88.2474 14.0027 87.8634 14.344C87.49 14.6747 87.2607 15.1387 87.1754 15.736H91.3834ZM95.7624 16.536C95.7624 15.64 95.9384 14.8453 96.2904 14.152C96.653 13.4587 97.1384 12.9253 97.7464 12.552C98.365 12.1787 99.053 11.992 99.8104 11.992C100.472 11.992 101.048 12.1253 101.538 12.392C102.04 12.6587 102.44 12.9947 102.738 13.4V12.136H104.994V21H102.738V19.704C102.45 20.12 102.05 20.4667 101.538 20.744C101.037 21.0107 100.456 21.144 99.7944 21.144C99.0477 21.144 98.365 20.952 97.7464 20.568C97.1384 20.184 96.653 19.6453 96.2904 18.952C95.9384 18.248 95.7624 17.4427 95.7624 16.536ZM102.738 16.568C102.738 16.024 102.632 15.56 102.418 15.176C102.205 14.7813 101.917 14.4827 101.554 14.28C101.192 14.0667 100.802 13.96 100.386 13.96C99.9704 13.96 99.5864 14.0613 99.2344 14.264C98.8824 14.4667 98.5944 14.7653 98.3704 15.16C98.157 15.544 98.0504 16.0027 98.0504 16.536C98.0504 17.0693 98.157 17.5387 98.3704 17.944C98.5944 18.3387 98.8824 18.6427 99.2344 18.856C99.597 19.0693 99.981 19.176 100.386 19.176C100.802 19.176 101.192 19.0747 101.554 18.872C101.917 18.6587 102.205 18.36 102.418 17.976C102.632 17.5813 102.738 17.112 102.738 16.568ZM107.606 16.536C107.606 15.64 107.782 14.8453 108.134 14.152C108.497 13.4587 108.987 12.9253 109.606 12.552C110.225 12.1787 110.913 11.992 111.67 11.992C112.246 11.992 112.795 12.12 113.318 12.376C113.841 12.6213 114.257 12.952 114.566 13.368V9.16H116.838V21H114.566V19.688C114.289 20.1253 113.899 20.4773 113.398 20.744C112.897 21.0107 112.315 21.144 111.654 21.144C110.907 21.144 110.225 20.952 109.606 20.568C108.987 20.184 108.497 19.6453 108.134 18.952C107.782 18.248 107.606 17.4427 107.606 16.536ZM114.582 16.568C114.582 16.024 114.475 15.56 114.262 15.176C114.049 14.7813 113.761 14.4827 113.398 14.28C113.035 14.0667 112.646 13.96 112.23 13.96C111.814 13.96 111.43 14.0613 111.078 14.264C110.726 14.4667 110.438 14.7653 110.214 15.16C110.001 15.544 109.894 16.0027 109.894 16.536C109.894 17.0693 110.001 17.5387 110.214 17.944C110.438 18.3387 110.726 18.6427 111.078 18.856C111.441 19.0693 111.825 19.176 112.23 19.176C112.646 19.176 113.035 19.0747 113.398 18.872C113.761 18.6587 114.049 18.36 114.262 17.976C114.475 17.5813 114.582 17.112 114.582 16.568ZM128.506 12.136L123.018 25.192H120.634L122.554 20.776L119.002 12.136H121.514L123.802 18.328L126.122 12.136H128.506ZM133.833 9.448C134.943 9.448 135.833 9.752 136.505 10.36C137.188 10.9573 137.529 11.784 137.529 12.84C137.529 13.8853 137.193 14.6853 136.521 15.24C135.849 15.784 134.959 16.056 133.849 16.056L133.785 17.288H131.817L131.737 14.568H132.457C133.385 14.568 134.1 14.4453 134.601 14.2C135.103 13.9547 135.353 13.5067 135.353 12.856C135.353 12.3867 135.215 12.0133 134.937 11.736C134.671 11.4587 134.303 11.32 133.833 11.32C133.343 11.32 132.959 11.4533 132.681 11.72C132.415 11.9867 132.281 12.3547 132.281 12.824H130.169C130.159 12.1733 130.297 11.592 130.585 11.08C130.873 10.568 131.295 10.168 131.849 9.88C132.415 9.592 133.076 9.448 133.833 9.448ZM132.793 21.112C132.388 21.112 132.052 20.9893 131.785 20.744C131.529 20.488 131.401 20.1733 131.401 19.8C131.401 19.4267 131.529 19.1173 131.785 18.872C132.052 18.616 132.388 18.488 132.793 18.488C133.188 18.488 133.513 18.616 133.769 18.872C134.025 19.1173 134.153 19.4267 134.153 19.8C134.153 20.1733 134.025 20.488 133.769 20.744C133.513 20.9893 133.188 21.112 132.793 21.112Z" fill="#1E3E85"/>
<path d="M28.512 53.288V84H22.352V70.932H9.196V84H3.036V53.288H9.196V65.916H22.352V53.288H28.512ZM57.2351 71.284C57.2351 72.164 57.1764 72.956 57.0591 73.66H39.2391C39.3857 75.42 40.0017 76.7987 41.0871 77.796C42.1724 78.7933 43.5071 79.292 45.0911 79.292C47.3791 79.292 49.0071 78.3093 49.9751 76.344H56.6191C55.9151 78.6907 54.5657 80.6267 52.5711 82.152C50.5764 83.648 48.1271 84.396 45.2231 84.396C42.8764 84.396 40.7644 83.8827 38.8871 82.856C37.0391 81.8 35.5871 80.3187 34.5311 78.412C33.5044 76.5053 32.9911 74.3053 32.9911 71.812C32.9911 69.2893 33.5044 67.0747 34.5311 65.168C35.5577 63.2613 36.9951 61.7947 38.8431 60.768C40.6911 59.7413 42.8177 59.228 45.2231 59.228C47.5404 59.228 49.6084 59.7267 51.4271 60.724C53.2751 61.7213 54.6977 63.144 55.6951 64.992C56.7217 66.8107 57.2351 68.908 57.2351 71.284ZM50.8551 69.524C50.8257 67.94 50.2537 66.6787 49.1391 65.74C48.0244 64.772 46.6604 64.288 45.0471 64.288C43.5217 64.288 42.2311 64.7573 41.1751 65.696C40.1484 66.6053 39.5177 67.8813 39.2831 69.524H50.8551ZM67.8913 51.44V84H61.7313V51.44H67.8913ZM80.1374 63.144C80.9294 62.0293 82.0147 61.1053 83.3934 60.372C84.8014 59.6093 86.4001 59.228 88.1894 59.228C90.2721 59.228 92.1494 59.7413 93.8214 60.768C95.5227 61.7947 96.8574 63.2613 97.8254 65.168C98.8227 67.0453 99.3214 69.2307 99.3214 71.724C99.3214 74.2173 98.8227 76.432 97.8254 78.368C96.8574 80.2747 95.5227 81.756 93.8214 82.812C92.1494 83.868 90.2721 84.396 88.1894 84.396C86.4001 84.396 84.8161 84.0293 83.4374 83.296C82.0881 82.5627 80.9881 81.6387 80.1374 80.524V95.616H73.9774V59.624H80.1374V63.144ZM93.0294 71.724C93.0294 70.2573 92.7214 68.996 92.1054 67.94C91.5187 66.8547 90.7267 66.0333 89.7294 65.476C88.7614 64.9187 87.7054 64.64 86.5614 64.64C85.4467 64.64 84.3907 64.9333 83.3934 65.52C82.4254 66.0773 81.6334 66.8987 81.0174 67.984C80.4307 69.0693 80.1374 70.3453 80.1374 71.812C80.1374 73.2787 80.4307 74.5547 81.0174 75.64C81.6334 76.7253 82.4254 77.5613 83.3934 78.148C84.3907 78.7053 85.4467 78.984 86.5614 78.984C87.7054 78.984 88.7614 78.6907 89.7294 78.104C90.7267 77.5173 91.5187 76.6813 92.1054 75.596C92.7214 74.5107 93.0294 73.22 93.0294 71.724ZM117.406 56.72C116.321 56.72 115.411 56.3827 114.678 55.708C113.974 55.004 113.622 54.1387 113.622 53.112C113.622 52.0853 113.974 51.2347 114.678 50.56C115.411 49.856 116.321 49.504 117.406 49.504C118.491 49.504 119.386 49.856 120.09 50.56C120.823 51.2347 121.19 52.0853 121.19 53.112C121.19 54.1387 120.823 55.004 120.09 55.708C119.386 56.3827 118.491 56.72 117.406 56.72ZM120.442 59.624V84H114.282V59.624H120.442ZM135.856 84.396C133.862 84.396 132.072 84.044 130.488 83.34C128.904 82.6067 127.643 81.624 126.704 80.392C125.795 79.16 125.296 77.796 125.208 76.3H131.412C131.53 77.2387 131.984 78.016 132.776 78.632C133.598 79.248 134.61 79.556 135.812 79.556C136.986 79.556 137.895 79.3213 138.54 78.852C139.215 78.3827 139.552 77.7813 139.552 77.048C139.552 76.256 139.142 75.6693 138.32 75.288C137.528 74.8773 136.252 74.4373 134.492 73.968C132.674 73.528 131.178 73.0733 130.004 72.604C128.86 72.1347 127.863 71.416 127.012 70.448C126.191 69.48 125.78 68.1747 125.78 66.532C125.78 65.1827 126.162 63.9507 126.924 62.836C127.716 61.7213 128.831 60.8413 130.268 60.196C131.735 59.5507 133.451 59.228 135.416 59.228C138.32 59.228 140.638 59.9613 142.368 61.428C144.099 62.8653 145.052 64.816 145.228 67.28H139.332C139.244 66.312 138.834 65.5493 138.1 64.992C137.396 64.4053 136.443 64.112 135.24 64.112C134.126 64.112 133.26 64.3173 132.644 64.728C132.058 65.1387 131.764 65.7107 131.764 66.444C131.764 67.2653 132.175 67.896 132.996 68.336C133.818 68.7467 135.094 69.172 136.824 69.612C138.584 70.052 140.036 70.5067 141.18 70.976C142.324 71.4453 143.307 72.1787 144.128 73.176C144.979 74.144 145.419 75.4347 145.448 77.048C145.448 78.456 145.052 79.7173 144.26 80.832C143.498 81.9467 142.383 82.8267 140.916 83.472C139.479 84.088 137.792 84.396 135.856 84.396ZM171.813 84.396C169.466 84.396 167.354 83.8827 165.477 82.856C163.6 81.8 162.118 80.3187 161.033 78.412C159.977 76.5053 159.449 74.3053 159.449 71.812C159.449 69.3187 159.992 67.1187 161.077 65.212C162.192 63.3053 163.702 61.8387 165.609 60.812C167.516 59.756 169.642 59.228 171.989 59.228C174.336 59.228 176.462 59.756 178.369 60.812C180.276 61.8387 181.772 63.3053 182.857 65.212C183.972 67.1187 184.529 69.3187 184.529 71.812C184.529 74.3053 183.957 76.5053 182.813 78.412C181.698 80.3187 180.173 81.8 178.237 82.856C176.33 83.8827 174.189 84.396 171.813 84.396ZM171.813 79.028C172.928 79.028 173.969 78.764 174.937 78.236C175.934 77.6787 176.726 76.8573 177.313 75.772C177.9 74.6867 178.193 73.3667 178.193 71.812C178.193 69.4947 177.577 67.72 176.345 66.488C175.142 65.2267 173.661 64.596 171.901 64.596C170.141 64.596 168.66 65.2267 167.457 66.488C166.284 67.72 165.697 69.4947 165.697 71.812C165.697 74.1293 166.269 75.9187 167.413 77.18C168.586 78.412 170.053 79.028 171.813 79.028ZM202.556 59.272C205.46 59.272 207.806 60.196 209.596 62.044C211.385 63.8627 212.28 66.4147 212.28 69.7V84H206.12V70.536C206.12 68.6 205.636 67.1187 204.668 66.092C203.7 65.036 202.38 64.508 200.708 64.508C199.006 64.508 197.657 65.036 196.66 66.092C195.692 67.1187 195.208 68.6 195.208 70.536V84H189.048V59.624H195.208V62.66C196.029 61.604 197.07 60.7827 198.332 60.196C199.622 59.58 201.03 59.272 202.556 59.272ZM224.298 51.44V84H218.138V51.44H224.298ZM253.704 59.624L238.612 95.528H232.056L237.336 83.384L227.568 59.624H234.476L240.768 76.652L247.148 59.624H253.704ZM265.925 71.724C265.925 69.26 266.409 67.0747 267.377 65.168C268.374 63.2613 269.709 61.7947 271.381 60.768C273.082 59.7413 274.974 59.228 277.057 59.228C278.875 59.228 280.459 59.5947 281.809 60.328C283.187 61.0613 284.287 61.9853 285.109 63.1V59.624H291.313V84H285.109V80.436C284.317 81.58 283.217 82.5333 281.809 83.296C280.43 84.0293 278.831 84.396 277.013 84.396C274.959 84.396 273.082 83.868 271.381 82.812C269.709 81.756 268.374 80.2747 267.377 78.368C266.409 76.432 265.925 74.2173 265.925 71.724ZM285.109 71.812C285.109 70.316 284.815 69.04 284.229 67.984C283.642 66.8987 282.85 66.0773 281.853 65.52C280.855 64.9333 279.785 64.64 278.641 64.64C277.497 64.64 276.441 64.9187 275.473 65.476C274.505 66.0333 273.713 66.8547 273.097 67.94C272.51 68.996 272.217 70.2573 272.217 71.724C272.217 73.1907 272.51 74.4813 273.097 75.596C273.713 76.6813 274.505 77.5173 275.473 78.104C276.47 78.6907 277.526 78.984 278.641 78.984C279.785 78.984 280.855 78.7053 281.853 78.148C282.85 77.5613 283.642 76.74 284.229 75.684C284.815 74.5987 285.109 73.308 285.109 71.812ZM318.989 64.684H314.721V84H308.473V64.684H305.701V59.624H308.473V58.392C308.473 55.4 309.324 53.2 311.025 51.792C312.727 50.384 315.293 49.724 318.725 49.812V55.004C317.229 54.9747 316.188 55.224 315.601 55.752C315.015 56.28 314.721 57.2333 314.721 58.612V59.624H318.989V64.684ZM345.641 71.284C345.641 72.164 345.583 72.956 345.465 73.66H327.645C327.792 75.42 328.408 76.7987 329.493 77.796C330.579 78.7933 331.913 79.292 333.497 79.292C335.785 79.292 337.413 78.3093 338.381 76.344H345.025C344.321 78.6907 342.972 80.6267 340.977 82.152C338.983 83.648 336.533 84.396 333.629 84.396C331.283 84.396 329.171 83.8827 327.293 82.856C325.445 81.8 323.993 80.3187 322.937 78.412C321.911 76.5053 321.397 74.3053 321.397 71.812C321.397 69.2893 321.911 67.0747 322.937 65.168C323.964 63.2613 325.401 61.7947 327.249 60.768C329.097 59.7413 331.224 59.228 333.629 59.228C335.947 59.228 338.015 59.7267 339.833 60.724C341.681 61.7213 343.104 63.144 344.101 64.992C345.128 66.8107 345.641 68.908 345.641 71.284ZM339.261 69.524C339.232 67.94 338.66 66.6787 337.545 65.74C336.431 64.772 335.067 64.288 333.453 64.288C331.928 64.288 330.637 64.7573 329.581 65.696C328.555 66.6053 327.924 67.8813 327.689 69.524H339.261ZM383.93 59.624L376.802 84H370.158L365.714 66.972L361.27 84H354.582L347.41 59.624H353.658L357.97 78.192L362.634 59.624H369.146L373.722 78.148L378.034 59.624H383.93ZM1.452 128.812C1.452 126.289 1.96533 124.089 2.992 122.212C4.01867 120.305 5.44133 118.839 7.26 117.812C9.07867 116.756 11.1613 116.228 13.508 116.228C16.5293 116.228 19.0227 116.991 20.988 118.516C22.9827 120.012 24.3173 122.124 24.992 124.852H18.348C17.996 123.796 17.3947 122.975 16.544 122.388C15.7227 121.772 14.696 121.464 13.464 121.464C11.704 121.464 10.3107 122.109 9.284 123.4C8.25733 124.661 7.744 126.465 7.744 128.812C7.744 131.129 8.25733 132.933 9.284 134.224C10.3107 135.485 11.704 136.116 13.464 136.116C15.9573 136.116 17.5853 135.001 18.348 132.772H24.992C24.3173 135.412 22.9827 137.509 20.988 139.064C18.9933 140.619 16.5 141.396 13.508 141.396C11.1613 141.396 9.07867 140.883 7.26 139.856C5.44133 138.8 4.01867 137.333 2.992 135.456C1.96533 133.549 1.452 131.335 1.452 128.812ZM35.6648 108.44V141H29.5048V108.44H35.6648ZM44.8748 113.72C43.7895 113.72 42.8802 113.383 42.1468 112.708C41.4428 112.004 41.0908 111.139 41.0908 110.112C41.0908 109.085 41.4428 108.235 42.1468 107.56C42.8802 106.856 43.7895 106.504 44.8748 106.504C45.9602 106.504 46.8548 106.856 47.5588 107.56C48.2922 108.235 48.6588 109.085 48.6588 110.112C48.6588 111.139 48.2922 112.004 47.5588 112.708C46.8548 113.383 45.9602 113.72 44.8748 113.72ZM47.9108 116.624V141H41.7508V116.624H47.9108ZM52.4129 128.812C52.4129 126.289 52.9263 124.089 53.9529 122.212C54.9796 120.305 56.4023 118.839 58.2209 117.812C60.0396 116.756 62.1223 116.228 64.4689 116.228C67.4903 116.228 69.9836 116.991 71.9489 118.516C73.9436 120.012 75.2783 122.124 75.9529 124.852H69.3089C68.9569 123.796 68.3556 122.975 67.5049 122.388C66.6836 121.772 65.6569 121.464 64.4249 121.464C62.6649 121.464 61.2716 122.109 60.2449 123.4C59.2183 124.661 58.7049 126.465 58.7049 128.812C58.7049 131.129 59.2183 132.933 60.2449 134.224C61.2716 135.485 62.6649 136.116 64.4249 136.116C66.9183 136.116 68.5463 135.001 69.3089 132.772H75.9529C75.2783 135.412 73.9436 137.509 71.9489 139.064C69.9543 140.619 67.4609 141.396 64.4689 141.396C62.1223 141.396 60.0396 140.883 58.2209 139.856C56.4023 138.8 54.9796 137.333 53.9529 135.456C52.9263 133.549 52.4129 131.335 52.4129 128.812ZM94.8977 141L86.6257 130.616V141H80.4657V108.44H86.6257V126.964L94.8097 116.624H102.818L92.0817 128.856L102.906 141H94.8977ZM115.489 141.396C113.494 141.396 111.705 141.044 110.121 140.34C108.537 139.607 107.276 138.624 106.337 137.392C105.428 136.16 104.929 134.796 104.841 133.3H111.045C111.162 134.239 111.617 135.016 112.409 135.632C113.23 136.248 114.242 136.556 115.445 136.556C116.618 136.556 117.528 136.321 118.173 135.852C118.848 135.383 119.185 134.781 119.185 134.048C119.185 133.256 118.774 132.669 117.953 132.288C117.161 131.877 115.885 131.437 114.125 130.968C112.306 130.528 110.81 130.073 109.637 129.604C108.493 129.135 107.496 128.416 106.645 127.448C105.824 126.48 105.413 125.175 105.413 123.532C105.413 122.183 105.794 120.951 106.557 119.836C107.349 118.721 108.464 117.841 109.901 117.196C111.368 116.551 113.084 116.228 115.049 116.228C117.953 116.228 120.27 116.961 122.001 118.428C123.732 119.865 124.685 121.816 124.861 124.28H118.965C118.877 123.312 118.466 122.549 117.733 121.992C117.029 121.405 116.076 121.112 114.873 121.112C113.758 121.112 112.893 121.317 112.277 121.728C111.69 122.139 111.397 122.711 111.397 123.444C111.397 124.265 111.808 124.896 112.629 125.336C113.45 125.747 114.726 126.172 116.457 126.612C118.217 127.052 119.669 127.507 120.813 127.976C121.957 128.445 122.94 129.179 123.761 130.176C124.612 131.144 125.052 132.435 125.081 134.048C125.081 135.456 124.685 136.717 123.893 137.832C123.13 138.947 122.016 139.827 120.549 140.472C119.112 141.088 117.425 141.396 115.489 141.396ZM139.038 128.724C139.038 126.26 139.522 124.075 140.49 122.168C141.487 120.261 142.822 118.795 144.494 117.768C146.195 116.741 148.087 116.228 150.17 116.228C151.989 116.228 153.573 116.595 154.922 117.328C156.301 118.061 157.401 118.985 158.222 120.1V116.624H164.426V141H158.222V137.436C157.43 138.58 156.33 139.533 154.922 140.296C153.543 141.029 151.945 141.396 150.126 141.396C148.073 141.396 146.195 140.868 144.494 139.812C142.822 138.756 141.487 137.275 140.49 135.368C139.522 133.432 139.038 131.217 139.038 128.724ZM158.222 128.812C158.222 127.316 157.929 126.04 157.342 124.984C156.755 123.899 155.963 123.077 154.966 122.52C153.969 121.933 152.898 121.64 151.754 121.64C150.61 121.64 149.554 121.919 148.586 122.476C147.618 123.033 146.826 123.855 146.21 124.94C145.623 125.996 145.33 127.257 145.33 128.724C145.33 130.191 145.623 131.481 146.21 132.596C146.826 133.681 147.618 134.517 148.586 135.104C149.583 135.691 150.639 135.984 151.754 135.984C152.898 135.984 153.969 135.705 154.966 135.148C155.963 134.561 156.755 133.74 157.342 132.684C157.929 131.599 158.222 130.308 158.222 128.812ZM204.234 116.624L197.106 141H190.462L186.018 123.972L181.574 141H174.886L167.714 116.624H173.962L178.274 135.192L182.938 116.624H189.45L194.026 135.148L198.338 116.624H204.234ZM205.983 128.724C205.983 126.26 206.467 124.075 207.435 122.168C208.433 120.261 209.767 118.795 211.439 117.768C213.141 116.741 215.033 116.228 217.115 116.228C218.934 116.228 220.518 116.595 221.867 117.328C223.246 118.061 224.346 118.985 225.167 120.1V116.624H231.371V141H225.167V137.436C224.375 138.58 223.275 139.533 221.867 140.296C220.489 141.029 218.89 141.396 217.071 141.396C215.018 141.396 213.141 140.868 211.439 139.812C209.767 138.756 208.433 137.275 207.435 135.368C206.467 133.432 205.983 131.217 205.983 128.724ZM225.167 128.812C225.167 127.316 224.874 126.04 224.287 124.984C223.701 123.899 222.909 123.077 221.911 122.52C220.914 121.933 219.843 121.64 218.699 121.64C217.555 121.64 216.499 121.919 215.531 122.476C214.563 123.033 213.771 123.855 213.155 124.94C212.569 125.996 212.275 127.257 212.275 128.724C212.275 130.191 212.569 131.481 213.155 132.596C213.771 133.681 214.563 134.517 215.531 135.104C216.529 135.691 217.585 135.984 218.699 135.984C219.843 135.984 220.914 135.705 221.911 135.148C222.909 134.561 223.701 133.74 224.287 132.684C224.874 131.599 225.167 130.308 225.167 128.812ZM260.708 116.624L245.616 152.528H239.06L244.34 140.384L234.572 116.624H241.48L247.772 133.652L254.152 116.624H260.708ZM271.992 109.76L271.288 131.012H266.096L265.348 109.76H271.992ZM268.824 141.308C267.71 141.308 266.786 140.971 266.052 140.296C265.348 139.592 264.996 138.727 264.996 137.7C264.996 136.673 265.348 135.823 266.052 135.148C266.786 134.444 267.71 134.092 268.824 134.092C269.91 134.092 270.804 134.444 271.508 135.148C272.212 135.823 272.564 136.673 272.564 137.7C272.564 138.727 272.212 139.592 271.508 140.296C270.804 140.971 269.91 141.308 268.824 141.308Z" fill="#11142D"/>
<path d="M0.774 194.718C0.774 193.494 1.05 192.396 1.602 191.424C2.154 190.44 2.904 189.672 3.852 189.12C4.812 188.568 5.874 188.292 7.038 188.292C8.406 188.292 9.6 188.622 10.62 189.282C11.64 189.942 12.384 190.878 12.852 192.09H10.89C10.542 191.334 10.038 190.752 9.378 190.344C8.73 189.936 7.95 189.732 7.038 189.732C6.162 189.732 5.376 189.936 4.68 190.344C3.984 190.752 3.438 191.334 3.042 192.09C2.646 192.834 2.448 193.71 2.448 194.718C2.448 195.714 2.646 196.59 3.042 197.346C3.438 198.09 3.984 198.666 4.68 199.074C5.376 199.482 6.162 199.686 7.038 199.686C7.95 199.686 8.73 199.488 9.378 199.092C10.038 198.684 10.542 198.102 10.89 197.346H12.852C12.384 198.546 11.64 199.476 10.62 200.136C9.6 200.784 8.406 201.108 7.038 201.108C5.874 201.108 4.812 200.838 3.852 200.298C2.904 199.746 2.154 198.984 1.602 198.012C1.05 197.04 0.774 195.942 0.774 194.718ZM16.9283 187.68V201H15.2903V187.68H16.9283ZM20.566 189.534C20.254 189.534 19.99 189.426 19.774 189.21C19.558 188.994 19.45 188.73 19.45 188.418C19.45 188.106 19.558 187.842 19.774 187.626C19.99 187.41 20.254 187.302 20.566 187.302C20.866 187.302 21.118 187.41 21.322 187.626C21.538 187.842 21.646 188.106 21.646 188.418C21.646 188.73 21.538 188.994 21.322 189.21C21.118 189.426 20.866 189.534 20.566 189.534ZM21.358 191.136V201H19.72V191.136H21.358ZM23.5377 196.05C23.5377 195.03 23.7417 194.142 24.1497 193.386C24.5577 192.618 25.1217 192.024 25.8417 191.604C26.5737 191.184 27.4077 190.974 28.3437 190.974C29.5557 190.974 30.5517 191.268 31.3317 191.856C32.1237 192.444 32.6457 193.26 32.8977 194.304H31.1337C30.9657 193.704 30.6357 193.23 30.1437 192.882C29.6637 192.534 29.0637 192.36 28.3437 192.36C27.4077 192.36 26.6517 192.684 26.0757 193.332C25.4997 193.968 25.2117 194.874 25.2117 196.05C25.2117 197.238 25.4997 198.156 26.0757 198.804C26.6517 199.452 27.4077 199.776 28.3437 199.776C29.0637 199.776 29.6637 199.608 30.1437 199.272C30.6237 198.936 30.9537 198.456 31.1337 197.832H32.8977C32.6337 198.84 32.1057 199.65 31.3137 200.262C30.5217 200.862 29.5317 201.162 28.3437 201.162C27.4077 201.162 26.5737 200.952 25.8417 200.532C25.1217 200.112 24.5577 199.518 24.1497 198.75C23.7417 197.982 23.5377 197.082 23.5377 196.05ZM40.5913 201L36.7213 196.644V201H35.0833V187.68H36.7213V195.51L40.5193 191.136H42.8053L38.1613 196.05L42.8233 201H40.5913ZM55.4278 194.538C55.8838 194.61 56.2978 194.796 56.6698 195.096C57.0538 195.396 57.3538 195.768 57.5698 196.212C57.7978 196.656 57.9118 197.13 57.9118 197.634C57.9118 198.27 57.7498 198.846 57.4258 199.362C57.1018 199.866 56.6278 200.268 56.0038 200.568C55.3918 200.856 54.6658 201 53.8258 201H49.1458V188.454H53.6458C54.4978 188.454 55.2238 188.598 55.8238 188.886C56.4238 189.162 56.8738 189.54 57.1738 190.02C57.4738 190.5 57.6238 191.04 57.6238 191.64C57.6238 192.384 57.4198 193.002 57.0118 193.494C56.6158 193.974 56.0878 194.322 55.4278 194.538ZM50.7838 193.872H53.5378C54.3058 193.872 54.8998 193.692 55.3198 193.332C55.7398 192.972 55.9498 192.474 55.9498 191.838C55.9498 191.202 55.7398 190.704 55.3198 190.344C54.8998 189.984 54.2938 189.804 53.5018 189.804H50.7838V193.872ZM53.6818 199.65C54.4978 199.65 55.1338 199.458 55.5898 199.074C56.0458 198.69 56.2738 198.156 56.2738 197.472C56.2738 196.776 56.0338 196.23 55.5538 195.834C55.0738 195.426 54.4318 195.222 53.6278 195.222H50.7838V199.65H53.6818ZM69.1848 195.69C69.1848 196.002 69.1668 196.332 69.1308 196.68H61.2468C61.3068 197.652 61.6368 198.414 62.2368 198.966C62.8488 199.506 63.5868 199.776 64.4508 199.776C65.1588 199.776 65.7468 199.614 66.2148 199.29C66.6948 198.954 67.0308 198.51 67.2228 197.958H68.9868C68.7228 198.906 68.1948 199.68 67.4028 200.28C66.6108 200.868 65.6268 201.162 64.4508 201.162C63.5148 201.162 62.6748 200.952 61.9308 200.532C61.1988 200.112 60.6228 199.518 60.2028 198.75C59.7828 197.97 59.5728 197.07 59.5728 196.05C59.5728 195.03 59.7768 194.136 60.1848 193.368C60.5928 192.6 61.1628 192.012 61.8948 191.604C62.6388 191.184 63.4908 190.974 64.4508 190.974C65.3868 190.974 66.2148 191.178 66.9348 191.586C67.6548 191.994 68.2068 192.558 68.5908 193.278C68.9868 193.986 69.1848 194.79 69.1848 195.69ZM67.4928 195.348C67.4928 194.724 67.3548 194.19 67.0788 193.746C66.8028 193.29 66.4248 192.948 65.9448 192.72C65.4768 192.48 64.9548 192.36 64.3788 192.36C63.5508 192.36 62.8428 192.624 62.2548 193.152C61.6788 193.68 61.3488 194.412 61.2648 195.348H67.4928ZM72.9849 187.68V201H71.3469V187.68H72.9849ZM80.0786 201.162C79.1546 201.162 78.3146 200.952 77.5586 200.532C76.8146 200.112 76.2266 199.518 75.7946 198.75C75.3746 197.97 75.1646 197.07 75.1646 196.05C75.1646 195.042 75.3806 194.154 75.8126 193.386C76.2566 192.606 76.8566 192.012 77.6126 191.604C78.3686 191.184 79.2146 190.974 80.1506 190.974C81.0866 190.974 81.9326 191.184 82.6886 191.604C83.4446 192.012 84.0386 192.6 84.4706 193.368C84.9146 194.136 85.1366 195.03 85.1366 196.05C85.1366 197.07 84.9086 197.97 84.4526 198.75C84.0086 199.518 83.4026 200.112 82.6346 200.532C81.8666 200.952 81.0146 201.162 80.0786 201.162ZM80.0786 199.722C80.6666 199.722 81.2186 199.584 81.7346 199.308C82.2506 199.032 82.6646 198.618 82.9766 198.066C83.3006 197.514 83.4626 196.842 83.4626 196.05C83.4626 195.258 83.3066 194.586 82.9946 194.034C82.6826 193.482 82.2746 193.074 81.7706 192.81C81.2666 192.534 80.7206 192.396 80.1326 192.396C79.5326 192.396 78.9806 192.534 78.4766 192.81C77.9846 193.074 77.5886 193.482 77.2886 194.034C76.9886 194.586 76.8386 195.258 76.8386 196.05C76.8386 196.854 76.9826 197.532 77.2706 198.084C77.5706 198.636 77.9666 199.05 78.4586 199.326C78.9506 199.59 79.4906 199.722 80.0786 199.722ZM100.43 191.136L97.3523 201H95.6603L93.2843 193.17L90.9083 201H89.2163L86.1203 191.136H87.7943L90.0623 199.416L92.5103 191.136H94.1843L96.5783 199.434L98.8103 191.136H100.43ZM108.853 192.486V198.3C108.853 198.78 108.955 199.122 109.159 199.326C109.363 199.518 109.717 199.614 110.221 199.614H111.427V201H109.951C109.039 201 108.355 200.79 107.899 200.37C107.443 199.95 107.215 199.26 107.215 198.3V192.486H105.937V191.136H107.215V188.652H108.853V191.136H111.427V192.486H108.853ZM117.713 201.162C116.789 201.162 115.949 200.952 115.193 200.532C114.449 200.112 113.861 199.518 113.429 198.75C113.009 197.97 112.799 197.07 112.799 196.05C112.799 195.042 113.015 194.154 113.447 193.386C113.891 192.606 114.491 192.012 115.247 191.604C116.003 191.184 116.849 190.974 117.785 190.974C118.721 190.974 119.567 191.184 120.323 191.604C121.079 192.012 121.673 192.6 122.105 193.368C122.549 194.136 122.771 195.03 122.771 196.05C122.771 197.07 122.543 197.97 122.087 198.75C121.643 199.518 121.037 200.112 120.269 200.532C119.501 200.952 118.649 201.162 117.713 201.162ZM117.713 199.722C118.301 199.722 118.853 199.584 119.369 199.308C119.885 199.032 120.299 198.618 120.611 198.066C120.935 197.514 121.097 196.842 121.097 196.05C121.097 195.258 120.941 194.586 120.629 194.034C120.317 193.482 119.909 193.074 119.405 192.81C118.901 192.534 118.355 192.396 117.767 192.396C117.167 192.396 116.615 192.534 116.111 192.81C115.619 193.074 115.223 193.482 114.923 194.034C114.623 194.586 114.473 195.258 114.473 196.05C114.473 196.854 114.617 197.532 114.905 198.084C115.205 198.636 115.601 199.05 116.093 199.326C116.585 199.59 117.125 199.722 117.713 199.722ZM133.792 190.974C134.644 190.974 135.388 191.16 136.024 191.532C136.672 191.904 137.152 192.372 137.464 192.936V191.136H139.12V201.216C139.12 202.116 138.928 202.914 138.544 203.61C138.16 204.318 137.608 204.87 136.888 205.266C136.18 205.662 135.352 205.86 134.404 205.86C133.108 205.86 132.028 205.554 131.164 204.942C130.3 204.33 129.79 203.496 129.634 202.44H131.254C131.434 203.04 131.806 203.52 132.37 203.88C132.934 204.252 133.612 204.438 134.404 204.438C135.304 204.438 136.036 204.156 136.6 203.592C137.176 203.028 137.464 202.236 137.464 201.216V199.146C137.14 199.722 136.66 200.202 136.024 200.586C135.388 200.97 134.644 201.162 133.792 201.162C132.916 201.162 132.118 200.946 131.398 200.514C130.69 200.082 130.132 199.476 129.724 198.696C129.316 197.916 129.112 197.028 129.112 196.032C129.112 195.024 129.316 194.142 129.724 193.386C130.132 192.618 130.69 192.024 131.398 191.604C132.118 191.184 132.916 190.974 133.792 190.974ZM137.464 196.05C137.464 195.306 137.314 194.658 137.014 194.106C136.714 193.554 136.306 193.134 135.79 192.846C135.286 192.546 134.728 192.396 134.116 192.396C133.504 192.396 132.946 192.54 132.442 192.828C131.938 193.116 131.536 193.536 131.236 194.088C130.936 194.64 130.786 195.288 130.786 196.032C130.786 196.788 130.936 197.448 131.236 198.012C131.536 198.564 131.938 198.99 132.442 199.29C132.946 199.578 133.504 199.722 134.116 199.722C134.728 199.722 135.286 199.578 135.79 199.29C136.306 198.99 136.714 198.564 137.014 198.012C137.314 197.448 137.464 196.794 137.464 196.05ZM150.888 195.69C150.888 196.002 150.87 196.332 150.834 196.68H142.95C143.01 197.652 143.34 198.414 143.94 198.966C144.552 199.506 145.29 199.776 146.154 199.776C146.862 199.776 147.45 199.614 147.918 199.29C148.398 198.954 148.734 198.51 148.926 197.958H150.69C150.426 198.906 149.898 199.68 149.106 200.28C148.314 200.868 147.33 201.162 146.154 201.162C145.218 201.162 144.378 200.952 143.634 200.532C142.902 200.112 142.326 199.518 141.906 198.75C141.486 197.97 141.276 197.07 141.276 196.05C141.276 195.03 141.48 194.136 141.888 193.368C142.296 192.6 142.866 192.012 143.598 191.604C144.342 191.184 145.194 190.974 146.154 190.974C147.09 190.974 147.918 191.178 148.638 191.586C149.358 191.994 149.91 192.558 150.294 193.278C150.69 193.986 150.888 194.79 150.888 195.69ZM149.196 195.348C149.196 194.724 149.058 194.19 148.782 193.746C148.506 193.29 148.128 192.948 147.648 192.72C147.18 192.48 146.658 192.36 146.082 192.36C145.254 192.36 144.546 192.624 143.958 193.152C143.382 193.68 143.052 194.412 142.968 195.348H149.196ZM155.048 192.486V198.3C155.048 198.78 155.15 199.122 155.354 199.326C155.558 199.518 155.912 199.614 156.416 199.614H157.622V201H156.146C155.234 201 154.55 200.79 154.094 200.37C153.638 199.95 153.41 199.26 153.41 198.3V192.486H152.132V191.136H153.41V188.652H155.048V191.136H157.622V192.486H155.048ZM167.898 201.162C167.142 201.162 166.464 201.036 165.864 200.784C165.264 200.52 164.79 200.16 164.442 199.704C164.094 199.236 163.902 198.702 163.866 198.102H165.558C165.606 198.594 165.834 198.996 166.242 199.308C166.662 199.62 167.208 199.776 167.88 199.776C168.504 199.776 168.996 199.638 169.356 199.362C169.716 199.086 169.896 198.738 169.896 198.318C169.896 197.886 169.704 197.568 169.32 197.364C168.936 197.148 168.342 196.938 167.538 196.734C166.806 196.542 166.206 196.35 165.738 196.158C165.282 195.954 164.886 195.66 164.55 195.276C164.226 194.88 164.064 194.364 164.064 193.728C164.064 193.224 164.214 192.762 164.514 192.342C164.814 191.922 165.24 191.592 165.792 191.352C166.344 191.1 166.974 190.974 167.682 190.974C168.774 190.974 169.656 191.25 170.328 191.802C171 192.354 171.36 193.11 171.408 194.07H169.77C169.734 193.554 169.524 193.14 169.14 192.828C168.768 192.516 168.264 192.36 167.628 192.36C167.04 192.36 166.572 192.486 166.224 192.738C165.876 192.99 165.702 193.32 165.702 193.728C165.702 194.052 165.804 194.322 166.008 194.538C166.224 194.742 166.488 194.91 166.8 195.042C167.124 195.162 167.568 195.3 168.132 195.456C168.84 195.648 169.416 195.84 169.86 196.032C170.304 196.212 170.682 196.488 170.994 196.86C171.318 197.232 171.486 197.718 171.498 198.318C171.498 198.858 171.348 199.344 171.048 199.776C170.748 200.208 170.322 200.55 169.77 200.802C169.23 201.042 168.606 201.162 167.898 201.162ZM182.81 195.69C182.81 196.002 182.792 196.332 182.756 196.68H174.872C174.932 197.652 175.262 198.414 175.862 198.966C176.474 199.506 177.212 199.776 178.076 199.776C178.784 199.776 179.372 199.614 179.84 199.29C180.32 198.954 180.656 198.51 180.848 197.958H182.612C182.348 198.906 181.82 199.68 181.028 200.28C180.236 200.868 179.252 201.162 178.076 201.162C177.14 201.162 176.3 200.952 175.556 200.532C174.824 200.112 174.248 199.518 173.828 198.75C173.408 197.97 173.198 197.07 173.198 196.05C173.198 195.03 173.402 194.136 173.81 193.368C174.218 192.6 174.788 192.012 175.52 191.604C176.264 191.184 177.116 190.974 178.076 190.974C179.012 190.974 179.84 191.178 180.56 191.586C181.28 191.994 181.832 192.558 182.216 193.278C182.612 193.986 182.81 194.79 182.81 195.69ZM181.118 195.348C181.118 194.724 180.98 194.19 180.704 193.746C180.428 193.29 180.05 192.948 179.57 192.72C179.102 192.48 178.58 192.36 178.004 192.36C177.176 192.36 176.468 192.624 175.88 193.152C175.304 193.68 174.974 194.412 174.89 195.348H181.118ZM186.97 192.486V198.3C186.97 198.78 187.072 199.122 187.276 199.326C187.48 199.518 187.834 199.614 188.338 199.614H189.544V201H188.068C187.156 201 186.472 200.79 186.016 200.37C185.56 199.95 185.332 199.26 185.332 198.3V192.486H184.054V191.136H185.332V188.652H186.97V191.136H189.544V192.486H186.97ZM205.075 191.136V201H203.437V199.542C203.125 200.046 202.687 200.442 202.123 200.73C201.571 201.006 200.959 201.144 200.287 201.144C199.519 201.144 198.829 200.988 198.217 200.676C197.605 200.352 197.119 199.872 196.759 199.236C196.411 198.6 196.237 197.826 196.237 196.914V191.136H197.857V196.698C197.857 197.67 198.103 198.42 198.595 198.948C199.087 199.464 199.759 199.722 200.611 199.722C201.487 199.722 202.177 199.452 202.681 198.912C203.185 198.372 203.437 197.586 203.437 196.554V191.136H205.075ZM209.479 192.954C209.803 192.39 210.283 191.922 210.919 191.55C211.567 191.166 212.317 190.974 213.169 190.974C214.045 190.974 214.837 191.184 215.545 191.604C216.265 192.024 216.829 192.618 217.237 193.386C217.645 194.142 217.849 195.024 217.849 196.032C217.849 197.028 217.645 197.916 217.237 198.696C216.829 199.476 216.265 200.082 215.545 200.514C214.837 200.946 214.045 201.162 213.169 201.162C212.329 201.162 211.585 200.976 210.937 200.604C210.301 200.22 209.815 199.746 209.479 199.182V205.68H207.841V191.136H209.479V192.954ZM216.175 196.032C216.175 195.288 216.025 194.64 215.725 194.088C215.425 193.536 215.017 193.116 214.501 192.828C213.997 192.54 213.439 192.396 212.827 192.396C212.227 192.396 211.669 192.546 211.153 192.846C210.649 193.134 210.241 193.56 209.929 194.124C209.629 194.676 209.479 195.318 209.479 196.05C209.479 196.794 209.629 197.448 209.929 198.012C210.241 198.564 210.649 198.99 211.153 199.29C211.669 199.578 212.227 199.722 212.827 199.722C213.439 199.722 213.997 199.578 214.501 199.29C215.017 198.99 215.425 198.564 215.725 198.012C216.025 197.448 216.175 196.788 216.175 196.032ZM228.296 201.162C227.54 201.162 226.862 201.036 226.262 200.784C225.662 200.52 225.188 200.16 224.84 199.704C224.492 199.236 224.3 198.702 224.264 198.102H225.956C226.004 198.594 226.232 198.996 226.64 199.308C227.06 199.62 227.606 199.776 228.278 199.776C228.902 199.776 229.394 199.638 229.754 199.362C230.114 199.086 230.294 198.738 230.294 198.318C230.294 197.886 230.102 197.568 229.718 197.364C229.334 197.148 228.74 196.938 227.936 196.734C227.204 196.542 226.604 196.35 226.136 196.158C225.68 195.954 225.284 195.66 224.948 195.276C224.624 194.88 224.462 194.364 224.462 193.728C224.462 193.224 224.612 192.762 224.912 192.342C225.212 191.922 225.638 191.592 226.19 191.352C226.742 191.1 227.372 190.974 228.08 190.974C229.172 190.974 230.054 191.25 230.726 191.802C231.398 192.354 231.758 193.11 231.806 194.07H230.168C230.132 193.554 229.922 193.14 229.538 192.828C229.166 192.516 228.662 192.36 228.026 192.36C227.438 192.36 226.97 192.486 226.622 192.738C226.274 192.99 226.1 193.32 226.1 193.728C226.1 194.052 226.202 194.322 226.406 194.538C226.622 194.742 226.886 194.91 227.198 195.042C227.522 195.162 227.966 195.3 228.53 195.456C229.238 195.648 229.814 195.84 230.258 196.032C230.702 196.212 231.08 196.488 231.392 196.86C231.716 197.232 231.884 197.718 231.896 198.318C231.896 198.858 231.746 199.344 231.446 199.776C231.146 200.208 230.72 200.55 230.168 200.802C229.628 201.042 229.004 201.162 228.296 201.162ZM242.956 191.136V201H241.318V199.542C241.006 200.046 240.568 200.442 240.004 200.73C239.452 201.006 238.84 201.144 238.168 201.144C237.4 201.144 236.71 200.988 236.098 200.676C235.486 200.352 235 199.872 234.64 199.236C234.292 198.6 234.118 197.826 234.118 196.914V191.136H235.738V196.698C235.738 197.67 235.984 198.42 236.476 198.948C236.968 199.464 237.64 199.722 238.492 199.722C239.368 199.722 240.058 199.452 240.562 198.912C241.066 198.372 241.318 197.586 241.318 196.554V191.136H242.956ZM247.36 192.954C247.684 192.39 248.164 191.922 248.8 191.55C249.448 191.166 250.198 190.974 251.05 190.974C251.926 190.974 252.718 191.184 253.426 191.604C254.146 192.024 254.71 192.618 255.118 193.386C255.526 194.142 255.73 195.024 255.73 196.032C255.73 197.028 255.526 197.916 255.118 198.696C254.71 199.476 254.146 200.082 253.426 200.514C252.718 200.946 251.926 201.162 251.05 201.162C250.21 201.162 249.466 200.976 248.818 200.604C248.182 200.22 247.696 199.746 247.36 199.182V205.68H245.722V191.136H247.36V192.954ZM254.056 196.032C254.056 195.288 253.906 194.64 253.606 194.088C253.306 193.536 252.898 193.116 252.382 192.828C251.878 192.54 251.32 192.396 250.708 192.396C250.108 192.396 249.55 192.546 249.034 192.846C248.53 193.134 248.122 193.56 247.81 194.124C247.51 194.676 247.36 195.318 247.36 196.05C247.36 196.794 247.51 197.448 247.81 198.012C248.122 198.564 248.53 198.99 249.034 199.29C249.55 199.578 250.108 199.722 250.708 199.722C251.32 199.722 251.878 199.578 252.382 199.29C252.898 198.99 253.306 198.564 253.606 198.012C253.906 197.448 254.056 196.788 254.056 196.032ZM266.886 195.69C266.886 196.002 266.868 196.332 266.832 196.68H258.948C259.008 197.652 259.338 198.414 259.938 198.966C260.55 199.506 261.288 199.776 262.152 199.776C262.86 199.776 263.448 199.614 263.916 199.29C264.396 198.954 264.732 198.51 264.924 197.958H266.688C266.424 198.906 265.896 199.68 265.104 200.28C264.312 200.868 263.328 201.162 262.152 201.162C261.216 201.162 260.376 200.952 259.632 200.532C258.9 200.112 258.324 199.518 257.904 198.75C257.484 197.97 257.274 197.07 257.274 196.05C257.274 195.03 257.478 194.136 257.886 193.368C258.294 192.6 258.864 192.012 259.596 191.604C260.34 191.184 261.192 190.974 262.152 190.974C263.088 190.974 263.916 191.178 264.636 191.586C265.356 191.994 265.908 192.558 266.292 193.278C266.688 193.986 266.886 194.79 266.886 195.69ZM265.194 195.348C265.194 194.724 265.056 194.19 264.78 193.746C264.504 193.29 264.126 192.948 263.646 192.72C263.178 192.48 262.656 192.36 262.08 192.36C261.252 192.36 260.544 192.624 259.956 193.152C259.38 193.68 259.05 194.412 258.966 195.348H265.194ZM270.686 192.738C270.974 192.174 271.382 191.736 271.91 191.424C272.45 191.112 273.104 190.956 273.872 190.956V192.648H273.44C271.604 192.648 270.686 193.644 270.686 195.636V201H269.048V191.136H270.686V192.738ZM0.774 229.032C0.774 228.024 0.978 227.142 1.386 226.386C1.794 225.618 2.352 225.024 3.06 224.604C3.78 224.184 4.584 223.974 5.472 223.974C6.324 223.974 7.068 224.166 7.704 224.55C8.352 224.922 8.826 225.384 9.126 225.936V224.136H10.782V238.68H9.126V232.182C8.814 232.734 8.334 233.202 7.686 233.586C7.038 233.97 6.282 234.162 5.418 234.162C4.554 234.162 3.768 233.946 3.06 233.514C2.352 233.082 1.794 232.476 1.386 231.696C0.978 230.916 0.774 230.028 0.774 229.032ZM9.126 229.05C9.126 228.306 8.976 227.658 8.676 227.106C8.376 226.554 7.968 226.134 7.452 225.846C6.948 225.546 6.39 225.396 5.778 225.396C5.166 225.396 4.608 225.54 4.104 225.828C3.6 226.116 3.198 226.536 2.898 227.088C2.598 227.64 2.448 228.288 2.448 229.032C2.448 229.788 2.598 230.448 2.898 231.012C3.198 231.564 3.6 231.99 4.104 232.29C4.608 232.578 5.166 232.722 5.778 232.722C6.39 232.722 6.948 232.578 7.452 232.29C7.968 231.99 8.376 231.564 8.676 231.012C8.976 230.448 9.126 229.794 9.126 229.05ZM22.2981 224.136V234H20.6601V232.542C20.3481 233.046 19.9101 233.442 19.3461 233.73C18.7941 234.006 18.1821 234.144 17.5101 234.144C16.7421 234.144 16.0521 233.988 15.4401 233.676C14.8281 233.352 14.3421 232.872 13.9821 232.236C13.6341 231.6 13.4601 230.826 13.4601 229.914V224.136H15.0801V229.698C15.0801 230.67 15.3261 231.42 15.8181 231.948C16.3101 232.464 16.9821 232.722 17.8341 232.722C18.7101 232.722 19.4001 232.452 19.9041 231.912C20.4081 231.372 20.6601 230.586 20.6601 229.554V224.136H22.2981ZM25.9097 222.534C25.5977 222.534 25.3337 222.426 25.1177 222.21C24.9017 221.994 24.7937 221.73 24.7937 221.418C24.7937 221.106 24.9017 220.842 25.1177 220.626C25.3337 220.41 25.5977 220.302 25.9097 220.302C26.2097 220.302 26.4617 220.41 26.6657 220.626C26.8817 220.842 26.9897 221.106 26.9897 221.418C26.9897 221.73 26.8817 221.994 26.6657 222.21C26.4617 222.426 26.2097 222.534 25.9097 222.534ZM26.7017 224.136V234H25.0637V224.136H26.7017ZM28.8814 229.05C28.8814 228.03 29.0854 227.142 29.4934 226.386C29.9014 225.618 30.4654 225.024 31.1854 224.604C31.9174 224.184 32.7514 223.974 33.6874 223.974C34.8994 223.974 35.8954 224.268 36.6754 224.856C37.4674 225.444 37.9894 226.26 38.2414 227.304H36.4774C36.3094 226.704 35.9794 226.23 35.4874 225.882C35.0074 225.534 34.4074 225.36 33.6874 225.36C32.7514 225.36 31.9954 225.684 31.4194 226.332C30.8434 226.968 30.5554 227.874 30.5554 229.05C30.5554 230.238 30.8434 231.156 31.4194 231.804C31.9954 232.452 32.7514 232.776 33.6874 232.776C34.4074 232.776 35.0074 232.608 35.4874 232.272C35.9674 231.936 36.2974 231.456 36.4774 230.832H38.2414C37.9774 231.84 37.4494 232.65 36.6574 233.262C35.8654 233.862 34.8754 234.162 33.6874 234.162C32.7514 234.162 31.9174 233.952 31.1854 233.532C30.4654 233.112 29.9014 232.518 29.4934 231.75C29.0854 230.982 28.8814 230.082 28.8814 229.05ZM45.935 234L42.065 229.644V234H40.427V220.68H42.065V228.51L45.863 224.136H48.149L43.505 229.05L48.167 234H45.935ZM51.3287 220.68V234H49.6907V220.68H51.3287ZM62.6164 224.136L56.6764 238.644H54.9844L56.9284 233.892L52.9504 224.136H54.7684L57.8644 232.128L60.9244 224.136H62.6164ZM68.4498 229.032C68.4498 228.024 68.6538 227.142 69.0618 226.386C69.4698 225.618 70.0278 225.024 70.7358 224.604C71.4558 224.184 72.2538 223.974 73.1298 223.974C73.9938 223.974 74.7438 224.16 75.3798 224.532C76.0158 224.904 76.4898 225.372 76.8018 225.936V224.136H78.4578V234H76.8018V232.164C76.4778 232.74 75.9918 233.22 75.3438 233.604C74.7078 233.976 73.9638 234.162 73.1118 234.162C72.2358 234.162 71.4438 233.946 70.7358 233.514C70.0278 233.082 69.4698 232.476 69.0618 231.696C68.6538 230.916 68.4498 230.028 68.4498 229.032ZM76.8018 229.05C76.8018 228.306 76.6518 227.658 76.3518 227.106C76.0518 226.554 75.6438 226.134 75.1278 225.846C74.6238 225.546 74.0658 225.396 73.4538 225.396C72.8418 225.396 72.2838 225.54 71.7798 225.828C71.2758 226.116 70.8738 226.536 70.5738 227.088C70.2738 227.64 70.1238 228.288 70.1238 229.032C70.1238 229.788 70.2738 230.448 70.5738 231.012C70.8738 231.564 71.2758 231.99 71.7798 232.29C72.2838 232.578 72.8418 232.722 73.4538 232.722C74.0658 232.722 74.6238 232.578 75.1278 232.29C75.6438 231.99 76.0518 231.564 76.3518 231.012C76.6518 230.448 76.8018 229.794 76.8018 229.05ZM86.0318 223.956C87.2318 223.956 88.2038 224.322 88.9478 225.054C89.6918 225.774 90.0638 226.818 90.0638 228.186V234H88.4438V228.42C88.4438 227.436 88.1978 226.686 87.7058 226.17C87.2138 225.642 86.5418 225.378 85.6898 225.378C84.8258 225.378 84.1358 225.648 83.6198 226.188C83.1158 226.728 82.8638 227.514 82.8638 228.546V234H81.2258V224.136H82.8638V225.54C83.1878 225.036 83.6258 224.646 84.1778 224.37C84.7418 224.094 85.3598 223.956 86.0318 223.956ZM92.1275 229.032C92.1275 228.024 92.3315 227.142 92.7395 226.386C93.1475 225.618 93.7055 225.024 94.4135 224.604C95.1335 224.184 95.9375 223.974 96.8255 223.974C97.5935 223.974 98.3075 224.154 98.9675 224.514C99.6275 224.862 100.132 225.324 100.48 225.9V220.68H102.136V234H100.48V232.146C100.156 232.734 99.6755 233.22 99.0395 233.604C98.4035 233.976 97.6595 234.162 96.8075 234.162C95.9315 234.162 95.1335 233.946 94.4135 233.514C93.7055 233.082 93.1475 232.476 92.7395 231.696C92.3315 230.916 92.1275 230.028 92.1275 229.032ZM100.48 229.05C100.48 228.306 100.33 227.658 100.03 227.106C99.7295 226.554 99.3215 226.134 98.8055 225.846C98.3015 225.546 97.7435 225.396 97.1315 225.396C96.5195 225.396 95.9615 225.54 95.4575 225.828C94.9535 226.116 94.5515 226.536 94.2515 227.088C93.9515 227.64 93.8015 228.288 93.8015 229.032C93.8015 229.788 93.9515 230.448 94.2515 231.012C94.5515 231.564 94.9535 231.99 95.4575 232.29C95.9615 232.578 96.5195 232.722 97.1315 232.722C97.7435 232.722 98.3015 232.578 98.8055 232.29C99.3215 231.99 99.7295 231.564 100.03 231.012C100.33 230.448 100.48 229.794 100.48 229.05ZM113.716 225.486H111.646V234H110.008V225.486H108.73V224.136H110.008V223.434C110.008 222.33 110.29 221.526 110.854 221.022C111.43 220.506 112.348 220.248 113.608 220.248V221.616C112.888 221.616 112.378 221.76 112.078 222.048C111.79 222.324 111.646 222.786 111.646 223.434V224.136H113.716V225.486ZM116.472 222.534C116.16 222.534 115.896 222.426 115.68 222.21C115.464 221.994 115.356 221.73 115.356 221.418C115.356 221.106 115.464 220.842 115.68 220.626C115.896 220.41 116.16 220.302 116.472 220.302C116.772 220.302 117.024 220.41 117.228 220.626C117.444 220.842 117.552 221.106 117.552 221.418C117.552 221.73 117.444 221.994 117.228 222.21C117.024 222.426 116.772 222.534 116.472 222.534ZM117.264 224.136V234H115.626V224.136H117.264ZM124.862 223.956C126.062 223.956 127.034 224.322 127.778 225.054C128.522 225.774 128.894 226.818 128.894 228.186V234H127.274V228.42C127.274 227.436 127.028 226.686 126.536 226.17C126.044 225.642 125.372 225.378 124.52 225.378C123.656 225.378 122.966 225.648 122.45 226.188C121.946 226.728 121.694 227.514 121.694 228.546V234H120.056V224.136H121.694V225.54C122.018 225.036 122.456 224.646 123.008 224.37C123.572 224.094 124.19 223.956 124.862 223.956ZM130.958 229.032C130.958 228.024 131.162 227.142 131.57 226.386C131.978 225.618 132.536 225.024 133.244 224.604C133.964 224.184 134.768 223.974 135.656 223.974C136.424 223.974 137.138 224.154 137.798 224.514C138.458 224.862 138.962 225.324 139.31 225.9V220.68H140.966V234H139.31V232.146C138.986 232.734 138.506 233.22 137.87 233.604C137.234 233.976 136.49 234.162 135.638 234.162C134.762 234.162 133.964 233.946 133.244 233.514C132.536 233.082 131.978 232.476 131.57 231.696C131.162 230.916 130.958 230.028 130.958 229.032ZM139.31 229.05C139.31 228.306 139.16 227.658 138.86 227.106C138.56 226.554 138.152 226.134 137.636 225.846C137.132 225.546 136.574 225.396 135.962 225.396C135.35 225.396 134.792 225.54 134.288 225.828C133.784 226.116 133.382 226.536 133.082 227.088C132.782 227.64 132.632 228.288 132.632 229.032C132.632 229.788 132.782 230.448 133.082 231.012C133.382 231.564 133.784 231.99 134.288 232.29C134.792 232.578 135.35 232.722 135.962 232.722C136.574 232.722 137.132 232.578 137.636 232.29C138.152 231.99 138.56 231.564 138.86 231.012C139.16 230.448 139.31 229.794 139.31 229.05ZM153.428 223.956C154.172 223.956 154.844 224.118 155.444 224.442C156.044 224.754 156.512 225.228 156.848 225.864C157.196 226.5 157.37 227.274 157.37 228.186V234H155.75V228.42C155.75 227.436 155.504 226.686 155.012 226.17C154.52 225.642 153.848 225.378 152.996 225.378C152.132 225.378 151.442 225.648 150.926 226.188C150.422 226.728 150.17 227.514 150.17 228.546V234H148.532V220.68H150.17V225.54C150.494 225.036 150.938 224.646 151.502 224.37C152.078 224.094 152.72 223.956 153.428 223.956ZM169.046 228.69C169.046 229.002 169.028 229.332 168.992 229.68H161.108C161.168 230.652 161.498 231.414 162.098 231.966C162.71 232.506 163.448 232.776 164.312 232.776C165.02 232.776 165.608 232.614 166.076 232.29C166.556 231.954 166.892 231.51 167.084 230.958H168.848C168.584 231.906 168.056 232.68 167.264 233.28C166.472 233.868 165.488 234.162 164.312 234.162C163.376 234.162 162.536 233.952 161.792 233.532C161.06 233.112 160.484 232.518 160.064 231.75C159.644 230.97 159.434 230.07 159.434 229.05C159.434 228.03 159.638 227.136 160.046 226.368C160.454 225.6 161.024 225.012 161.756 224.604C162.5 224.184 163.352 223.974 164.312 223.974C165.248 223.974 166.076 224.178 166.796 224.586C167.516 224.994 168.068 225.558 168.452 226.278C168.848 226.986 169.046 227.79 169.046 228.69ZM167.354 228.348C167.354 227.724 167.216 227.19 166.94 226.746C166.664 226.29 166.286 225.948 165.806 225.72C165.338 225.48 164.816 225.36 164.24 225.36C163.412 225.36 162.704 225.624 162.116 226.152C161.54 226.68 161.21 227.412 161.126 228.348H167.354ZM172.846 220.68V234H171.208V220.68H172.846ZM177.276 225.954C177.6 225.39 178.08 224.922 178.716 224.55C179.364 224.166 180.114 223.974 180.966 223.974C181.842 223.974 182.634 224.184 183.342 224.604C184.062 225.024 184.626 225.618 185.034 226.386C185.442 227.142 185.646 228.024 185.646 229.032C185.646 230.028 185.442 230.916 185.034 231.696C184.626 232.476 184.062 233.082 183.342 233.514C182.634 233.946 181.842 234.162 180.966 234.162C180.126 234.162 179.382 233.976 178.734 233.604C178.098 233.22 177.612 232.746 177.276 232.182V238.68H175.638V224.136H177.276V225.954ZM183.972 229.032C183.972 228.288 183.822 227.64 183.522 227.088C183.222 226.536 182.814 226.116 182.298 225.828C181.794 225.54 181.236 225.396 180.624 225.396C180.024 225.396 179.466 225.546 178.95 225.846C178.446 226.134 178.038 226.56 177.726 227.124C177.426 227.676 177.276 228.318 177.276 229.05C177.276 229.794 177.426 230.448 177.726 231.012C178.038 231.564 178.446 231.99 178.95 232.29C179.466 232.578 180.024 232.722 180.624 232.722C181.236 232.722 181.794 232.578 182.298 232.29C182.814 231.99 183.222 231.564 183.522 231.012C183.822 230.448 183.972 229.788 183.972 229.032ZM197.407 223.956C198.607 223.956 199.579 224.322 200.323 225.054C201.067 225.774 201.439 226.818 201.439 228.186V234H199.819V228.42C199.819 227.436 199.573 226.686 199.081 226.17C198.589 225.642 197.917 225.378 197.065 225.378C196.201 225.378 195.511 225.648 194.995 226.188C194.491 226.728 194.239 227.514 194.239 228.546V234H192.601V224.136H194.239V225.54C194.563 225.036 195.001 224.646 195.553 224.37C196.117 224.094 196.735 223.956 197.407 223.956ZM208.417 234.162C207.493 234.162 206.653 233.952 205.897 233.532C205.153 233.112 204.565 232.518 204.133 231.75C203.713 230.97 203.503 230.07 203.503 229.05C203.503 228.042 203.719 227.154 204.151 226.386C204.595 225.606 205.195 225.012 205.951 224.604C206.707 224.184 207.553 223.974 208.489 223.974C209.425 223.974 210.271 224.184 211.027 224.604C211.783 225.012 212.377 225.6 212.809 226.368C213.253 227.136 213.475 228.03 213.475 229.05C213.475 230.07 213.247 230.97 212.791 231.75C212.347 232.518 211.741 233.112 210.973 233.532C210.205 233.952 209.353 234.162 208.417 234.162ZM208.417 232.722C209.005 232.722 209.557 232.584 210.073 232.308C210.589 232.032 211.003 231.618 211.315 231.066C211.639 230.514 211.801 229.842 211.801 229.05C211.801 228.258 211.645 227.586 211.333 227.034C211.021 226.482 210.613 226.074 210.109 225.81C209.605 225.534 209.059 225.396 208.471 225.396C207.871 225.396 207.319 225.534 206.815 225.81C206.323 226.074 205.927 226.482 205.627 227.034C205.327 227.586 205.177 228.258 205.177 229.05C205.177 229.854 205.321 230.532 205.609 231.084C205.909 231.636 206.305 232.05 206.797 232.326C207.289 232.59 207.829 232.722 208.417 232.722ZM228.768 224.136L225.69 234H223.998L221.622 226.17L219.246 234H217.554L214.458 224.136H216.132L218.4 232.416L220.848 224.136H222.522L224.916 232.434L227.148 224.136H228.768ZM232.518 221.454L232.32 230.454H230.952L230.754 221.454H232.518ZM231.708 234.108C231.396 234.108 231.132 234 230.916 233.784C230.7 233.568 230.592 233.304 230.592 232.992C230.592 232.68 230.7 232.416 230.916 232.2C231.132 231.984 231.396 231.876 231.708 231.876C232.008 231.876 232.26 231.984 232.464 232.2C232.68 232.416 232.788 232.68 232.788 232.992C232.788 233.304 232.68 233.568 232.464 233.784C232.26 234 232.008 234.108 231.708 234.108Z" fill="#767784"/>
<g clip-path="url(#clip1_1_289)">
<rect opacity="0.16" y="278" width="180" height="61" rx="30.5" fill="#52B4DA"/>
<circle cx="33" cy="309" r="23" fill="#52B4DA"/>
<g filter="url(#filter0_d_1_289)">
<path d="M35.7666 301.311C36.2508 300.886 36.9705 300.902 37.4346 301.328L37.5303 301.426L43.2334 307.923C43.6303 308.375 43.6304 309.052 43.2344 309.505L37.5322 316.026C37.0778 316.546 36.2873 316.599 35.7676 316.145C35.2829 315.72 35.2044 315.004 35.5654 314.488L35.6494 314.381L39.5107 309.965H22.25C21.5596 309.965 21 309.405 21 308.715C21 308.068 21.4918 307.536 22.1221 307.472L22.25 307.465H39.5049L35.6514 303.074C35.2265 302.59 35.2431 301.87 35.6689 301.406L35.7666 301.311Z" fill="white"/>
</g>
<path d="M74.9355 305.08C74.6475 304.525 74.2475 304.109 73.7355 303.832C73.2235 303.544 72.6315 303.4 71.9595 303.4C71.2235 303.4 70.5675 303.565 69.9915 303.896C69.4155 304.227 68.9622 304.696 68.6315 305.304C68.3115 305.912 68.1515 306.616 68.1515 307.416C68.1515 308.216 68.3115 308.925 68.6315 309.544C68.9622 310.152 69.4155 310.621 69.9915 310.952C70.5675 311.283 71.2235 311.448 71.9595 311.448C72.9515 311.448 73.7568 311.171 74.3755 310.616C74.9942 310.061 75.3728 309.309 75.5115 308.36H71.3355V306.904H77.4635V308.328C77.3462 309.192 77.0368 309.987 76.5355 310.712C76.0448 311.437 75.3995 312.019 74.5995 312.456C73.8102 312.883 72.9302 313.096 71.9595 313.096C70.9142 313.096 69.9595 312.856 69.0955 312.376C68.2315 311.885 67.5435 311.208 67.0315 310.344C66.5302 309.48 66.2795 308.504 66.2795 307.416C66.2795 306.328 66.5302 305.352 67.0315 304.488C67.5435 303.624 68.2315 302.952 69.0955 302.472C69.9702 301.981 70.9248 301.736 71.9595 301.736C73.1435 301.736 74.1942 302.029 75.1115 302.616C76.0395 303.192 76.7115 304.013 77.1275 305.08H74.9355ZM87.3425 308.376C87.3425 308.707 87.3212 309.005 87.2785 309.272H80.5425C80.5958 309.976 80.8572 310.541 81.3265 310.968C81.7958 311.395 82.3718 311.608 83.0545 311.608C84.0358 311.608 84.7292 311.197 85.1345 310.376H87.1025C86.8358 311.187 86.3505 311.853 85.6465 312.376C84.9532 312.888 84.0892 313.144 83.0545 313.144C82.2118 313.144 81.4545 312.957 80.7825 312.584C80.1212 312.2 79.5985 311.667 79.2145 310.984C78.8412 310.291 78.6545 309.491 78.6545 308.584C78.6545 307.677 78.8358 306.883 79.1985 306.2C79.5718 305.507 80.0892 304.973 80.7505 304.6C81.4225 304.227 82.1905 304.04 83.0545 304.04C83.8865 304.04 84.6278 304.221 85.2785 304.584C85.9292 304.947 86.4358 305.459 86.7985 306.12C87.1612 306.771 87.3425 307.523 87.3425 308.376ZM85.4385 307.8C85.4278 307.128 85.1878 306.589 84.7185 306.184C84.2492 305.779 83.6678 305.576 82.9745 305.576C82.3452 305.576 81.8065 305.779 81.3585 306.184C80.9105 306.579 80.6438 307.117 80.5585 307.8H85.4385ZM91.2655 305.672V310.552C91.2655 310.883 91.3402 311.123 91.4895 311.272C91.6495 311.411 91.9162 311.48 92.2895 311.48H93.4095V313H91.9695C91.1482 313 90.5188 312.808 90.0815 312.424C89.6442 312.04 89.4255 311.416 89.4255 310.552V305.672H88.3855V304.184H89.4255V301.992H91.2655V304.184H93.4095V305.672H91.2655ZM102.911 313.112C102.164 313.112 101.492 312.984 100.895 312.728C100.298 312.461 99.8282 312.088 99.4869 311.608C99.1455 311.128 98.9749 310.568 98.9749 309.928H100.927C100.97 310.408 101.156 310.803 101.487 311.112C101.828 311.421 102.303 311.576 102.911 311.576C103.54 311.576 104.031 311.427 104.383 311.128C104.735 310.819 104.911 310.424 104.911 309.944C104.911 309.571 104.799 309.267 104.575 309.032C104.362 308.797 104.09 308.616 103.759 308.488C103.439 308.36 102.991 308.221 102.415 308.072C101.69 307.88 101.098 307.688 100.639 307.496C100.191 307.293 99.8069 306.984 99.4869 306.568C99.1669 306.152 99.0069 305.597 99.0069 304.904C99.0069 304.264 99.1669 303.704 99.4869 303.224C99.8069 302.744 100.255 302.376 100.831 302.12C101.407 301.864 102.074 301.736 102.831 301.736C103.908 301.736 104.788 302.008 105.471 302.552C106.164 303.085 106.548 303.821 106.623 304.76H104.607C104.575 304.355 104.383 304.008 104.031 303.72C103.679 303.432 103.215 303.288 102.639 303.288C102.116 303.288 101.69 303.421 101.359 303.688C101.028 303.955 100.863 304.339 100.863 304.84C100.863 305.181 100.964 305.464 101.167 305.688C101.38 305.901 101.647 306.072 101.967 306.2C102.287 306.328 102.724 306.467 103.279 306.616C104.015 306.819 104.612 307.021 105.071 307.224C105.54 307.427 105.935 307.741 106.255 308.168C106.586 308.584 106.751 309.144 106.751 309.848C106.751 310.413 106.596 310.947 106.287 311.448C105.988 311.949 105.546 312.355 104.959 312.664C104.383 312.963 103.7 313.112 102.911 313.112ZM111.031 305.672V310.552C111.031 310.883 111.106 311.123 111.255 311.272C111.415 311.411 111.682 311.48 112.055 311.48H113.175V313H111.735C110.914 313 110.284 312.808 109.847 312.424C109.41 312.04 109.191 311.416 109.191 310.552V305.672H108.151V304.184H109.191V301.992H111.031V304.184H113.175V305.672H111.031ZM114.248 308.552C114.248 307.667 114.43 306.883 114.792 306.2C115.166 305.517 115.667 304.989 116.296 304.616C116.936 304.232 117.64 304.04 118.408 304.04C119.102 304.04 119.704 304.179 120.216 304.456C120.739 304.723 121.155 305.059 121.464 305.464V304.184H123.304V313H121.464V311.688C121.155 312.104 120.734 312.451 120.2 312.728C119.667 313.005 119.059 313.144 118.376 313.144C117.619 313.144 116.926 312.952 116.296 312.568C115.667 312.173 115.166 311.629 114.792 310.936C114.43 310.232 114.248 309.437 114.248 308.552ZM121.464 308.584C121.464 307.976 121.336 307.448 121.08 307C120.835 306.552 120.51 306.211 120.104 305.976C119.699 305.741 119.262 305.624 118.792 305.624C118.323 305.624 117.886 305.741 117.48 305.976C117.075 306.2 116.744 306.536 116.488 306.984C116.243 307.421 116.12 307.944 116.12 308.552C116.12 309.16 116.243 309.693 116.488 310.152C116.744 310.611 117.075 310.963 117.48 311.208C117.896 311.443 118.334 311.56 118.792 311.56C119.262 311.56 119.699 311.443 120.104 311.208C120.51 310.973 120.835 310.632 121.08 310.184C121.336 309.725 121.464 309.192 121.464 308.584ZM127.524 305.464C127.791 305.016 128.143 304.669 128.58 304.424C129.028 304.168 129.556 304.04 130.164 304.04V305.928H129.7C128.985 305.928 128.441 306.109 128.068 306.472C127.705 306.835 127.524 307.464 127.524 308.36V313H125.7V304.184H127.524V305.464ZM133.969 305.672V310.552C133.969 310.883 134.043 311.123 134.193 311.272C134.353 311.411 134.619 311.48 134.993 311.48H136.113V313H134.673C133.851 313 133.222 312.808 132.785 312.424C132.347 312.04 132.129 311.416 132.129 310.552V305.672H131.089V304.184H132.129V301.992H133.969V304.184H136.113V305.672H133.969ZM145.874 308.376C145.874 308.707 145.852 309.005 145.81 309.272H139.074C139.127 309.976 139.388 310.541 139.858 310.968C140.327 311.395 140.903 311.608 141.586 311.608C142.567 311.608 143.26 311.197 143.666 310.376H145.634C145.367 311.187 144.882 311.853 144.178 312.376C143.484 312.888 142.62 313.144 141.586 313.144C140.743 313.144 139.986 312.957 139.314 312.584C138.652 312.2 138.13 311.667 137.746 310.984C137.372 310.291 137.186 309.491 137.186 308.584C137.186 307.677 137.367 306.883 137.73 306.2C138.103 305.507 138.62 304.973 139.282 304.6C139.954 304.227 140.722 304.04 141.586 304.04C142.418 304.04 143.159 304.221 143.81 304.584C144.46 304.947 144.967 305.459 145.33 306.12C145.692 306.771 145.874 307.523 145.874 308.376ZM143.97 307.8C143.959 307.128 143.719 306.589 143.25 306.184C142.78 305.779 142.199 305.576 141.506 305.576C140.876 305.576 140.338 305.779 139.89 306.184C139.442 306.579 139.175 307.117 139.09 307.8H143.97ZM147.061 308.552C147.061 307.667 147.242 306.883 147.605 306.2C147.978 305.517 148.479 304.989 149.109 304.616C149.749 304.232 150.458 304.04 151.237 304.04C151.813 304.04 152.378 304.168 152.933 304.424C153.498 304.669 153.946 305 154.277 305.416V301.16H156.117V313H154.277V311.672C153.978 312.099 153.562 312.451 153.029 312.728C152.506 313.005 151.903 313.144 151.221 313.144C150.453 313.144 149.749 312.952 149.109 312.568C148.479 312.173 147.978 311.629 147.605 310.936C147.242 310.232 147.061 309.437 147.061 308.552ZM154.277 308.584C154.277 307.976 154.149 307.448 153.893 307C153.647 306.552 153.322 306.211 152.917 305.976C152.511 305.741 152.074 305.624 151.605 305.624C151.135 305.624 150.698 305.741 150.293 305.976C149.887 306.2 149.557 306.536 149.301 306.984C149.055 307.421 148.933 307.944 148.933 308.552C148.933 309.16 149.055 309.693 149.301 310.152C149.557 310.611 149.887 310.963 150.293 311.208C150.709 311.443 151.146 311.56 151.605 311.56C152.074 311.56 152.511 311.443 152.917 311.208C153.322 310.973 153.647 310.632 153.893 310.184C154.149 309.725 154.277 309.192 154.277 308.584Z" fill="#1E3E85"/>
</g>
</g>
<defs>
<filter id="filter0_d_1_289" x="19" y="301" width="26.5312" height="19.4534" filterUnits="userSpaceOnUse" color-interpolation-filters="sRGB">
<feFlood flood-opacity="0" result="BackgroundImageFix"/>
<feColorMatrix in="SourceAlpha" type="matrix" values="0 0 0 0 0 0 0 0 0 0 0 0 0 0 0 0 0 0 127 0" result="hardAlpha"/>
<feOffset dy="2"/>
<feGaussianBlur stdDeviation="1"/>
<feColorMatrix type="matrix" values="0 0 0 0 0 0 0 0 0 0 0 0 0 0 0 0 0 0 0.182535 0"/>
<feBlend mode="normal" in2="BackgroundImageFix" result="effect1_dropShadow_1_289"/>
<feBlend mode="normal" in="SourceGraphic" in2="effect1_dropShadow_1_289" result="shape"/>
</filter>
<clipPath id="clip0_1_289">
<rect width="390" height="339" fill="white"/>
</clipPath>
<clipPath id="clip1_1_289">
<rect width="180" height="61" fill="white" transform="translate(0 278)"/>
</clipPath>
</defs>
</svg>
