<svg width="1439" height="108" viewBox="0 0 1439 108" fill="none" xmlns="http://www.w3.org/2000/svg">
<path d="M94.5624 60.9004C96.2778 60.9004 97.8182 61.3073 99.1815 62.1162C100.545 62.9275 101.593 64.0166 102.326 65.3799C103.059 66.7434 103.425 68.2455 103.425 69.8877C103.425 70.3527 103.396 70.8079 103.334 71.251H90.3642C90.5609 72.4196 91.0275 73.3137 91.7655 73.9395C92.5041 74.5628 93.4379 74.877 94.5624 74.877C95.3588 74.8769 96.0738 74.7013 96.7099 74.3496C97.3442 73.9981 97.8382 73.513 98.1903 72.8936H103.054C102.434 74.7636 101.359 76.2476 99.83 77.3486C98.3025 78.4494 96.5455 78.998 94.5624 78.998C92.9001 78.998 91.3881 78.6029 90.0302 77.8115C88.6719 77.0245 87.6054 75.9355 86.8309 74.5518C86.0564 73.1664 85.6698 71.6316 85.6698 69.9492C85.6699 68.2561 86.0549 66.7174 86.8241 65.332C87.5936 63.9465 88.6575 62.864 90.0155 62.0781C91.3737 61.2922 92.8891 60.9004 94.5624 60.9004ZM114.192 60.9004C116.404 60.9004 118.302 61.544 119.888 62.8311C121.474 64.1143 122.478 65.8173 122.901 67.9355H118.298C117.926 67.0898 117.373 66.4293 116.641 65.959C115.908 65.4891 115.08 65.2559 114.162 65.2559C112.911 65.2559 111.867 65.7002 111.024 66.5938C110.182 67.4886 109.762 68.595 109.762 69.918C109.762 71.2414 110.184 72.3575 111.032 73.2725C111.88 74.1876 112.922 74.6436 114.162 74.6436C115.103 74.6436 115.928 74.3951 116.641 73.8994C117.353 73.4033 117.906 72.6971 118.298 71.7783H122.963C122.56 73.9364 121.55 75.6794 119.933 77.0059C118.316 78.335 116.393 78.998 114.162 78.998C112.891 78.998 111.693 78.763 110.567 78.293C109.44 77.8222 108.477 77.1847 107.671 76.3789C106.865 75.5732 106.229 74.607 105.765 73.4824C105.299 72.3579 105.067 71.1635 105.067 69.9043C105.067 68.6427 105.3 67.4541 105.765 66.3389C106.229 65.2236 106.865 64.2673 107.671 63.4727C108.477 62.6784 109.444 62.0514 110.574 61.5918C111.706 61.1306 112.911 60.9004 114.192 60.9004ZM140.888 70.7559C140.888 71.9752 141.192 72.9271 141.801 73.6162C142.409 74.3015 143.252 74.6436 144.325 74.6436C145.401 74.6435 146.238 74.297 146.838 73.6064C147.435 72.9159 147.733 71.9643 147.733 70.7559V61.3809H152.368V71.2822C152.368 73.5973 151.634 75.4603 150.167 76.875C148.7 78.2915 146.753 78.998 144.325 78.998C141.908 78.998 139.959 78.2916 138.477 76.875C136.996 75.4603 136.254 73.5973 136.254 71.2822V61.3809H140.888V70.7559ZM76.33 56.3008C78.5609 56.3008 80.4111 56.995 81.8837 58.3838C83.3549 59.774 84.0917 61.5325 84.0917 63.6602C84.0917 65.0958 83.7304 66.3796 83.0067 67.5117C82.2829 68.6415 81.2972 69.5123 80.0487 70.1221L84.9589 78.5205H79.5819L72.6972 66.4961H76.0038C76.995 66.4961 77.7804 66.2298 78.3583 65.6982C78.9362 65.1662 79.2264 64.4763 79.2265 63.6299C79.2265 62.7832 78.9362 62.0898 78.3583 61.5527C77.7804 61.0164 76.995 60.7481 76.0038 60.748H69.4052L66.8593 56.3008H76.33ZM169.718 61.3809H174.444V65.0996H169.796V71.7793C169.796 72.6157 170.023 73.261 170.477 73.7148C170.931 74.1706 171.583 74.3965 172.431 74.3965H174.537V78.5205H171.253C169.374 78.5205 167.888 77.9726 166.798 76.8828C165.708 75.7944 165.164 74.2972 165.164 72.3984V65.0996H162.065V64.1084L168.835 56.9043H169.718V61.3809ZM134.61 61.3809V65.5039H132.504C131.657 65.5039 131.006 65.7299 130.552 66.1855C130.098 66.6397 129.869 67.2851 129.869 68.1221V78.5195H125.238V67.502C125.238 65.6022 125.781 64.1055 126.871 63.0176C127.961 61.9274 129.447 61.3809 131.326 61.3809H134.61ZM160.423 78.5195H155.789V61.3809H160.423V78.5195ZM94.5624 64.8516C93.5417 64.8516 92.6735 65.1364 91.9589 65.7051C91.2481 66.2737 90.756 67.0685 90.4882 68.0908H98.7938C98.4728 67.0464 97.949 66.2479 97.2196 65.6904C96.4923 65.1328 95.6069 64.8516 94.5624 64.8516ZM160.406 59.4141H155.789V54.7969H160.406V59.4141Z" fill="#FFFFFE"/>
<path d="M69.4057 73.2539C70.9921 73.2539 72.2786 74.54 72.2787 76.127C72.2787 77.7135 70.9922 79 69.4057 79C67.8189 78.9999 66.5326 77.7134 66.5326 76.127C66.5327 74.54 67.819 73.254 69.4057 73.2539ZM78.9301 33.6016C80.6451 33.6016 82.1856 34.008 83.5492 34.8174C84.9126 35.6285 85.9608 36.7167 86.6937 38.0801C87.4266 39.4436 87.7933 40.9459 87.7933 42.5879C87.7933 43.0527 87.7636 43.5092 87.7015 43.9521H74.7318C74.9286 45.1205 75.3961 46.0154 76.1342 46.6406C76.8722 47.2638 77.8055 47.5771 78.9301 47.5771C79.7264 47.5771 80.4413 47.4027 81.0775 47.0508C81.7118 46.6988 82.2056 46.2135 82.557 45.5938H87.4213C86.8017 47.464 85.7271 48.9478 84.1976 50.0488C82.6701 51.1496 80.9132 51.6992 78.9301 51.6992C77.2676 51.6992 75.7559 51.3038 74.3978 50.5127C73.0401 49.7249 71.9743 48.6362 71.1996 47.2529C70.4252 45.8673 70.0385 44.333 70.0385 42.6504C70.0385 40.9572 70.4225 39.4177 71.1918 38.0322C71.9608 36.6471 73.0261 35.5647 74.3842 34.7793C75.7422 33.9935 77.2569 33.6016 78.9301 33.6016ZM127.426 33.6016C129.161 33.6016 130.738 33.9913 132.153 34.7695C133.568 35.5495 134.677 36.6333 135.483 38.0186C136.289 39.4021 136.694 40.9465 136.694 42.6504C136.694 44.3439 136.289 45.8825 135.483 47.2676C134.677 48.6529 133.568 49.7356 132.153 50.5215C130.738 51.3073 129.161 51.6992 127.426 51.6992C125.682 51.6992 124.102 51.3072 122.687 50.5215C121.27 49.7356 120.162 48.6529 119.362 47.2676C118.562 45.8825 118.163 44.3439 118.162 42.6504C118.162 40.9353 118.562 39.3889 119.362 38.0107C120.162 36.6292 121.27 35.5494 122.687 34.7695C124.102 33.9914 125.682 33.6016 127.426 33.6016ZM159.415 33.6016C161.131 33.6016 162.672 34.008 164.036 34.8174C165.399 35.6284 166.446 36.7168 167.179 38.0801C167.912 39.4436 168.279 40.9459 168.279 42.5879C168.279 43.0527 168.25 43.5092 168.188 43.9521H155.218C155.415 45.1204 155.881 46.0155 156.62 46.6406C157.358 47.2638 158.291 47.5771 159.415 47.5771C160.212 47.5771 160.927 47.4027 161.564 47.0508C162.198 46.6988 162.692 46.2134 163.043 45.5938H167.907C167.287 47.464 166.213 48.9478 164.684 50.0488C163.156 51.1496 161.399 51.6992 159.415 51.6992C157.753 51.6992 156.242 51.3037 154.884 50.5127C153.526 49.7249 152.46 48.6363 151.685 47.2529C150.91 45.8674 150.524 44.3329 150.524 42.6504C150.524 40.9572 150.909 39.4177 151.678 38.0322C152.447 36.6473 153.512 35.5646 154.87 34.7793C156.228 33.9935 157.742 33.6016 159.415 33.6016ZM60.6976 29C62.9291 29 64.7794 29.6949 66.2523 31.084C67.7229 32.4739 68.4594 34.2321 68.4594 36.3604C68.4593 37.7956 68.0989 39.0789 67.3754 40.2109C66.6518 41.3412 65.665 42.2115 64.4164 42.8213L69.3275 51.2188H63.9496L57.0648 39.1953H60.3715C61.3631 39.1953 62.1483 38.9297 62.726 38.3975C63.3041 37.8663 63.5941 37.1758 63.5941 36.3291C63.5941 35.4824 63.3042 34.79 62.726 34.2529C62.1483 33.7164 61.3633 33.4473 60.3715 33.4473H53.7738L51.2279 29H60.6976ZM109.813 33.6797C111.59 33.6797 113.039 34.3088 114.16 35.5684C115.28 36.8296 115.841 38.4609 115.841 40.4639V51.2188H111.207V41.2412C111.207 40.0927 110.989 39.2231 110.549 38.6309C110.11 38.0363 109.472 37.7373 108.636 37.7373C107.602 37.7373 106.794 38.1076 106.211 38.8457C105.628 39.5857 105.334 40.6217 105.334 41.9521V51.2188H100.827V41.2412C100.827 40.0928 100.612 39.2231 100.183 38.6309C99.7548 38.0364 99.1278 37.7374 98.3021 37.7373C97.2486 37.7373 96.4262 38.1076 95.8373 38.8457C95.2489 39.5857 94.9545 40.6216 94.9545 41.9521V51.2188H90.3207V34.0801H93.5443L94.4115 36.2041C95.0205 35.4295 95.7769 34.8152 96.681 34.3613C97.5852 33.9058 98.533 33.6797 99.5248 33.6797C100.609 33.6797 101.587 33.9201 102.454 34.3975C103.322 34.8787 104.004 35.5536 104.499 36.4209C105.098 35.5751 105.865 34.9046 106.8 34.416C107.735 33.924 108.739 33.6798 109.813 33.6797ZM144.621 34.0801H149.348V37.7998H144.7V44.4785C144.7 45.3152 144.927 45.9602 145.381 46.4141C145.835 46.8695 146.486 47.0956 147.333 47.0957H149.441V51.2188H146.156C144.277 51.2187 142.791 50.672 141.701 49.582C140.611 48.4936 140.068 46.997 140.068 45.0977V37.7998H136.969V36.8076L143.74 29.6035H144.621V34.0801ZM127.426 37.957C126.096 37.957 124.999 38.3923 124.141 39.2656C123.284 40.137 122.857 41.2672 122.857 42.6504C122.857 44.0342 123.284 45.1649 124.141 46.0361C124.999 46.9092 126.096 47.3447 127.426 47.3447C128.76 47.3447 129.854 46.9092 130.711 46.0361C131.57 45.1649 131.997 44.0341 131.997 42.6504C131.997 41.2672 131.57 40.137 130.711 39.2656C129.854 38.3923 128.76 37.9571 127.426 37.957ZM78.9301 37.5508C77.9093 37.5508 77.0418 37.8355 76.3275 38.4043C75.6165 38.9727 75.1239 39.7673 74.8558 40.79H83.1605C82.84 39.7458 82.3171 38.9474 81.5883 38.3896C80.8611 37.8317 79.9743 37.5508 78.9301 37.5508ZM159.415 37.5508C158.395 37.5509 157.527 37.8355 156.813 38.4043C156.102 38.9727 155.61 39.7674 155.342 40.79H163.647C163.326 39.7456 162.803 38.9474 162.074 38.3896C161.346 37.8317 160.46 37.5508 159.415 37.5508Z" fill="#52B4DA"/>
<path fill-rule="evenodd" clip-rule="evenodd" d="M55.5007 45L51.9999 51H58.9999L55.5007 45Z" fill="#FFFFFE"/>
<g clip-path="url(#clip0_1_325)">
<rect x="1297" y="32" width="92" height="44" rx="16" fill="#4DA8CC" fill-opacity="0.9"/>
<path d="M1319.26 59.098C1318.58 59.098 1317.96 58.9813 1317.41 58.748C1316.87 58.5147 1316.44 58.1787 1316.13 57.74C1315.81 57.3013 1315.64 56.7833 1315.64 56.186H1317.74C1317.76 56.5873 1317.9 56.9047 1318.16 57.138C1318.42 57.3713 1318.77 57.488 1319.22 57.488C1319.68 57.488 1320.04 57.3807 1320.3 57.166C1320.56 56.942 1320.69 56.6527 1320.69 56.298C1320.69 56.0087 1320.6 55.7707 1320.42 55.584C1320.25 55.3973 1320.02 55.2527 1319.75 55.15C1319.49 55.038 1319.13 54.9167 1318.66 54.786C1318.02 54.5993 1317.51 54.4173 1317.11 54.24C1316.71 54.0533 1316.37 53.778 1316.08 53.414C1315.8 53.0407 1315.66 52.546 1315.66 51.93C1315.66 51.3513 1315.81 50.8473 1316.1 50.418C1316.39 49.9887 1316.79 49.662 1317.32 49.438C1317.84 49.2047 1318.44 49.088 1319.11 49.088C1320.12 49.088 1320.93 49.3353 1321.56 49.83C1322.19 50.3153 1322.54 50.9967 1322.61 51.874H1320.45C1320.43 51.538 1320.29 51.2627 1320.02 51.048C1319.76 50.824 1319.41 50.712 1318.97 50.712C1318.58 50.712 1318.28 50.81 1318.04 51.006C1317.82 51.202 1317.71 51.4867 1317.71 51.86C1317.71 52.1213 1317.79 52.3407 1317.96 52.518C1318.14 52.686 1318.35 52.826 1318.6 52.938C1318.86 53.0407 1319.23 53.162 1319.7 53.302C1320.33 53.4887 1320.85 53.6753 1321.25 53.862C1321.65 54.0487 1322 54.3287 1322.29 54.702C1322.57 55.0753 1322.72 55.5653 1322.72 56.172C1322.72 56.6947 1322.58 57.18 1322.31 57.628C1322.04 58.076 1321.65 58.4353 1321.12 58.706C1320.6 58.9673 1319.98 59.098 1319.26 59.098ZM1325.81 50.32C1325.47 50.32 1325.18 50.2127 1324.94 49.998C1324.72 49.774 1324.61 49.4987 1324.61 49.172C1324.61 48.8453 1324.72 48.5747 1324.94 48.36C1325.18 48.136 1325.47 48.024 1325.81 48.024C1326.16 48.024 1326.44 48.136 1326.67 48.36C1326.9 48.5747 1327.02 48.8453 1327.02 49.172C1327.02 49.4987 1326.9 49.774 1326.67 49.998C1326.44 50.2127 1326.16 50.32 1325.81 50.32ZM1326.78 51.244V59H1324.82V51.244H1326.78ZM1332.15 51.118C1332.73 51.118 1333.24 51.2347 1333.68 51.468C1334.12 51.692 1334.46 51.986 1334.71 52.35V51.244H1336.69V59.056C1336.69 59.7747 1336.54 60.414 1336.25 60.974C1335.97 61.5433 1335.53 61.9913 1334.95 62.318C1334.37 62.654 1333.67 62.822 1332.85 62.822C1331.75 62.822 1330.85 62.5653 1330.14 62.052C1329.44 61.5387 1329.04 60.8387 1328.95 59.952H1330.89C1331 60.3067 1331.21 60.5867 1331.55 60.792C1331.9 61.0067 1332.31 61.114 1332.8 61.114C1333.37 61.114 1333.83 60.9413 1334.18 60.596C1334.54 60.26 1334.71 59.7467 1334.71 59.056V57.852C1334.46 58.216 1334.11 58.5193 1333.66 58.762C1333.23 59.0047 1332.72 59.126 1332.15 59.126C1331.5 59.126 1330.9 58.958 1330.36 58.622C1329.82 58.286 1329.39 57.8147 1329.07 57.208C1328.76 56.592 1328.61 55.8873 1328.61 55.094C1328.61 54.31 1328.76 53.6147 1329.07 53.008C1329.39 52.4013 1329.81 51.9347 1330.35 51.608C1330.89 51.2813 1331.49 51.118 1332.15 51.118ZM1334.71 55.122C1334.71 54.646 1334.62 54.24 1334.43 53.904C1334.25 53.5587 1334 53.2973 1333.68 53.12C1333.36 52.9333 1333.02 52.84 1332.66 52.84C1332.29 52.84 1331.96 52.9287 1331.65 53.106C1331.34 53.2833 1331.09 53.5447 1330.89 53.89C1330.71 54.226 1330.61 54.6273 1330.61 55.094C1330.61 55.5607 1330.71 55.9713 1330.89 56.326C1331.09 56.6713 1331.34 56.9373 1331.65 57.124C1331.97 57.3107 1332.3 57.404 1332.66 57.404C1333.02 57.404 1333.36 57.3153 1333.68 57.138C1334 56.9513 1334.25 56.69 1334.43 56.354C1334.62 56.0087 1334.71 55.598 1334.71 55.122ZM1343.3 51.132C1344.23 51.132 1344.97 51.426 1345.54 52.014C1346.11 52.5927 1346.4 53.4047 1346.4 54.45V59H1344.44V54.716C1344.44 54.1 1344.28 53.6287 1343.97 53.302C1343.67 52.966 1343.25 52.798 1342.71 52.798C1342.17 52.798 1341.74 52.966 1341.43 53.302C1341.12 53.6287 1340.96 54.1 1340.96 54.716V59H1339V51.244H1340.96V52.21C1341.22 51.874 1341.56 51.6127 1341.96 51.426C1342.37 51.23 1342.82 51.132 1343.3 51.132ZM1354.33 49.228V55.276C1354.33 55.9387 1354.5 56.4473 1354.84 56.802C1355.19 57.1473 1355.68 57.32 1356.3 57.32C1356.94 57.32 1357.43 57.1473 1357.77 56.802C1358.12 56.4473 1358.29 55.9387 1358.29 55.276V49.228H1360.26V55.262C1360.26 56.0927 1360.08 56.7973 1359.72 57.376C1359.36 57.9453 1358.88 58.3747 1358.27 58.664C1357.68 58.9533 1357.01 59.098 1356.27 59.098C1355.54 59.098 1354.88 58.9533 1354.28 58.664C1353.7 58.3747 1353.23 57.9453 1352.88 57.376C1352.54 56.7973 1352.37 56.0927 1352.37 55.262V49.228H1354.33ZM1364.52 52.364C1364.77 52.0093 1365.11 51.7153 1365.55 51.482C1366 51.2393 1366.51 51.118 1367.08 51.118C1367.74 51.118 1368.34 51.2813 1368.87 51.608C1369.41 51.9347 1369.84 52.4013 1370.14 53.008C1370.46 53.6053 1370.62 54.3007 1370.62 55.094C1370.62 55.8873 1370.46 56.592 1370.14 57.208C1369.84 57.8147 1369.41 58.286 1368.87 58.622C1368.34 58.958 1367.74 59.126 1367.08 59.126C1366.51 59.126 1366.01 59.0093 1365.57 58.776C1365.14 58.5427 1364.79 58.2487 1364.52 57.894V62.696H1362.56V51.244H1364.52V52.364ZM1368.62 55.094C1368.62 54.6273 1368.52 54.226 1368.32 53.89C1368.14 53.5447 1367.89 53.2833 1367.57 53.106C1367.26 52.9287 1366.92 52.84 1366.56 52.84C1366.21 52.84 1365.87 52.9333 1365.55 53.12C1365.24 53.2973 1364.99 53.5587 1364.8 53.904C1364.61 54.2493 1364.52 54.6553 1364.52 55.122C1364.52 55.5887 1364.61 55.9947 1364.8 56.34C1364.99 56.6853 1365.24 56.9513 1365.55 57.138C1365.87 57.3153 1366.21 57.404 1366.56 57.404C1366.92 57.404 1367.26 57.3107 1367.57 57.124C1367.89 56.9373 1368.14 56.6713 1368.32 56.326C1368.52 55.9807 1368.62 55.57 1368.62 55.094Z" fill="#F5F7FE"/>
</g>
<path d="M1216.31 59.098C1215.63 59.098 1215.01 58.9813 1214.46 58.748C1213.92 58.5147 1213.49 58.1787 1213.17 57.74C1212.86 57.3013 1212.69 56.7833 1212.68 56.186H1214.78C1214.81 56.5873 1214.95 56.9047 1215.2 57.138C1215.47 57.3713 1215.82 57.488 1216.27 57.488C1216.73 57.488 1217.08 57.3807 1217.35 57.166C1217.61 56.942 1217.74 56.6527 1217.74 56.298C1217.74 56.0087 1217.65 55.7707 1217.47 55.584C1217.29 55.3973 1217.07 55.2527 1216.8 55.15C1216.54 55.038 1216.17 54.9167 1215.71 54.786C1215.07 54.5993 1214.56 54.4173 1214.15 54.24C1213.76 54.0533 1213.42 53.778 1213.13 53.414C1212.85 53.0407 1212.71 52.546 1212.71 51.93C1212.71 51.3513 1212.86 50.8473 1213.15 50.418C1213.44 49.9887 1213.84 49.662 1214.36 49.438C1214.89 49.2047 1215.48 49.088 1216.16 49.088C1217.16 49.088 1217.98 49.3353 1218.61 49.83C1219.24 50.3153 1219.59 50.9967 1219.66 51.874H1217.5C1217.48 51.538 1217.34 51.2627 1217.07 51.048C1216.8 50.824 1216.45 50.712 1216.02 50.712C1215.63 50.712 1215.33 50.81 1215.09 51.006C1214.87 51.202 1214.76 51.4867 1214.76 51.86C1214.76 52.1213 1214.84 52.3407 1215.01 52.518C1215.19 52.686 1215.4 52.826 1215.65 52.938C1215.91 53.0407 1216.28 53.162 1216.74 53.302C1217.38 53.4887 1217.9 53.6753 1218.3 53.862C1218.7 54.0487 1219.04 54.3287 1219.33 54.702C1219.62 55.0753 1219.77 55.5653 1219.77 56.172C1219.77 56.6947 1219.63 57.18 1219.36 57.628C1219.09 58.076 1218.69 58.4353 1218.17 58.706C1217.65 58.9673 1217.03 59.098 1216.31 59.098ZM1222.86 50.32C1222.52 50.32 1222.23 50.2127 1221.99 49.998C1221.77 49.774 1221.66 49.4987 1221.66 49.172C1221.66 48.8453 1221.77 48.5747 1221.99 48.36C1222.23 48.136 1222.52 48.024 1222.86 48.024C1223.21 48.024 1223.49 48.136 1223.72 48.36C1223.95 48.5747 1224.07 48.8453 1224.07 49.172C1224.07 49.4987 1223.95 49.774 1223.72 49.998C1223.49 50.2127 1223.21 50.32 1222.86 50.32ZM1223.83 51.244V59H1221.87V51.244H1223.83ZM1229.2 51.118C1229.78 51.118 1230.29 51.2347 1230.73 51.468C1231.17 51.692 1231.51 51.986 1231.76 52.35V51.244H1233.74V59.056C1233.74 59.7747 1233.59 60.414 1233.3 60.974C1233.01 61.5433 1232.58 61.9913 1232 62.318C1231.42 62.654 1230.72 62.822 1229.9 62.822C1228.8 62.822 1227.89 62.5653 1227.19 62.052C1226.49 61.5387 1226.09 60.8387 1226 59.952H1227.94C1228.04 60.3067 1228.26 60.5867 1228.6 60.792C1228.94 61.0067 1229.36 61.114 1229.85 61.114C1230.41 61.114 1230.88 60.9413 1231.23 60.596C1231.59 60.26 1231.76 59.7467 1231.76 59.056V57.852C1231.51 58.216 1231.16 58.5193 1230.71 58.762C1230.27 59.0047 1229.77 59.126 1229.2 59.126C1228.55 59.126 1227.95 58.958 1227.41 58.622C1226.87 58.286 1226.44 57.8147 1226.12 57.208C1225.81 56.592 1225.66 55.8873 1225.66 55.094C1225.66 54.31 1225.81 53.6147 1226.12 53.008C1226.44 52.4013 1226.86 51.9347 1227.4 51.608C1227.94 51.2813 1228.54 51.118 1229.2 51.118ZM1231.76 55.122C1231.76 54.646 1231.67 54.24 1231.48 53.904C1231.3 53.5587 1231.04 53.2973 1230.73 53.12C1230.41 52.9333 1230.07 52.84 1229.71 52.84C1229.34 52.84 1229.01 52.9287 1228.7 53.106C1228.39 53.2833 1228.14 53.5447 1227.94 53.89C1227.75 54.226 1227.66 54.6273 1227.66 55.094C1227.66 55.5607 1227.75 55.9713 1227.94 56.326C1228.14 56.6713 1228.39 56.9373 1228.7 57.124C1229.01 57.3107 1229.35 57.404 1229.71 57.404C1230.07 57.404 1230.41 57.3153 1230.73 57.138C1231.04 56.9513 1231.3 56.69 1231.48 56.354C1231.67 56.0087 1231.76 55.598 1231.76 55.122ZM1240.35 51.132C1241.27 51.132 1242.02 51.426 1242.59 52.014C1243.16 52.5927 1243.44 53.4047 1243.44 54.45V59H1241.48V54.716C1241.48 54.1 1241.33 53.6287 1241.02 53.302C1240.71 52.966 1240.29 52.798 1239.76 52.798C1239.22 52.798 1238.79 52.966 1238.47 53.302C1238.17 53.6287 1238.01 54.1 1238.01 54.716V59H1236.05V51.244H1238.01V52.21C1238.27 51.874 1238.6 51.6127 1239.01 51.426C1239.42 51.23 1239.86 51.132 1240.35 51.132ZM1251.4 49.228V59H1249.44V49.228H1251.4ZM1258.04 51.132C1258.96 51.132 1259.71 51.426 1260.28 52.014C1260.85 52.5927 1261.13 53.4047 1261.13 54.45V59H1259.17V54.716C1259.17 54.1 1259.02 53.6287 1258.71 53.302C1258.4 52.966 1257.98 52.798 1257.45 52.798C1256.91 52.798 1256.48 52.966 1256.16 53.302C1255.85 53.6287 1255.7 54.1 1255.7 54.716V59H1253.74V51.244H1255.7V52.21C1255.96 51.874 1256.29 51.6127 1256.69 51.426C1257.1 51.23 1257.55 51.132 1258.04 51.132Z" fill="#F5F7FE"/>
<defs>
<clipPath id="clip0_1_325">
<rect width="92" height="44" fill="white" transform="translate(1297 32)"/>
</clipPath>
</defs>
</svg>
