<svg width="185" height="74" viewBox="0 0 185 74" fill="none" xmlns="http://www.w3.org/2000/svg">
<path fill-rule="evenodd" clip-rule="evenodd" d="M32.972 69.7483C32.972 67.3996 31.0685 65.4961 28.7204 65.4961C26.372 65.4961 24.4685 67.3996 24.4685 69.7483C24.4685 72.0964 26.372 73.9999 28.7204 73.9999C31.0685 73.9999 32.972 72.0964 32.972 69.7483Z" fill="#52B4DA"/>
<path d="M65.9521 47.2148C68.4911 47.2148 70.7704 47.8175 72.7881 49.0146C74.8065 50.2154 76.3577 51.826 77.4424 53.8438C78.5271 55.8619 79.0693 58.0849 79.0693 60.5156C79.0693 61.2039 79.0264 61.8782 78.9346 62.5342H59.7393C60.0305 64.2636 60.7213 65.5867 61.8135 66.5127C62.9066 67.4352 64.2878 67.8994 65.9521 67.8994C67.1309 67.8994 68.1884 67.6405 69.1299 67.1201C70.069 66.5999 70.8 65.8818 71.3213 64.9648H78.5186C77.6013 67.7325 76.0123 69.9291 73.749 71.5586C71.4883 73.1879 68.8874 73.999 65.9521 73.999C63.4921 73.999 61.2557 73.4142 59.2461 72.2432C57.2357 71.0783 55.657 69.467 54.5107 67.4189C53.3642 65.3685 52.792 63.0975 52.792 60.6074C52.792 58.1015 53.3616 55.8249 54.5 53.7744C55.6389 51.7236 57.2136 50.1211 59.2236 48.958C61.2337 47.7949 63.4757 47.2148 65.9521 47.2148ZM95.0049 47.2148C98.2778 47.2148 101.086 48.1676 103.433 50.0723C105.78 51.9715 107.267 54.4909 107.894 57.626H101.081C100.53 56.3745 99.713 55.3981 98.6289 54.7021C97.5443 54.0065 96.3193 53.6602 94.96 53.6602C93.1089 53.6602 91.5629 54.3183 90.3164 55.6406C89.0699 56.9652 88.4473 58.6032 88.4473 60.5615C88.4473 62.5201 89.0724 64.1713 90.3271 65.5254C91.5814 66.8798 93.1254 67.5547 94.96 67.5547C96.352 67.5547 97.5738 67.1878 98.6289 66.4541C99.6836 65.7197 100.501 64.6735 101.081 63.3135H107.985C107.389 66.5078 105.894 69.0875 103.501 71.0508C101.108 73.0178 98.2617 73.999 94.96 73.999C93.0793 73.999 91.3064 73.6517 89.6396 72.9561C87.9719 72.2593 86.5452 71.3157 85.3525 70.123C84.1603 68.9304 83.2188 67.5005 82.5312 65.8359C81.8429 64.1716 81.5 62.4038 81.5 60.54C81.5 58.6729 81.843 56.9132 82.5312 55.2627C83.2188 53.6123 84.1604 52.1975 85.3525 51.0215C86.5452 49.8458 87.9778 48.9175 89.6504 48.2373C91.3255 47.5547 93.1086 47.2149 95.0049 47.2148ZM134.514 61.7988C134.514 63.6034 134.965 65.0113 135.865 66.0312C136.766 67.0459 138.013 67.5527 139.602 67.5527C141.193 67.5527 142.431 67.0396 143.319 66.0176C144.204 64.9955 144.646 63.5876 144.646 61.7988V47.9238H151.505V62.5781C151.505 66.0044 150.42 68.7618 148.248 70.8555C146.077 72.952 143.195 73.998 139.602 73.998C136.025 73.998 133.14 72.952 130.947 70.8555C128.754 68.7618 127.656 66.0044 127.656 62.5781V47.9238H134.514V61.7988ZM38.9688 40.4062C42.2707 40.4063 45.009 41.4338 47.1885 43.4893C49.3659 45.5467 50.456 48.1491 50.4561 51.2979C50.4561 53.4226 49.9216 55.3225 48.8506 56.998C47.7793 58.6703 46.3204 59.9588 44.4727 60.8613L51.7402 73.291H43.7812L33.5918 55.4951H38.4854C39.9527 55.4951 41.1163 55.1016 41.9717 54.3145C42.827 53.527 43.2559 52.5057 43.2559 51.2529C43.2558 50 42.8268 48.9745 41.9717 48.1797C41.1163 47.3855 39.9527 46.9883 38.4854 46.9883H28.7207L24.9521 40.4062H38.9688ZM177.183 47.9248H184.179V53.4277H177.299V63.3135C177.299 64.5518 177.635 65.5069 178.308 66.1787C178.979 66.8533 179.943 67.1875 181.197 67.1875H184.315V73.291H179.454C176.673 73.291 174.474 72.4801 172.86 70.8672C171.247 69.2564 170.443 67.0412 170.443 64.2314V53.4277H165.857V51.9609L175.877 41.2988H177.183V47.9248ZM125.225 47.9238V54.0254H122.106C120.852 54.0254 119.889 54.3606 119.217 55.0352C118.545 55.7073 118.207 56.6617 118.207 57.9004V73.2891H111.353V56.9834C111.353 54.1718 112.156 51.9568 113.77 50.3467C115.383 48.733 117.582 47.9239 120.363 47.9238H125.225ZM163.427 73.2891H156.568V47.9238H163.427V73.2891ZM65.9521 53.0605C64.4416 53.0606 63.1572 53.4816 62.0996 54.3232C61.0475 55.1648 60.3192 56.3413 59.9229 57.8545H72.2148C71.7397 56.3088 70.9651 55.1268 69.8857 54.3018C68.8092 53.4763 67.4982 53.0605 65.9521 53.0605ZM163.402 45.0127H156.568V38.1797H163.402V45.0127Z" fill="#FFFFFE"/>
<path fill-rule="evenodd" clip-rule="evenodd" d="M5.58736 23.2129L0 32.8844H11.1723L5.58736 23.2129Z" fill="#FFFFFE"/>
<path d="M42.8173 6.81055C45.3555 6.81062 47.6352 7.41248 49.6533 8.61035C51.6708 9.81068 53.2219 11.4209 54.3066 13.4385C55.3912 15.4565 55.9335 17.6801 55.9335 20.1104C55.9335 20.7983 55.8906 21.4733 55.7988 22.1289H36.6035C36.8947 23.8583 37.5862 25.183 38.6786 26.1084C39.771 27.0307 41.1528 27.4951 42.8173 27.4951C43.9957 27.495 45.0536 27.2357 45.9951 26.7148C46.9335 26.194 47.6654 25.4767 48.1855 24.5596H55.3828C54.4658 27.3275 52.8768 29.5238 50.6132 31.1533C48.3525 32.7823 45.7521 33.5946 42.8173 33.5947C40.3567 33.5947 38.1194 33.0097 36.1093 31.8389C34.0997 30.6729 32.5215 29.0619 31.3749 27.0146C30.2287 24.9638 29.6572 22.6926 29.6572 20.2021C29.6572 17.6962 30.2257 15.4187 31.3642 13.3682C32.5023 11.3183 34.0781 9.71605 36.0878 8.55371C38.0979 7.39059 40.3409 6.81055 42.8173 6.81055ZM114.591 6.81055C117.159 6.8106 119.493 7.38822 121.586 8.54004C123.68 9.69437 125.322 11.2975 126.515 13.3477C127.707 15.3953 128.307 17.6804 128.307 20.2021C128.307 22.7088 127.707 24.986 126.515 27.0361C125.322 29.0865 123.68 30.6885 121.586 31.8516C119.493 33.0146 117.159 33.5947 114.591 33.5947C112.009 33.5947 109.67 33.0147 107.576 31.8516C105.48 30.6885 103.84 29.0865 102.655 27.0361C101.471 24.986 100.88 22.7088 100.88 20.2021C100.88 17.6638 101.471 15.3755 102.655 13.3359C103.84 11.2913 105.48 9.69429 107.576 8.54004C109.67 7.38817 112.009 6.81055 114.591 6.81055ZM161.935 6.81055C164.474 6.81055 166.754 7.41241 168.772 8.61035C170.79 9.81071 172.341 11.4209 173.426 13.4385C174.51 15.4565 175.053 17.6801 175.053 20.1104C175.053 20.7983 175.009 21.4733 174.918 22.1289H155.723C156.013 23.8582 156.704 25.1831 157.797 26.1084C158.89 27.0309 160.271 27.4951 161.935 27.4951C163.114 27.4951 164.172 27.2357 165.114 26.7148C166.053 26.194 166.784 25.4766 167.304 24.5596H174.502C173.585 27.3276 171.996 29.5238 169.732 31.1533C167.471 32.7823 164.871 33.5947 161.935 33.5947C159.475 33.5947 157.238 33.0097 155.228 31.8389C153.218 30.6729 151.641 29.062 150.494 27.0146C149.348 24.9638 148.775 22.6926 148.775 20.2021C148.775 17.6962 149.345 15.4187 150.483 13.3682C151.622 11.3183 153.197 9.71604 155.207 8.55371C157.217 7.39059 159.459 6.81055 161.935 6.81055ZM15.8329 0C19.1353 9.22216e-05 21.8729 1.02842 24.0527 3.08398C26.2293 5.14108 27.3202 7.7428 27.3203 10.8926C27.3203 13.0169 26.7857 14.9163 25.7148 16.5918C24.6438 18.2646 23.1838 19.5526 21.3359 20.4551L28.6044 32.8838H20.6454L10.456 15.0889H15.3495C16.8176 15.0889 17.9799 14.6954 18.8349 13.9072C19.6906 13.1211 20.1191 12.0998 20.1191 10.8467C20.119 9.59368 19.6905 8.56923 18.8349 7.77441C17.9799 6.98024 16.8176 6.58203 15.3495 6.58203H5.58588L1.81732 0H15.8329ZM88.5234 6.92578C91.1535 6.92578 93.297 7.85661 94.956 9.7207C96.6149 11.5875 97.4452 14.0021 97.4453 16.9668V32.8838H90.5878V18.1162C90.5878 16.4165 90.2639 15.1293 89.6132 14.2529C88.9636 13.3731 88.0187 12.9316 86.7812 12.9316C85.2513 12.9317 84.0564 13.4789 83.1933 14.5713C82.3295 15.6665 81.8954 17.1997 81.8954 19.1689V32.8838H75.2236V18.1162C75.2235 16.4165 74.9049 15.1293 74.2704 14.2529C73.6367 13.3732 72.7083 12.9316 71.4863 12.9316C69.9273 12.9317 68.7103 13.4789 67.8388 14.5713C66.968 15.6665 66.5331 17.1998 66.5331 19.1689V32.8838H59.6757V7.51855H64.4453L65.7294 10.6621C66.6308 9.5157 67.7498 8.6063 69.0878 7.93457C70.426 7.2604 71.8289 6.92585 73.2968 6.92578C74.902 6.92578 76.3487 7.28176 77.6328 7.98828C78.9169 8.70051 79.9254 9.69963 80.6591 10.9834C81.5444 9.73164 82.6807 8.73875 84.0644 8.01562C85.4485 7.28738 86.9346 6.92584 88.5234 6.92578ZM140.039 7.51855H147.035V13.0225H140.156V22.9072C140.156 24.146 140.493 25.1007 141.165 25.7725C141.837 26.4466 142.799 26.7812 144.054 26.7812H147.173V32.8838H142.31C139.529 32.8837 137.33 32.0742 135.717 30.4609C134.104 28.8501 133.3 26.6352 133.3 23.8242V13.0225H128.714V11.5547L138.734 0.892578H140.039V7.51855ZM114.59 13.2559C112.621 13.256 110.999 13.9009 109.728 15.1934C108.46 16.483 107.827 18.1552 107.827 20.2021C107.827 22.2501 108.46 23.9235 109.728 25.2129C110.999 26.505 112.621 27.1493 114.59 27.1494C116.565 27.1494 118.184 26.5051 119.452 25.2129C120.722 23.9235 121.356 22.2502 121.356 20.2021C121.356 18.1551 120.722 16.483 119.452 15.1934C118.184 13.9008 116.565 13.2559 114.59 13.2559ZM42.8173 12.6562C41.3064 12.6562 40.0211 13.077 38.9638 13.9189C37.9116 14.7602 37.1838 15.9367 36.787 17.4502H49.0781C48.6036 15.9046 47.8289 14.7229 46.7499 13.8975C45.6738 13.0718 44.3625 12.6563 42.8173 12.6562ZM161.935 12.6562C160.425 12.6563 159.141 13.077 158.083 13.9189C157.031 14.7602 156.302 15.9366 155.905 17.4502H168.197C167.723 15.9046 166.948 14.7229 165.869 13.8975C164.792 13.0717 163.481 12.6562 161.935 12.6562Z" fill="#52B4DA"/>
</svg>
