<svg width="1440" height="569" viewBox="0 0 1440 569" fill="none" xmlns="http://www.w3.org/2000/svg">
<g clip-path="url(#clip0_1_132)">
<path d="M1440 630.414V185.27C1440 185.27 1214 198.27 1017.5 159.27C821 120.27 634 50.7695 420 23.2695C206 -4.23047 0 0.769531 0 0.769531V630.414H1440Z" fill="url(#paint0_linear_1_132)"/>
<path d="M1440 634.414V189.27C1440 189.27 1214 202.27 1017.5 163.27C821 124.27 634 54.7695 420 27.2695C206 -0.230469 0 4.76953 0 4.76953V634.414H1440Z" fill="url(#paint1_linear_1_132)"/>
<mask id="mask0_1_132" style="mask-type:luminance" maskUnits="userSpaceOnUse" x="0" y="4" width="1440" height="631">
<path d="M1440 634.414V189.27C1440 189.27 1214 202.27 1017.5 163.27C821 124.27 634 54.7695 420 27.2695C206 -0.230469 0 4.76953 0 4.76953V634.414H1440Z" fill="white"/>
</mask>
<g mask="url(#mask0_1_132)">
<circle opacity="0.05" cx="262" cy="262" r="262" transform="matrix(1 0 0 -1 1060 369.27)" fill="white"/>
<circle opacity="0.02" cx="262" cy="262" r="262" transform="matrix(1 0 0 -1 -6 1036.27)" fill="white"/>
</g>
<rect x="980" y="326" width="32" height="32" rx="16" fill="url(#paint2_linear_1_132)" fill-opacity="0.15"/>
<path fill-rule="evenodd" clip-rule="evenodd" d="M992.965 349.335V343.624H991.333V340.361H992.965V338.747C992.965 336.494 994.791 334.668 997.044 334.668H999.491V337.931H997.86C996.958 337.931 996.228 338.661 996.228 339.563V340.361H999.491L998.675 343.624H996.228V349.335H992.965Z" fill="#DFE1F2"/>
<rect x="1106" y="326" width="32" height="32" rx="16" fill="url(#paint3_linear_1_132)" fill-opacity="0.15"/>
<path d="M1128.2 337.268L1129.2 336.827C1129.42 336.73 1129.67 336.891 1129.67 337.132C1129.67 337.513 1129.51 338.256 1129.07 339.394C1128.97 341.302 1128.06 344.135 1126.46 346.089C1123.99 349.084 1120.21 349.884 1114.99 347.705C1114.66 347.565 1114.75 347.067 1115.12 347.064C1116.44 347.055 1117.71 346.746 1118.86 346.172C1117.73 345.888 1116.83 345.047 1116.41 343.877C1116.4 343.859 1116.4 343.841 1116.39 343.824L1116.26 343.748C1115.11 343.042 1114.35 341.669 1114.4 340.14L1114.64 340.014C1114.07 338.853 1114.29 337.391 1115.14 336.669C1115.25 336.568 1115.43 336.563 1115.55 336.656C1117.45 338.072 1118.72 338.703 1121.02 339.307C1121.32 335.783 1125.39 334.318 1128.2 337.268Z" fill="#DFE1F2"/>
<rect x="1148" y="326" width="32" height="32" rx="16" fill="url(#paint4_linear_1_132)" fill-opacity="0.15"/>
<path fill-rule="evenodd" clip-rule="evenodd" d="M1163.66 339.534V340.665C1164.65 338.699 1168.53 338.666 1168.67 341.515L1168.67 341.665V346.665L1166.66 346.667V342.666C1166.66 339.889 1163.77 340.644 1163.67 342.563L1163.66 342.665V346.667H1161.67V339.534H1163.66V340.665V339.534ZM1160.66 339.664V346.665H1158.67V339.664H1160.66ZM1159.67 337.334C1160.22 337.334 1160.67 337.781 1160.67 338.332C1160.67 338.883 1160.22 339.329 1159.67 339.329C1159.12 339.329 1158.67 338.883 1158.67 338.332C1158.67 337.781 1159.12 337.334 1159.67 337.334Z" fill="#DFE1F2"/>
<circle cx="1080" cy="342" r="16" fill="url(#paint5_linear_1_132)" fill-opacity="0.15"/>
<g clip-path="url(#clip1_1_132)">
<path d="M1081.22 341.018L1086 335.583H1084.87L1080.72 340.301L1077.41 335.583H1073.58L1078.59 342.718L1073.58 348.417H1074.72L1079.1 343.433L1082.6 348.417H1086.42L1081.22 341.018ZM1079.67 342.781L1079.16 342.07L1075.12 336.419H1076.86L1080.12 340.981L1080.63 341.692L1084.87 347.622H1083.13L1079.67 342.781Z" fill="#DCDEF1"/>
</g>
<circle cx="1038" cy="342" r="16" fill="url(#paint6_linear_1_132)" fill-opacity="0.15"/>
<path d="M1037.95 338.302C1035.73 338.302 1033.89 340.111 1033.89 342.365C1033.89 344.619 1035.7 346.429 1037.95 346.429C1040.21 346.429 1042.02 344.587 1042.02 342.365C1042.02 340.143 1040.17 338.302 1037.95 338.302ZM1037.95 344.968C1036.52 344.968 1035.35 343.794 1035.35 342.365C1035.35 340.937 1036.52 339.762 1037.95 339.762C1039.38 339.762 1040.56 340.937 1040.56 342.365C1040.56 343.794 1039.38 344.968 1037.95 344.968Z" fill="#DCDEF1"/>
<path d="M1042.17 339.127C1042.68 339.127 1043.1 338.715 1043.1 338.206C1043.1 337.698 1042.68 337.286 1042.17 337.286C1041.67 337.286 1041.25 337.698 1041.25 338.206C1041.25 338.715 1041.67 339.127 1042.17 339.127Z" fill="#DCDEF1"/>
<path d="M1044.56 335.826C1043.73 334.968 1042.56 334.524 1041.22 334.524H1034.68C1031.92 334.524 1030.08 336.365 1030.08 339.127V345.635C1030.08 347 1030.52 348.175 1031.41 349.032C1032.27 349.857 1033.41 350.27 1034.71 350.27H1041.19C1042.56 350.27 1043.7 349.826 1044.52 349.032C1045.38 348.206 1045.83 347.032 1045.83 345.667V339.127C1045.83 337.794 1045.38 336.651 1044.56 335.826ZM1044.43 345.667C1044.43 346.651 1044.08 347.445 1043.51 347.984C1042.94 348.524 1042.14 348.81 1041.19 348.81H1034.71C1033.76 348.81 1032.97 348.524 1032.4 347.984C1031.83 347.413 1031.54 346.619 1031.54 345.635V339.127C1031.54 338.175 1031.83 337.381 1032.4 336.81C1032.94 336.27 1033.76 335.984 1034.71 335.984H1041.25C1042.21 335.984 1043 336.27 1043.57 336.841C1044.11 337.413 1044.43 338.206 1044.43 339.127V345.667Z" fill="#DCDEF1"/>
<circle cx="1206" cy="342" r="16" fill="url(#paint7_linear_1_132)" fill-opacity="0.15"/>
<g clip-path="url(#clip2_1_132)">
<path d="M1214.32 345.75C1214.25 345.75 1214.25 345.75 1214.32 345.75C1214.1 345.6 1213.95 345.6 1213.8 345.525H1213.72C1212.97 345.3 1212.3 344.775 1211.77 344.1C1211.47 343.725 1211.25 343.275 1211.1 342.9C1211.02 342.75 1211.1 342.675 1211.02 342.675C1211.02 342.675 1211.02 342.675 1211.1 342.6C1211.25 342.45 1211.47 342.3 1211.7 342.225C1212.07 342.075 1212.45 341.925 1212.82 341.625C1212.9 341.55 1212.97 341.475 1213.05 341.325C1213.12 341.1 1213.12 340.875 1213.05 340.65C1212.75 340.5 1212.52 340.35 1212.45 340.275C1212.22 340.125 1211.85 340.125 1211.55 340.2C1211.47 340.2 1211.4 340.275 1211.32 340.275C1211.25 340.275 1211.17 340.35 1211.1 340.35H1211.02C1210.95 340.35 1210.87 340.35 1210.8 340.35C1210.8 340.2 1210.8 340.05 1210.8 339.825C1210.8 339.675 1210.8 339.525 1210.8 339.375V339.3C1210.8 338.7 1210.8 338.1 1210.72 337.575V337.5C1210.5 336.45 1209.82 335.475 1208.85 334.725C1208.17 334.275 1207.42 333.975 1206.6 333.9C1206.37 333.9 1206.15 333.9 1205.92 333.9H1205.77C1204.95 333.9 1203.75 334.05 1202.7 334.875C1202.02 335.4 1201.5 336.075 1201.2 336.825C1201.05 337.725 1201.05 338.55 1201.12 339.225V339.6C1201.12 339.9 1201.12 340.125 1201.12 340.35C1201.05 340.35 1200.9 340.35 1200.82 340.275C1200.75 340.275 1200.67 340.275 1200.52 340.275C1200.45 340.275 1200.37 340.2 1200.37 340.2H1200.3C1200 340.125 1199.7 340.2 1199.55 340.35C1199.55 340.35 1199.55 340.35 1199.47 340.35C1199.17 340.575 1199.02 340.8 1199.02 341.1C1199.02 341.1 1199.02 341.175 1199.02 341.25C1199.02 341.475 1199.17 341.625 1199.32 341.775C1199.4 341.85 1199.47 341.85 1199.47 341.925L1199.55 342C1199.85 342.225 1200.22 342.3 1200.52 342.45L1200.75 342.375C1200.97 342.45 1201.05 342.6 1201.05 342.6C1201.12 342.825 1200.9 343.125 1200.9 343.2C1200.52 343.95 1200 344.55 1199.32 345C1198.95 345.225 1198.57 345.375 1198.2 345.525H1198.12C1197.97 345.525 1197.75 345.6 1197.52 345.9C1197.52 345.9 1197.45 345.975 1197.45 346.05C1197.37 346.35 1197.45 346.575 1197.6 346.725C1197.67 346.875 1197.82 346.95 1197.9 346.95C1198.27 347.175 1198.72 347.25 1199.1 347.4H1199.17C1199.17 347.4 1199.17 347.4 1199.25 347.4L1199.47 347.475C1199.55 347.475 1199.7 347.55 1199.77 347.55C1199.77 347.625 1199.85 347.775 1199.85 347.85C1199.85 348 1199.92 348.075 1199.92 348.225C1199.85 348.525 1200 348.675 1200.22 348.75C1200.45 348.825 1200.6 348.75 1200.67 348.75C1201.27 348.675 1201.87 348.6 1202.32 348.675C1202.7 348.75 1203.07 349.05 1203.52 349.275C1203.67 349.35 1203.82 349.425 1203.97 349.575C1204.42 349.875 1204.87 350.1 1205.55 350.1C1205.7 350.1 1205.77 350.1 1205.92 350.1C1206.22 350.1 1206.52 350.1 1206.82 350.025C1207.2 350.025 1207.57 349.875 1207.87 349.65C1208.1 349.5 1208.32 349.35 1208.55 349.2C1208.92 348.975 1209.22 348.75 1209.6 348.6C1209.67 348.6 1209.82 348.525 1210.05 348.525H1210.2C1210.65 348.525 1211.17 348.525 1211.62 348.6H1211.77C1211.92 348.6 1212.07 348.525 1212.15 348.375C1212.22 348.3 1212.22 348.225 1212.3 348.15L1212.37 347.925C1212.45 347.775 1212.45 347.55 1212.52 347.55H1212.6H1212.67C1213.12 347.475 1213.5 347.4 1213.8 347.25L1213.95 347.175H1214.02C1214.17 347.1 1214.4 347.025 1214.62 346.725C1214.7 346.575 1214.77 346.35 1214.77 346.2C1214.55 346.05 1214.47 345.9 1214.32 345.75Z" fill="#DCDEF1"/>
</g>
<path fill-rule="evenodd" clip-rule="evenodd" d="M232.972 388.748C232.972 386.4 231.068 384.496 228.72 384.496C226.372 384.496 224.469 386.4 224.469 388.748C224.469 391.096 226.372 393 228.72 393C231.068 393 232.972 391.096 232.972 388.748Z" fill="#52B4DA"/>
<path d="M265.952 366.215C268.491 366.215 270.77 366.818 272.788 368.015C274.807 369.215 276.358 370.826 277.442 372.844C278.527 374.862 279.069 377.085 279.069 379.516C279.069 380.204 279.026 380.878 278.935 381.534H259.739C260.03 383.264 260.721 384.587 261.813 385.513C262.907 386.435 264.288 386.899 265.952 386.899C267.131 386.899 268.188 386.641 269.13 386.12C270.069 385.6 270.8 384.882 271.321 383.965H278.519C277.601 386.732 276.012 388.929 273.749 390.559C271.488 392.188 268.887 392.999 265.952 392.999C263.492 392.999 261.256 392.414 259.246 391.243C257.236 390.078 255.657 388.467 254.511 386.419C253.364 384.368 252.792 382.097 252.792 379.607C252.792 377.102 253.362 374.825 254.5 372.774C255.639 370.724 257.214 369.121 259.224 367.958C261.234 366.795 263.476 366.215 265.952 366.215ZM295.005 366.215C298.278 366.215 301.086 367.168 303.433 369.072C305.78 370.971 307.267 373.491 307.894 376.626H301.081C300.53 375.375 299.713 374.398 298.629 373.702C297.544 373.006 296.319 372.66 294.96 372.66C293.109 372.66 291.563 373.318 290.316 374.641C289.07 375.965 288.447 377.603 288.447 379.562C288.447 381.52 289.072 383.171 290.327 384.525C291.581 385.88 293.125 386.555 294.96 386.555C296.352 386.555 297.574 386.188 298.629 385.454C299.684 384.72 300.501 383.673 301.081 382.313H307.985C307.389 385.508 305.894 388.088 303.501 390.051C301.108 392.018 298.262 392.999 294.96 392.999C293.079 392.999 291.306 392.652 289.64 391.956C287.972 391.259 286.545 390.316 285.353 389.123C284.16 387.93 283.219 386.5 282.531 384.836C281.843 383.172 281.5 381.404 281.5 379.54C281.5 377.673 281.843 375.913 282.531 374.263C283.219 372.612 284.16 371.197 285.353 370.021C286.545 368.846 287.978 367.917 289.65 367.237C291.325 366.555 293.109 366.215 295.005 366.215ZM334.514 380.799C334.514 382.603 334.965 384.011 335.865 385.031C336.766 386.046 338.013 386.553 339.602 386.553C341.193 386.553 342.431 386.04 343.319 385.018C344.204 383.996 344.646 382.588 344.646 380.799V366.924H351.505V381.578C351.505 385.004 350.42 387.762 348.248 389.855C346.077 391.952 343.195 392.998 339.602 392.998C336.025 392.998 333.14 391.952 330.947 389.855C328.754 387.762 327.656 385.004 327.656 381.578V366.924H334.514V380.799ZM238.969 359.406C242.271 359.406 245.009 360.434 247.188 362.489C249.366 364.547 250.456 367.149 250.456 370.298C250.456 372.423 249.922 374.322 248.851 375.998C247.779 377.67 246.32 378.959 244.473 379.861L251.74 392.291H243.781L233.592 374.495H238.485C239.953 374.495 241.116 374.102 241.972 373.314C242.827 372.527 243.256 371.506 243.256 370.253C243.256 369 242.827 367.974 241.972 367.18C241.116 366.386 239.953 365.988 238.485 365.988H228.721L224.952 359.406H238.969ZM377.183 366.925H384.179V372.428H377.299V382.313C377.299 383.552 377.635 384.507 378.308 385.179C378.979 385.853 379.943 386.188 381.197 386.188H384.315V392.291H379.454C376.673 392.291 374.474 391.48 372.86 389.867C371.247 388.256 370.443 386.041 370.443 383.231V372.428H365.857V370.961L375.877 360.299H377.183V366.925ZM325.225 366.924V373.025H322.106C320.852 373.025 319.889 373.361 319.217 374.035C318.545 374.707 318.207 375.662 318.207 376.9V392.289H311.353V375.983C311.353 373.172 312.156 370.957 313.77 369.347C315.383 367.733 317.582 366.924 320.363 366.924H325.225ZM363.427 392.289H356.568V366.924H363.427V392.289ZM265.952 372.061C264.442 372.061 263.157 372.482 262.1 373.323C261.047 374.165 260.319 375.341 259.923 376.854H272.215C271.74 375.309 270.965 374.127 269.886 373.302C268.809 372.476 267.498 372.061 265.952 372.061ZM363.402 364.013H356.568V357.18H363.402V364.013Z" fill="#FFFFFE"/>
<path fill-rule="evenodd" clip-rule="evenodd" d="M205.587 342.213L200 351.884H211.172L205.587 342.213Z" fill="#FFFFFE"/>
<path d="M242.817 325.811C245.355 325.811 247.635 326.412 249.653 327.61C251.671 328.811 253.222 330.421 254.307 332.438C255.391 334.457 255.933 336.68 255.934 339.11C255.934 339.798 255.891 340.473 255.799 341.129H236.603C236.895 342.858 237.586 344.183 238.679 345.108C239.771 346.031 241.153 346.495 242.817 346.495C243.996 346.495 245.054 346.236 245.995 345.715C246.934 345.194 247.665 344.477 248.185 343.56H255.383C254.466 346.328 252.877 348.524 250.613 350.153C248.353 351.782 245.752 352.595 242.817 352.595C240.357 352.595 238.119 352.01 236.109 350.839C234.1 349.673 232.522 348.062 231.375 346.015C230.229 343.964 229.657 341.693 229.657 339.202C229.657 336.696 230.226 334.419 231.364 332.368C232.502 330.318 234.078 328.716 236.088 327.554C238.098 326.391 240.341 325.811 242.817 325.811ZM314.591 325.811C317.159 325.811 319.493 326.388 321.586 327.54C323.68 328.694 325.322 330.298 326.515 332.348C327.707 334.395 328.307 336.68 328.307 339.202C328.307 341.709 327.707 343.986 326.515 346.036C325.322 348.086 323.68 349.688 321.586 350.852C319.493 352.015 317.159 352.595 314.591 352.595C312.009 352.595 309.67 352.015 307.576 350.852C305.48 349.688 303.84 348.087 302.655 346.036C301.471 343.986 300.88 341.709 300.88 339.202C300.88 336.664 301.471 334.376 302.655 332.336C303.84 330.291 305.48 328.694 307.576 327.54C309.67 326.388 312.009 325.811 314.591 325.811ZM361.935 325.811C364.474 325.811 366.754 326.412 368.772 327.61C370.79 328.811 372.341 330.421 373.426 332.438C374.51 334.457 375.053 336.68 375.053 339.11C375.053 339.798 375.009 340.473 374.918 341.129H355.723C356.013 342.858 356.704 344.183 357.797 345.108C358.89 346.031 360.271 346.495 361.935 346.495C363.114 346.495 364.172 346.236 365.114 345.715C366.053 345.194 366.784 344.477 367.304 343.56H374.502C373.585 346.328 371.996 348.524 369.732 350.153C367.471 351.782 364.871 352.595 361.935 352.595C359.475 352.595 357.238 352.01 355.228 350.839C353.218 349.673 351.641 348.062 350.494 346.015C349.348 343.964 348.775 341.693 348.775 339.202C348.775 336.696 349.345 334.419 350.483 332.368C351.622 330.318 353.197 328.716 355.207 327.554C357.217 326.391 359.459 325.811 361.935 325.811ZM215.833 319C219.135 319 221.873 320.028 224.053 322.084C226.229 324.141 227.32 326.743 227.32 329.893C227.32 332.017 226.786 333.916 225.715 335.592C224.644 337.265 223.184 338.553 221.336 339.455L228.604 351.884H220.645L210.456 334.089H215.35C216.818 334.089 217.98 333.695 218.835 332.907C219.691 332.121 220.119 331.1 220.119 329.847C220.119 328.594 219.69 327.569 218.835 326.774C217.98 325.98 216.818 325.582 215.35 325.582H205.586L201.817 319H215.833ZM288.523 325.926C291.154 325.926 293.297 326.857 294.956 328.721C296.615 330.588 297.445 333.002 297.445 335.967V351.884H290.588V337.116C290.588 335.417 290.264 334.129 289.613 333.253C288.964 332.373 288.019 331.932 286.781 331.932C285.251 331.932 284.056 332.479 283.193 333.571C282.329 334.667 281.895 336.2 281.895 338.169V351.884H275.224V337.116C275.224 335.417 274.905 334.129 274.27 333.253C273.637 332.373 272.708 331.932 271.486 331.932C269.927 331.932 268.71 332.479 267.839 333.571C266.968 334.667 266.533 336.2 266.533 338.169V351.884H259.676V326.519H264.445L265.729 329.662C266.631 328.516 267.75 327.606 269.088 326.935C270.426 326.26 271.829 325.926 273.297 325.926C274.902 325.926 276.349 326.282 277.633 326.988C278.917 327.701 279.925 328.7 280.659 329.983C281.544 328.732 282.681 327.739 284.064 327.016C285.449 326.287 286.935 325.926 288.523 325.926ZM340.039 326.519H347.035V332.022H340.156V341.907C340.156 343.146 340.493 344.101 341.165 344.772C341.837 345.447 342.799 345.781 344.054 345.781H347.173V351.884H342.31C339.529 351.884 337.33 351.074 335.717 349.461C334.104 347.85 333.3 345.635 333.3 342.824V332.022H328.714V330.555L338.734 319.893H340.039V326.519ZM314.59 332.256C312.621 332.256 310.999 332.901 309.728 334.193C308.46 335.483 307.827 337.155 307.827 339.202C307.827 341.25 308.46 342.924 309.728 344.213C310.999 345.505 312.621 346.149 314.59 346.149C316.565 346.149 318.184 345.505 319.452 344.213C320.722 342.924 321.356 341.25 321.356 339.202C321.356 337.155 320.722 335.483 319.452 334.193C318.184 332.901 316.565 332.256 314.59 332.256ZM242.817 331.656C241.306 331.656 240.021 332.077 238.964 332.919C237.912 333.76 237.184 334.937 236.787 336.45H249.078C248.604 334.905 247.829 333.723 246.75 332.897C245.674 332.072 244.362 331.656 242.817 331.656ZM361.935 331.656C360.425 331.656 359.141 332.077 358.083 332.919C357.031 333.76 356.302 334.937 355.905 336.45H368.197C367.723 334.905 366.948 333.723 365.869 332.897C364.792 332.072 363.481 331.656 361.935 331.656Z" fill="#52B4DA"/>
<rect opacity="0.497503" y="493" width="1440" height="1" fill="#8BA3CC"/>
<path fill-rule="evenodd" clip-rule="evenodd" d="M731.65 534.742C733.245 533.961 734.519 532.867 735.451 531.443C736.405 529.985 736.881 528.331 736.881 526.482C736.881 523.74 735.91 521.475 733.972 519.684C732.031 517.895 729.593 517 726.652 517H714.173L717.529 522.729H726.223C727.529 522.729 728.565 523.076 729.326 523.767C730.087 524.459 730.47 525.351 730.47 526.442C730.47 527.533 730.087 528.422 729.326 529.106C728.565 529.792 727.529 530.135 726.223 530.135H721.864L732.913 549H740C740 549 732.149 535.596 731.65 534.742Z" fill="#50C0E3"/>
<path fill-rule="evenodd" clip-rule="evenodd" d="M708.35 531.257C706.755 532.038 705.481 533.132 704.549 534.556C703.595 536.015 703.119 537.668 703.119 539.518C703.119 542.259 704.09 544.525 706.028 546.315C707.969 548.105 710.407 549 713.348 549H725.827L722.471 543.27H713.778C712.471 543.27 711.436 542.924 710.674 542.232C709.913 541.541 709.531 540.649 709.531 539.558C709.531 538.467 709.913 537.578 710.674 536.893C711.436 536.207 712.471 535.865 713.778 535.865H718.135L707.086 517H700C700 517 707.852 530.404 708.35 531.257Z" fill="#FFFFFE"/>
</g>
<defs>
<linearGradient id="paint0_linear_1_132" x1="-644.712" y1="220.856" x2="-118.041" y2="-848.397" gradientUnits="userSpaceOnUse">
<stop stop-color="#52B4DA"/>
<stop offset="1" stop-color="#377999"/>
</linearGradient>
<linearGradient id="paint1_linear_1_132" x1="-644.712" y1="224.856" x2="-118.041" y2="-844.397" gradientUnits="userSpaceOnUse">
<stop stop-color="#336DA6"/>
<stop offset="1" stop-color="#1E3E85"/>
</linearGradient>
<linearGradient id="paint2_linear_1_132" x1="964" y1="342" x2="996" y2="374" gradientUnits="userSpaceOnUse">
<stop stop-color="#EBEDFF"/>
<stop offset="1" stop-color="#ADB8FF"/>
</linearGradient>
<linearGradient id="paint3_linear_1_132" x1="1090" y1="342" x2="1122" y2="374" gradientUnits="userSpaceOnUse">
<stop stop-color="#EBEDFF"/>
<stop offset="1" stop-color="#ADB8FF"/>
</linearGradient>
<linearGradient id="paint4_linear_1_132" x1="1132" y1="342" x2="1164" y2="374" gradientUnits="userSpaceOnUse">
<stop stop-color="#EBEDFF"/>
<stop offset="1" stop-color="#ADB8FF"/>
</linearGradient>
<linearGradient id="paint5_linear_1_132" x1="1048" y1="342" x2="1080" y2="374" gradientUnits="userSpaceOnUse">
<stop stop-color="#EBEDFF"/>
<stop offset="1" stop-color="#ADB8FF"/>
</linearGradient>
<linearGradient id="paint6_linear_1_132" x1="1006" y1="342" x2="1038" y2="374" gradientUnits="userSpaceOnUse">
<stop stop-color="#EBEDFF"/>
<stop offset="1" stop-color="#ADB8FF"/>
</linearGradient>
<linearGradient id="paint7_linear_1_132" x1="1174" y1="342" x2="1206" y2="374" gradientUnits="userSpaceOnUse">
<stop stop-color="#EBEDFF"/>
<stop offset="1" stop-color="#ADB8FF"/>
</linearGradient>
<clipPath id="clip0_1_132">
<rect width="1440" height="569" fill="white"/>
</clipPath>
<clipPath id="clip1_1_132">
<rect width="14" height="14" fill="white" transform="translate(1073 335)"/>
</clipPath>
<clipPath id="clip2_1_132">
<rect width="18" height="18" fill="white" transform="translate(1197 333)"/>
</clipPath>
</defs>
</svg>
